<svg xmlns="http://www.w3.org/2000/svg" width="960" height="540" viewBox="0 0 960 540">
<rect x="0" y="0" width="960" height="540" fill="white"/>
<line x1="70.00" y1="480.00" x2="940.00" y2="480.00" stroke="#E6E6E6" stroke-width="1"/>
<text x="60.00" y="484.00" text-anchor="end" font-family="system-ui, -apple-system, Segoe UI, Roboto, Helvetica, Arial, sans-serif" font-size="12" fill="#222222">0</text>
<line x1="70.00" y1="332.85" x2="940.00" y2="332.85" stroke="#E6E6E6" stroke-width="1"/>
<text x="60.00" y="336.85" text-anchor="end" font-family="system-ui, -apple-system, Segoe UI, Roboto, Helvetica, Arial, sans-serif" font-size="12" fill="#222222">2000</text>
<line x1="70.00" y1="185.69" x2="940.00" y2="185.69" stroke="#E6E6E6" stroke-width="1"/>
<text x="60.00" y="189.69" text-anchor="end" font-family="system-ui, -apple-system, Segoe UI, Roboto, Helvetica, Arial, sans-serif" font-size="12" fill="#222222">4000</text>
<line x1="70.00" y1="38.54" x2="940.00" y2="38.54" stroke="#E6E6E6" stroke-width="1"/>
<text x="60.00" y="42.54" text-anchor="end" font-family="system-ui, -apple-system, Segoe UI, Roboto, Helvetica, Arial, sans-serif" font-size="12" fill="#222222">6000</text>
<line x1="70.00" y1="-108.61" x2="940.00" y2="-108.61" stroke="#E6E6E6" stroke-width="1"/>
<text x="60.00" y="-104.61" text-anchor="end" font-family="system-ui, -apple-system, Segoe UI, Roboto, Helvetica, Arial, sans-serif" font-size="12" fill="#222222">8000</text>
<line x1="70.00" y1="20.00" x2="70.00" y2="480.00" stroke="#E6E6E6" stroke-width="1"/>
<text x="70.00" y="500.00" text-anchor="middle" font-family="system-ui, -apple-system, Segoe UI, Roboto, Helvetica, Arial, sans-serif" font-size="12" fill="#222222">0</text>
<line x1="343.50" y1="20.00" x2="343.50" y2="480.00" stroke="#E6E6E6" stroke-width="1"/>
<text x="343.50" y="500.00" text-anchor="middle" font-family="system-ui, -apple-system, Segoe UI, Roboto, Helvetica, Arial, sans-serif" font-size="12" fill="#222222">1000</text>
<line x1="617.00" y1="20.00" x2="617.00" y2="480.00" stroke="#E6E6E6" stroke-width="1"/>
<text x="617.00" y="500.00" text-anchor="middle" font-family="system-ui, -apple-system, Segoe UI, Roboto, Helvetica, Arial, sans-serif" font-size="12" fill="#222222">2000</text>
<line x1="890.50" y1="20.00" x2="890.50" y2="480.00" stroke="#E6E6E6" stroke-width="1"/>
<text x="890.50" y="500.00" text-anchor="middle" font-family="system-ui, -apple-system, Segoe UI, Roboto, Helvetica, Arial, sans-serif" font-size="12" fill="#222222">3000</text>
<line x1="1164.00" y1="20.00" x2="1164.00" y2="480.00" stroke="#E6E6E6" stroke-width="1"/>
<text x="1164.00" y="500.00" text-anchor="middle" font-family="system-ui, -apple-system, Segoe UI, Roboto, Helvetica, Arial, sans-serif" font-size="12" fill="#222222">4000</text>
<line x1="70.00" y1="480.00" x2="940.00" y2="480.00" stroke="#222222" stroke-width="1.5"/>
<line x1="70.00" y1="20.00" x2="70.00" y2="480.00" stroke="#222222" stroke-width="1.5"/>
<rect x="70.00" y="20.00" width="13.50" height="460.00" fill="#4C78A8"/>
<rect x="84.50" y="243.23" width="13.50" height="236.77" fill="#4C78A8"/>
<rect x="99.00" y="320.78" width="13.50" height="159.22" fill="#4C78A8"/>
<rect x="113.50" y="334.47" width="13.50" height="145.53" fill="#4C78A8"/>
<rect x="128.00" y="368.53" width="13.50" height="111.47" fill="#4C78A8"/>
<rect x="142.50" y="381.19" width="13.50" height="98.81" fill="#4C78A8"/>
<rect x="157.00" y="411.65" width="13.50" height="68.35" fill="#4C78A8"/>
<rect x="171.50" y="409.81" width="13.50" height="70.19" fill="#4C78A8"/>
<rect x="186.00" y="420.26" width="13.50" height="59.74" fill="#4C78A8"/>
<rect x="200.50" y="424.67" width="13.50" height="55.33" fill="#4C78A8"/>
<rect x="215.00" y="422.54" width="13.50" height="57.46" fill="#4C78A8"/>
<rect x="229.50" y="438.94" width="13.50" height="41.06" fill="#4C78A8"/>
<rect x="244.00" y="424.30" width="13.50" height="55.70" fill="#4C78A8"/>
<rect x="258.50" y="436.66" width="13.50" height="43.34" fill="#4C78A8"/>
<rect x="273.00" y="443.95" width="13.50" height="36.05" fill="#4C78A8"/>
<rect x="287.50" y="440.93" width="13.50" height="39.07" fill="#4C78A8"/>
<rect x="302.00" y="440.27" width="13.50" height="39.73" fill="#4C78A8"/>
<rect x="316.50" y="445.57" width="13.50" height="34.43" fill="#4C78A8"/>
<rect x="331.00" y="446.23" width="13.50" height="33.77" fill="#4C78A8"/>
<rect x="345.50" y="441.15" width="13.50" height="38.85" fill="#4C78A8"/>
<rect x="360.00" y="455.13" width="13.50" height="24.87" fill="#4C78A8"/>
<rect x="374.50" y="413.27" width="13.50" height="66.73" fill="#4C78A8"/>
<rect x="389.00" y="367.43" width="13.50" height="112.57" fill="#4C78A8"/>
<rect x="403.50" y="459.18" width="13.50" height="20.82" fill="#4C78A8"/>
<rect x="418.00" y="459.03" width="13.50" height="20.97" fill="#4C78A8"/>
<rect x="432.50" y="417.24" width="13.50" height="62.76" fill="#4C78A8"/>
<rect x="447.00" y="463.96" width="13.50" height="16.04" fill="#4C78A8"/>
<rect x="461.50" y="460.21" width="13.50" height="19.79" fill="#4C78A8"/>
<rect x="476.00" y="432.76" width="13.50" height="47.24" fill="#4C78A8"/>
<rect x="490.50" y="467.27" width="13.50" height="12.73" fill="#4C78A8"/>
<rect x="505.00" y="472.50" width="13.50" height="7.50" fill="#4C78A8"/>
<rect x="519.50" y="475.07" width="13.50" height="4.93" fill="#4C78A8"/>
<rect x="534.00" y="474.56" width="13.50" height="5.44" fill="#4C78A8"/>
<rect x="548.50" y="476.25" width="13.50" height="3.75" fill="#4C78A8"/>
<rect x="563.00" y="475.95" width="13.50" height="4.05" fill="#4C78A8"/>
<rect x="577.50" y="477.87" width="13.50" height="2.13" fill="#4C78A8"/>
<rect x="592.00" y="478.75" width="13.50" height="1.25" fill="#4C78A8"/>
<rect x="606.50" y="477.65" width="13.50" height="2.35" fill="#4C78A8"/>
<rect x="621.00" y="477.87" width="13.50" height="2.13" fill="#4C78A8"/>
<rect x="635.50" y="478.23" width="13.50" height="1.77" fill="#4C78A8"/>
<rect x="650.00" y="478.09" width="13.50" height="1.91" fill="#4C78A8"/>
<rect x="664.50" y="478.60" width="13.50" height="1.40" fill="#4C78A8"/>
<rect x="679.00" y="479.04" width="13.50" height="0.96" fill="#4C78A8"/>
<rect x="693.50" y="479.04" width="13.50" height="0.96" fill="#4C78A8"/>
<rect x="708.00" y="479.48" width="13.50" height="0.52" fill="#4C78A8"/>
<rect x="722.50" y="478.38" width="13.50" height="1.62" fill="#4C78A8"/>
<rect x="737.00" y="478.97" width="13.50" height="1.03" fill="#4C78A8"/>
<rect x="751.50" y="478.60" width="13.50" height="1.40" fill="#4C78A8"/>
<rect x="766.00" y="479.34" width="13.50" height="0.66" fill="#4C78A8"/>
<rect x="780.50" y="479.71" width="13.50" height="0.29" fill="#4C78A8"/>
<rect x="795.00" y="479.71" width="13.50" height="0.29" fill="#4C78A8"/>
<rect x="809.50" y="479.34" width="13.50" height="0.66" fill="#4C78A8"/>
<rect x="824.00" y="479.26" width="13.50" height="0.74" fill="#4C78A8"/>
<rect x="838.50" y="479.78" width="13.50" height="0.22" fill="#4C78A8"/>
<rect x="853.00" y="479.93" width="13.50" height="0.07" fill="#4C78A8"/>
<rect x="867.50" y="479.71" width="13.50" height="0.29" fill="#4C78A8"/>
<rect x="882.00" y="479.93" width="13.50" height="0.07" fill="#4C78A8"/>
<rect x="896.50" y="479.93" width="13.50" height="0.07" fill="#4C78A8"/>
<rect x="911.00" y="479.78" width="13.50" height="0.22" fill="#4C78A8"/>
<rect x="925.50" y="479.78" width="13.50" height="0.22" fill="#4C78A8"/>
<text x="480.00" y="28" text-anchor="middle" font-family="system-ui, -apple-system, Segoe UI, Roboto, Helvetica, Arial, sans-serif" font-size="18" fill="#222222">propagation lag_days histogram (hop=1, n=31781)</text>
<text x="480.00" y="48" text-anchor="middle" font-family="system-ui, -apple-system, Segoe UI, Roboto, Helvetica, Arial, sans-serif" font-size="12" fill="#222222">bins=60, x_max=3181</text>
<text x="480.00" y="520.00" text-anchor="middle" font-family="system-ui, -apple-system, Segoe UI, Roboto, Helvetica, Arial, sans-serif" font-size="14" fill="#222222">lag_days</text>
<text x="18" y="270.00" text-anchor="middle" font-family="system-ui, -apple-system, Segoe UI, Roboto, Helvetica, Arial, sans-serif" font-size="14" fill="#222222" transform="rotate(-90 18 270.00)">count</text>
</svg>
