<svg xmlns="http://www.w3.org/2000/svg" width="960" height="540" viewBox="0 0 960 540">
<rect x="0" y="0" width="960" height="540" fill="white"/>
<line x1="70.00" y1="480.00" x2="940.00" y2="480.00" stroke="#E6E6E6" stroke-width="1"/>
<text x="60.00" y="484.00" text-anchor="end" font-family="system-ui, -apple-system, Segoe UI, Roboto, Helvetica, Arial, sans-serif" font-size="12" fill="#222222">0</text>
<line x1="70.00" y1="362.28" x2="940.00" y2="362.28" stroke="#E6E6E6" stroke-width="1"/>
<text x="60.00" y="366.28" text-anchor="end" font-family="system-ui, -apple-system, Segoe UI, Roboto, Helvetica, Arial, sans-serif" font-size="12" fill="#222222">200000</text>
<line x1="70.00" y1="244.55" x2="940.00" y2="244.55" stroke="#E6E6E6" stroke-width="1"/>
<text x="60.00" y="248.55" text-anchor="end" font-family="system-ui, -apple-system, Segoe UI, Roboto, Helvetica, Arial, sans-serif" font-size="12" fill="#222222">400000</text>
<line x1="70.00" y1="126.83" x2="940.00" y2="126.83" stroke="#E6E6E6" stroke-width="1"/>
<text x="60.00" y="130.83" text-anchor="end" font-family="system-ui, -apple-system, Segoe UI, Roboto, Helvetica, Arial, sans-serif" font-size="12" fill="#222222">600000</text>
<line x1="70.00" y1="9.11" x2="940.00" y2="9.11" stroke="#E6E6E6" stroke-width="1"/>
<text x="60.00" y="13.11" text-anchor="end" font-family="system-ui, -apple-system, Segoe UI, Roboto, Helvetica, Arial, sans-serif" font-size="12" fill="#222222">800000</text>
<line x1="70.00" y1="20.00" x2="70.00" y2="480.00" stroke="#E6E6E6" stroke-width="1"/>
<text x="70.00" y="500.00" text-anchor="middle" font-family="system-ui, -apple-system, Segoe UI, Roboto, Helvetica, Arial, sans-serif" font-size="12" fill="#222222">0</text>
<line x1="343.50" y1="20.00" x2="343.50" y2="480.00" stroke="#E6E6E6" stroke-width="1"/>
<text x="343.50" y="500.00" text-anchor="middle" font-family="system-ui, -apple-system, Segoe UI, Roboto, Helvetica, Arial, sans-serif" font-size="12" fill="#222222">1000</text>
<line x1="617.00" y1="20.00" x2="617.00" y2="480.00" stroke="#E6E6E6" stroke-width="1"/>
<text x="617.00" y="500.00" text-anchor="middle" font-family="system-ui, -apple-system, Segoe UI, Roboto, Helvetica, Arial, sans-serif" font-size="12" fill="#222222">2000</text>
<line x1="890.50" y1="20.00" x2="890.50" y2="480.00" stroke="#E6E6E6" stroke-width="1"/>
<text x="890.50" y="500.00" text-anchor="middle" font-family="system-ui, -apple-system, Segoe UI, Roboto, Helvetica, Arial, sans-serif" font-size="12" fill="#222222">3000</text>
<line x1="1164.00" y1="20.00" x2="1164.00" y2="480.00" stroke="#E6E6E6" stroke-width="1"/>
<text x="1164.00" y="500.00" text-anchor="middle" font-family="system-ui, -apple-system, Segoe UI, Roboto, Helvetica, Arial, sans-serif" font-size="12" fill="#222222">4000</text>
<line x1="70.00" y1="480.00" x2="940.00" y2="480.00" stroke="#222222" stroke-width="1.5"/>
<line x1="70.00" y1="20.00" x2="70.00" y2="480.00" stroke="#222222" stroke-width="1.5"/>
<rect x="70.00" y="20.00" width="13.50" height="460.00" fill="#4C78A8"/>
<rect x="84.50" y="428.30" width="13.50" height="51.70" fill="#4C78A8"/>
<rect x="99.00" y="443.94" width="13.50" height="36.06" fill="#4C78A8"/>
<rect x="113.50" y="457.51" width="13.50" height="22.49" fill="#4C78A8"/>
<rect x="128.00" y="464.97" width="13.50" height="15.03" fill="#4C78A8"/>
<rect x="142.50" y="463.27" width="13.50" height="16.73" fill="#4C78A8"/>
<rect x="157.00" y="467.58" width="13.50" height="12.42" fill="#4C78A8"/>
<rect x="171.50" y="472.33" width="13.50" height="7.67" fill="#4C78A8"/>
<rect x="186.00" y="471.74" width="13.50" height="8.26" fill="#4C78A8"/>
<rect x="200.50" y="474.68" width="13.50" height="5.32" fill="#4C78A8"/>
<rect x="215.00" y="476.05" width="13.50" height="3.95" fill="#4C78A8"/>
<rect x="229.50" y="476.67" width="13.50" height="3.33" fill="#4C78A8"/>
<rect x="244.00" y="476.13" width="13.50" height="3.87" fill="#4C78A8"/>
<rect x="258.50" y="477.62" width="13.50" height="2.38" fill="#4C78A8"/>
<rect x="273.00" y="477.95" width="13.50" height="2.05" fill="#4C78A8"/>
<rect x="287.50" y="478.43" width="13.50" height="1.57" fill="#4C78A8"/>
<rect x="302.00" y="478.55" width="13.50" height="1.45" fill="#4C78A8"/>
<rect x="316.50" y="478.86" width="13.50" height="1.14" fill="#4C78A8"/>
<rect x="331.00" y="478.98" width="13.50" height="1.02" fill="#4C78A8"/>
<rect x="345.50" y="479.16" width="13.50" height="0.84" fill="#4C78A8"/>
<rect x="360.00" y="479.31" width="13.50" height="0.69" fill="#4C78A8"/>
<rect x="374.50" y="479.02" width="13.50" height="0.98" fill="#4C78A8"/>
<rect x="389.00" y="478.74" width="13.50" height="1.26" fill="#4C78A8"/>
<rect x="403.50" y="479.50" width="13.50" height="0.50" fill="#4C78A8"/>
<rect x="418.00" y="479.57" width="13.50" height="0.43" fill="#4C78A8"/>
<rect x="432.50" y="479.21" width="13.50" height="0.79" fill="#4C78A8"/>
<rect x="447.00" y="479.59" width="13.50" height="0.41" fill="#4C78A8"/>
<rect x="461.50" y="479.71" width="13.50" height="0.29" fill="#4C78A8"/>
<rect x="476.00" y="479.18" width="13.50" height="0.82" fill="#4C78A8"/>
<rect x="490.50" y="479.83" width="13.50" height="0.17" fill="#4C78A8"/>
<rect x="505.00" y="479.87" width="13.50" height="0.13" fill="#4C78A8"/>
<rect x="519.50" y="479.88" width="13.50" height="0.12" fill="#4C78A8"/>
<rect x="534.00" y="479.90" width="13.50" height="0.10" fill="#4C78A8"/>
<rect x="548.50" y="479.91" width="13.50" height="0.09" fill="#4C78A8"/>
<rect x="563.00" y="479.91" width="13.50" height="0.09" fill="#4C78A8"/>
<rect x="577.50" y="479.94" width="13.50" height="0.06" fill="#4C78A8"/>
<rect x="592.00" y="479.96" width="13.50" height="0.04" fill="#4C78A8"/>
<rect x="606.50" y="479.96" width="13.50" height="0.04" fill="#4C78A8"/>
<rect x="621.00" y="479.97" width="13.50" height="0.03" fill="#4C78A8"/>
<rect x="635.50" y="479.98" width="13.50" height="0.02" fill="#4C78A8"/>
<rect x="650.00" y="479.98" width="13.50" height="0.02" fill="#4C78A8"/>
<rect x="664.50" y="479.98" width="13.50" height="0.02" fill="#4C78A8"/>
<rect x="679.00" y="479.99" width="13.50" height="0.01" fill="#4C78A8"/>
<rect x="693.50" y="479.99" width="13.50" height="0.01" fill="#4C78A8"/>
<rect x="708.00" y="479.99" width="13.50" height="0.01" fill="#4C78A8"/>
<rect x="722.50" y="479.99" width="13.50" height="0.01" fill="#4C78A8"/>
<rect x="737.00" y="479.99" width="13.50" height="0.01" fill="#4C78A8"/>
<rect x="751.50" y="479.99" width="13.50" height="0.01" fill="#4C78A8"/>
<rect x="766.00" y="479.99" width="13.50" height="0.01" fill="#4C78A8"/>
<rect x="780.50" y="480.00" width="13.50" height="0.00" fill="#4C78A8"/>
<rect x="795.00" y="480.00" width="13.50" height="0.00" fill="#4C78A8"/>
<rect x="809.50" y="479.99" width="13.50" height="0.01" fill="#4C78A8"/>
<rect x="824.00" y="479.99" width="13.50" height="0.01" fill="#4C78A8"/>
<rect x="838.50" y="480.00" width="13.50" height="0.00" fill="#4C78A8"/>
<rect x="853.00" y="480.00" width="13.50" height="0.00" fill="#4C78A8"/>
<rect x="867.50" y="480.00" width="13.50" height="0.00" fill="#4C78A8"/>
<rect x="882.00" y="480.00" width="13.50" height="0.00" fill="#4C78A8"/>
<rect x="896.50" y="480.00" width="13.50" height="0.00" fill="#4C78A8"/>
<rect x="911.00" y="480.00" width="13.50" height="0.00" fill="#4C78A8"/>
<rect x="925.50" y="480.00" width="13.50" height="0.00" fill="#4C78A8"/>
<text x="480.00" y="28" text-anchor="middle" font-family="system-ui, -apple-system, Segoe UI, Roboto, Helvetica, Arial, sans-serif" font-size="18" fill="#222222">propagation lag_days histogram (all hops, n=1128888)</text>
<text x="480.00" y="48" text-anchor="middle" font-family="system-ui, -apple-system, Segoe UI, Roboto, Helvetica, Arial, sans-serif" font-size="12" fill="#222222">bins=60, x_max=3181</text>
<text x="480.00" y="520.00" text-anchor="middle" font-family="system-ui, -apple-system, Segoe UI, Roboto, Helvetica, Arial, sans-serif" font-size="14" fill="#222222">lag_days</text>
<text x="18" y="270.00" text-anchor="middle" font-family="system-ui, -apple-system, Segoe UI, Roboto, Helvetica, Arial, sans-serif" font-size="14" fill="#222222" transform="rotate(-90 18 270.00)">count</text>
</svg>
