<svg xmlns="http://www.w3.org/2000/svg" width="960" height="540" viewBox="0 0 960 540">
<rect x="0" y="0" width="960" height="540" fill="white"/>
<line x1="70.00" y1="480.00" x2="940.00" y2="480.00" stroke="#E6E6E6" stroke-width="1"/>
<text x="60.00" y="484.00" text-anchor="end" font-family="system-ui, -apple-system, Segoe UI, Roboto, Helvetica, Arial, sans-serif" font-size="12" fill="#222222">0</text>
<line x1="70.00" y1="354.10" x2="940.00" y2="354.10" stroke="#E6E6E6" stroke-width="1"/>
<text x="60.00" y="358.10" text-anchor="end" font-family="system-ui, -apple-system, Segoe UI, Roboto, Helvetica, Arial, sans-serif" font-size="12" fill="#222222">200000</text>
<line x1="70.00" y1="228.19" x2="940.00" y2="228.19" stroke="#E6E6E6" stroke-width="1"/>
<text x="60.00" y="232.19" text-anchor="end" font-family="system-ui, -apple-system, Segoe UI, Roboto, Helvetica, Arial, sans-serif" font-size="12" fill="#222222">400000</text>
<line x1="70.00" y1="102.29" x2="940.00" y2="102.29" stroke="#E6E6E6" stroke-width="1"/>
<text x="60.00" y="106.29" text-anchor="end" font-family="system-ui, -apple-system, Segoe UI, Roboto, Helvetica, Arial, sans-serif" font-size="12" fill="#222222">600000</text>
<line x1="70.00" y1="-23.61" x2="940.00" y2="-23.61" stroke="#E6E6E6" stroke-width="1"/>
<text x="60.00" y="-19.61" text-anchor="end" font-family="system-ui, -apple-system, Segoe UI, Roboto, Helvetica, Arial, sans-serif" font-size="12" fill="#222222">800000</text>
<line x1="70.00" y1="20.00" x2="70.00" y2="480.00" stroke="#E6E6E6" stroke-width="1"/>
<text x="70.00" y="500.00" text-anchor="middle" font-family="system-ui, -apple-system, Segoe UI, Roboto, Helvetica, Arial, sans-serif" font-size="12" fill="#222222">0</text>
<line x1="343.50" y1="20.00" x2="343.50" y2="480.00" stroke="#E6E6E6" stroke-width="1"/>
<text x="343.50" y="500.00" text-anchor="middle" font-family="system-ui, -apple-system, Segoe UI, Roboto, Helvetica, Arial, sans-serif" font-size="12" fill="#222222">1000</text>
<line x1="617.00" y1="20.00" x2="617.00" y2="480.00" stroke="#E6E6E6" stroke-width="1"/>
<text x="617.00" y="500.00" text-anchor="middle" font-family="system-ui, -apple-system, Segoe UI, Roboto, Helvetica, Arial, sans-serif" font-size="12" fill="#222222">2000</text>
<line x1="890.50" y1="20.00" x2="890.50" y2="480.00" stroke="#E6E6E6" stroke-width="1"/>
<text x="890.50" y="500.00" text-anchor="middle" font-family="system-ui, -apple-system, Segoe UI, Roboto, Helvetica, Arial, sans-serif" font-size="12" fill="#222222">3000</text>
<line x1="1164.00" y1="20.00" x2="1164.00" y2="480.00" stroke="#E6E6E6" stroke-width="1"/>
<text x="1164.00" y="500.00" text-anchor="middle" font-family="system-ui, -apple-system, Segoe UI, Roboto, Helvetica, Arial, sans-serif" font-size="12" fill="#222222">4000</text>
<line x1="70.00" y1="480.00" x2="940.00" y2="480.00" stroke="#222222" stroke-width="1.5"/>
<line x1="70.00" y1="20.00" x2="70.00" y2="480.00" stroke="#222222" stroke-width="1.5"/>
<rect x="70.00" y="20.00" width="13.50" height="460.00" fill="#4C78A8"/>
<rect x="84.50" y="429.14" width="13.50" height="50.86" fill="#4C78A8"/>
<rect x="99.00" y="443.70" width="13.50" height="36.30" fill="#4C78A8"/>
<rect x="113.50" y="457.77" width="13.50" height="22.23" fill="#4C78A8"/>
<rect x="128.00" y="464.82" width="13.50" height="15.18" fill="#4C78A8"/>
<rect x="142.50" y="462.73" width="13.50" height="17.27" fill="#4C78A8"/>
<rect x="157.00" y="467.32" width="13.50" height="12.68" fill="#4C78A8"/>
<rect x="171.50" y="472.23" width="13.50" height="7.77" fill="#4C78A8"/>
<rect x="186.00" y="471.56" width="13.50" height="8.44" fill="#4C78A8"/>
<rect x="200.50" y="474.61" width="13.50" height="5.39" fill="#4C78A8"/>
<rect x="215.00" y="476.07" width="13.50" height="3.93" fill="#4C78A8"/>
<rect x="229.50" y="476.95" width="13.50" height="3.05" fill="#4C78A8"/>
<rect x="244.00" y="476.10" width="13.50" height="3.90" fill="#4C78A8"/>
<rect x="258.50" y="477.67" width="13.50" height="2.33" fill="#4C78A8"/>
<rect x="273.00" y="477.99" width="13.50" height="2.01" fill="#4C78A8"/>
<rect x="287.50" y="478.43" width="13.50" height="1.57" fill="#4C78A8"/>
<rect x="302.00" y="478.57" width="13.50" height="1.43" fill="#4C78A8"/>
<rect x="316.50" y="478.87" width="13.50" height="1.13" fill="#4C78A8"/>
<rect x="331.00" y="478.99" width="13.50" height="1.01" fill="#4C78A8"/>
<rect x="345.50" y="479.16" width="13.50" height="0.84" fill="#4C78A8"/>
<rect x="360.00" y="479.34" width="13.50" height="0.66" fill="#4C78A8"/>
<rect x="374.50" y="478.99" width="13.50" height="1.01" fill="#4C78A8"/>
<rect x="389.00" y="478.70" width="13.50" height="1.30" fill="#4C78A8"/>
<rect x="403.50" y="479.51" width="13.50" height="0.49" fill="#4C78A8"/>
<rect x="418.00" y="479.64" width="13.50" height="0.36" fill="#4C78A8"/>
<rect x="432.50" y="479.19" width="13.50" height="0.81" fill="#4C78A8"/>
<rect x="447.00" y="479.59" width="13.50" height="0.41" fill="#4C78A8"/>
<rect x="461.50" y="479.72" width="13.50" height="0.28" fill="#4C78A8"/>
<rect x="476.00" y="479.15" width="13.50" height="0.85" fill="#4C78A8"/>
<rect x="490.50" y="479.83" width="13.50" height="0.17" fill="#4C78A8"/>
<rect x="505.00" y="479.88" width="13.50" height="0.12" fill="#4C78A8"/>
<rect x="519.50" y="479.88" width="13.50" height="0.12" fill="#4C78A8"/>
<rect x="534.00" y="479.91" width="13.50" height="0.09" fill="#4C78A8"/>
<rect x="548.50" y="479.91" width="13.50" height="0.09" fill="#4C78A8"/>
<rect x="563.00" y="479.91" width="13.50" height="0.09" fill="#4C78A8"/>
<rect x="577.50" y="479.94" width="13.50" height="0.06" fill="#4C78A8"/>
<rect x="592.00" y="479.96" width="13.50" height="0.04" fill="#4C78A8"/>
<rect x="606.50" y="479.96" width="13.50" height="0.04" fill="#4C78A8"/>
<rect x="621.00" y="479.97" width="13.50" height="0.03" fill="#4C78A8"/>
<rect x="635.50" y="479.97" width="13.50" height="0.03" fill="#4C78A8"/>
<rect x="650.00" y="479.98" width="13.50" height="0.02" fill="#4C78A8"/>
<rect x="664.50" y="479.98" width="13.50" height="0.02" fill="#4C78A8"/>
<rect x="679.00" y="479.99" width="13.50" height="0.01" fill="#4C78A8"/>
<rect x="693.50" y="479.99" width="13.50" height="0.01" fill="#4C78A8"/>
<rect x="708.00" y="479.99" width="13.50" height="0.01" fill="#4C78A8"/>
<rect x="722.50" y="479.99" width="13.50" height="0.01" fill="#4C78A8"/>
<rect x="737.00" y="479.99" width="13.50" height="0.01" fill="#4C78A8"/>
<rect x="751.50" y="479.99" width="13.50" height="0.01" fill="#4C78A8"/>
<rect x="766.00" y="479.99" width="13.50" height="0.01" fill="#4C78A8"/>
<rect x="780.50" y="480.00" width="13.50" height="0.00" fill="#4C78A8"/>
<rect x="795.00" y="480.00" width="13.50" height="0.00" fill="#4C78A8"/>
<rect x="809.50" y="479.99" width="13.50" height="0.01" fill="#4C78A8"/>
<rect x="824.00" y="479.99" width="13.50" height="0.01" fill="#4C78A8"/>
<rect x="838.50" y="480.00" width="13.50" height="0.00" fill="#4C78A8"/>
<rect x="853.00" y="480.00" width="13.50" height="0.00" fill="#4C78A8"/>
<rect x="867.50" y="480.00" width="13.50" height="0.00" fill="#4C78A8"/>
<rect x="882.00" y="480.00" width="13.50" height="0.00" fill="#4C78A8"/>
<rect x="896.50" y="480.00" width="13.50" height="0.00" fill="#4C78A8"/>
<rect x="911.00" y="480.00" width="13.50" height="0.00" fill="#4C78A8"/>
<rect x="925.50" y="480.00" width="13.50" height="0.00" fill="#4C78A8"/>
<text x="480.00" y="28" text-anchor="middle" font-family="system-ui, -apple-system, Segoe UI, Roboto, Helvetica, Arial, sans-serif" font-size="18" fill="#222222">propagation lag_days histogram (all hops, n=1055597)</text>
<text x="480.00" y="48" text-anchor="middle" font-family="system-ui, -apple-system, Segoe UI, Roboto, Helvetica, Arial, sans-serif" font-size="12" fill="#222222">bins=60, x_max=3181</text>
<text x="480.00" y="520.00" text-anchor="middle" font-family="system-ui, -apple-system, Segoe UI, Roboto, Helvetica, Arial, sans-serif" font-size="14" fill="#222222">lag_days</text>
<text x="18" y="270.00" text-anchor="middle" font-family="system-ui, -apple-system, Segoe UI, Roboto, Helvetica, Arial, sans-serif" font-size="14" fill="#222222" transform="rotate(-90 18 270.00)">count</text>
</svg>
