<svg xmlns="http://www.w3.org/2000/svg" width="960" height="540" viewBox="0 0 960 540">
<rect x="0" y="0" width="960" height="540" fill="white"/>
<line x1="70.00" y1="480.00" x2="940.00" y2="480.00" stroke="#E6E6E6" stroke-width="1"/>
<text x="60.00" y="484.00" text-anchor="end" font-family="system-ui, -apple-system, Segoe UI, Roboto, Helvetica, Arial, sans-serif" font-size="12" fill="#222222">0</text>
<line x1="70.00" y1="297.33" x2="940.00" y2="297.33" stroke="#E6E6E6" stroke-width="1"/>
<text x="60.00" y="301.33" text-anchor="end" font-family="system-ui, -apple-system, Segoe UI, Roboto, Helvetica, Arial, sans-serif" font-size="12" fill="#222222">50000</text>
<line x1="70.00" y1="114.67" x2="940.00" y2="114.67" stroke="#E6E6E6" stroke-width="1"/>
<text x="60.00" y="118.67" text-anchor="end" font-family="system-ui, -apple-system, Segoe UI, Roboto, Helvetica, Arial, sans-serif" font-size="12" fill="#222222">100000</text>
<line x1="70.00" y1="-68.00" x2="940.00" y2="-68.00" stroke="#E6E6E6" stroke-width="1"/>
<text x="60.00" y="-64.00" text-anchor="end" font-family="system-ui, -apple-system, Segoe UI, Roboto, Helvetica, Arial, sans-serif" font-size="12" fill="#222222">150000</text>
<line x1="70.00" y1="20.00" x2="70.00" y2="480.00" stroke="#E6E6E6" stroke-width="1"/>
<text x="70.00" y="500.00" text-anchor="middle" font-family="system-ui, -apple-system, Segoe UI, Roboto, Helvetica, Arial, sans-serif" font-size="12" fill="#222222">0</text>
<line x1="264.98" y1="20.00" x2="264.98" y2="480.00" stroke="#E6E6E6" stroke-width="1"/>
<text x="264.98" y="500.00" text-anchor="middle" font-family="system-ui, -apple-system, Segoe UI, Roboto, Helvetica, Arial, sans-serif" font-size="12" fill="#222222">500</text>
<line x1="459.96" y1="20.00" x2="459.96" y2="480.00" stroke="#E6E6E6" stroke-width="1"/>
<text x="459.96" y="500.00" text-anchor="middle" font-family="system-ui, -apple-system, Segoe UI, Roboto, Helvetica, Arial, sans-serif" font-size="12" fill="#222222">1000</text>
<line x1="654.94" y1="20.00" x2="654.94" y2="480.00" stroke="#E6E6E6" stroke-width="1"/>
<text x="654.94" y="500.00" text-anchor="middle" font-family="system-ui, -apple-system, Segoe UI, Roboto, Helvetica, Arial, sans-serif" font-size="12" fill="#222222">1500</text>
<line x1="849.92" y1="20.00" x2="849.92" y2="480.00" stroke="#E6E6E6" stroke-width="1"/>
<text x="849.92" y="500.00" text-anchor="middle" font-family="system-ui, -apple-system, Segoe UI, Roboto, Helvetica, Arial, sans-serif" font-size="12" fill="#222222">2000</text>
<line x1="1044.90" y1="20.00" x2="1044.90" y2="480.00" stroke="#E6E6E6" stroke-width="1"/>
<text x="1044.90" y="500.00" text-anchor="middle" font-family="system-ui, -apple-system, Segoe UI, Roboto, Helvetica, Arial, sans-serif" font-size="12" fill="#222222">2500</text>
<line x1="70.00" y1="480.00" x2="940.00" y2="480.00" stroke="#222222" stroke-width="1.5"/>
<line x1="70.00" y1="20.00" x2="70.00" y2="480.00" stroke="#222222" stroke-width="1.5"/>
<rect x="70.00" y="20.00" width="13.50" height="460.00" fill="#4C78A8"/>
<rect x="84.50" y="432.78" width="13.50" height="47.22" fill="#4C78A8"/>
<rect x="99.00" y="440.77" width="13.50" height="39.23" fill="#4C78A8"/>
<rect x="113.50" y="450.74" width="13.50" height="29.26" fill="#4C78A8"/>
<rect x="128.00" y="459.82" width="13.50" height="20.18" fill="#4C78A8"/>
<rect x="142.50" y="463.26" width="13.50" height="16.74" fill="#4C78A8"/>
<rect x="157.00" y="468.18" width="13.50" height="11.82" fill="#4C78A8"/>
<rect x="171.50" y="463.76" width="13.50" height="16.24" fill="#4C78A8"/>
<rect x="186.00" y="469.20" width="13.50" height="10.80" fill="#4C78A8"/>
<rect x="200.50" y="469.92" width="13.50" height="10.08" fill="#4C78A8"/>
<rect x="215.00" y="473.33" width="13.50" height="6.67" fill="#4C78A8"/>
<rect x="229.50" y="472.99" width="13.50" height="7.01" fill="#4C78A8"/>
<rect x="244.00" y="475.57" width="13.50" height="4.43" fill="#4C78A8"/>
<rect x="258.50" y="475.85" width="13.50" height="4.15" fill="#4C78A8"/>
<rect x="273.00" y="476.39" width="13.50" height="3.61" fill="#4C78A8"/>
<rect x="287.50" y="476.55" width="13.50" height="3.45" fill="#4C78A8"/>
<rect x="302.00" y="475.55" width="13.50" height="4.45" fill="#4C78A8"/>
<rect x="316.50" y="477.67" width="13.50" height="2.33" fill="#4C78A8"/>
<rect x="331.00" y="477.52" width="13.50" height="2.48" fill="#4C78A8"/>
<rect x="345.50" y="478.19" width="13.50" height="1.81" fill="#4C78A8"/>
<rect x="360.00" y="478.30" width="13.50" height="1.70" fill="#4C78A8"/>
<rect x="374.50" y="478.66" width="13.50" height="1.34" fill="#4C78A8"/>
<rect x="389.00" y="478.83" width="13.50" height="1.17" fill="#4C78A8"/>
<rect x="403.50" y="479.12" width="13.50" height="0.88" fill="#4C78A8"/>
<rect x="418.00" y="479.20" width="13.50" height="0.80" fill="#4C78A8"/>
<rect x="432.50" y="479.36" width="13.50" height="0.64" fill="#4C78A8"/>
<rect x="447.00" y="479.28" width="13.50" height="0.72" fill="#4C78A8"/>
<rect x="461.50" y="479.38" width="13.50" height="0.62" fill="#4C78A8"/>
<rect x="476.00" y="479.66" width="13.50" height="0.34" fill="#4C78A8"/>
<rect x="490.50" y="479.58" width="13.50" height="0.42" fill="#4C78A8"/>
<rect x="505.00" y="479.60" width="13.50" height="0.40" fill="#4C78A8"/>
<rect x="519.50" y="479.68" width="13.50" height="0.32" fill="#4C78A8"/>
<rect x="534.00" y="479.70" width="13.50" height="0.30" fill="#4C78A8"/>
<rect x="548.50" y="479.71" width="13.50" height="0.29" fill="#4C78A8"/>
<rect x="563.00" y="479.80" width="13.50" height="0.20" fill="#4C78A8"/>
<rect x="577.50" y="479.81" width="13.50" height="0.19" fill="#4C78A8"/>
<rect x="592.00" y="479.90" width="13.50" height="0.10" fill="#4C78A8"/>
<rect x="606.50" y="479.82" width="13.50" height="0.18" fill="#4C78A8"/>
<rect x="621.00" y="479.93" width="13.50" height="0.07" fill="#4C78A8"/>
<rect x="635.50" y="479.96" width="13.50" height="0.04" fill="#4C78A8"/>
<rect x="650.00" y="479.92" width="13.50" height="0.08" fill="#4C78A8"/>
<rect x="664.50" y="479.96" width="13.50" height="0.04" fill="#4C78A8"/>
<rect x="679.00" y="479.95" width="13.50" height="0.05" fill="#4C78A8"/>
<rect x="693.50" y="479.94" width="13.50" height="0.06" fill="#4C78A8"/>
<rect x="708.00" y="479.93" width="13.50" height="0.07" fill="#4C78A8"/>
<rect x="722.50" y="479.95" width="13.50" height="0.05" fill="#4C78A8"/>
<rect x="737.00" y="479.94" width="13.50" height="0.06" fill="#4C78A8"/>
<rect x="751.50" y="479.98" width="13.50" height="0.02" fill="#4C78A8"/>
<rect x="766.00" y="479.95" width="13.50" height="0.05" fill="#4C78A8"/>
<rect x="780.50" y="479.98" width="13.50" height="0.02" fill="#4C78A8"/>
<rect x="795.00" y="479.99" width="13.50" height="0.01" fill="#4C78A8"/>
<rect x="809.50" y="479.98" width="13.50" height="0.02" fill="#4C78A8"/>
<rect x="824.00" y="479.99" width="13.50" height="0.01" fill="#4C78A8"/>
<rect x="838.50" y="479.99" width="13.50" height="0.01" fill="#4C78A8"/>
<rect x="853.00" y="479.98" width="13.50" height="0.02" fill="#4C78A8"/>
<rect x="867.50" y="479.99" width="13.50" height="0.01" fill="#4C78A8"/>
<rect x="882.00" y="480.00" width="13.50" height="0.00" fill="#4C78A8"/>
<rect x="896.50" y="480.00" width="13.50" height="0.00" fill="#4C78A8"/>
<rect x="911.00" y="479.99" width="13.50" height="0.01" fill="#4C78A8"/>
<rect x="925.50" y="479.99" width="13.50" height="0.01" fill="#4C78A8"/>
<text x="480.00" y="28" text-anchor="middle" font-family="system-ui, -apple-system, Segoe UI, Roboto, Helvetica, Arial, sans-serif" font-size="18" fill="#222222">propagation lag_days histogram (hop=4, n=195250)</text>
<text x="480.00" y="48" text-anchor="middle" font-family="system-ui, -apple-system, Segoe UI, Roboto, Helvetica, Arial, sans-serif" font-size="12" fill="#222222">bins=60, x_max=2231</text>
<text x="480.00" y="520.00" text-anchor="middle" font-family="system-ui, -apple-system, Segoe UI, Roboto, Helvetica, Arial, sans-serif" font-size="14" fill="#222222">lag_days</text>
<text x="18" y="270.00" text-anchor="middle" font-family="system-ui, -apple-system, Segoe UI, Roboto, Helvetica, Arial, sans-serif" font-size="14" fill="#222222" transform="rotate(-90 18 270.00)">count</text>
</svg>
