<svg xmlns="http://www.w3.org/2000/svg" width="960" height="540" viewBox="0 0 960 540">
<rect x="0" y="0" width="960" height="540" fill="white"/>
<line x1="70.00" y1="480.00" x2="940.00" y2="480.00" stroke="#E6E6E6" stroke-width="1"/>
<text x="60.00" y="484.00" text-anchor="end" font-family="system-ui, -apple-system, Segoe UI, Roboto, Helvetica, Arial, sans-serif" font-size="12" fill="#222222">0</text>
<line x1="70.00" y1="256.28" x2="940.00" y2="256.28" stroke="#E6E6E6" stroke-width="1"/>
<text x="60.00" y="260.28" text-anchor="end" font-family="system-ui, -apple-system, Segoe UI, Roboto, Helvetica, Arial, sans-serif" font-size="12" fill="#222222">50000</text>
<line x1="70.00" y1="32.56" x2="940.00" y2="32.56" stroke="#E6E6E6" stroke-width="1"/>
<text x="60.00" y="36.56" text-anchor="end" font-family="system-ui, -apple-system, Segoe UI, Roboto, Helvetica, Arial, sans-serif" font-size="12" fill="#222222">100000</text>
<line x1="70.00" y1="-191.17" x2="940.00" y2="-191.17" stroke="#E6E6E6" stroke-width="1"/>
<text x="60.00" y="-187.17" text-anchor="end" font-family="system-ui, -apple-system, Segoe UI, Roboto, Helvetica, Arial, sans-serif" font-size="12" fill="#222222">150000</text>
<line x1="70.00" y1="20.00" x2="70.00" y2="480.00" stroke="#E6E6E6" stroke-width="1"/>
<text x="70.00" y="500.00" text-anchor="middle" font-family="system-ui, -apple-system, Segoe UI, Roboto, Helvetica, Arial, sans-serif" font-size="12" fill="#222222">0</text>
<line x1="260.46" y1="20.00" x2="260.46" y2="480.00" stroke="#E6E6E6" stroke-width="1"/>
<text x="260.46" y="500.00" text-anchor="middle" font-family="system-ui, -apple-system, Segoe UI, Roboto, Helvetica, Arial, sans-serif" font-size="12" fill="#222222">500</text>
<line x1="450.91" y1="20.00" x2="450.91" y2="480.00" stroke="#E6E6E6" stroke-width="1"/>
<text x="450.91" y="500.00" text-anchor="middle" font-family="system-ui, -apple-system, Segoe UI, Roboto, Helvetica, Arial, sans-serif" font-size="12" fill="#222222">1000</text>
<line x1="641.37" y1="20.00" x2="641.37" y2="480.00" stroke="#E6E6E6" stroke-width="1"/>
<text x="641.37" y="500.00" text-anchor="middle" font-family="system-ui, -apple-system, Segoe UI, Roboto, Helvetica, Arial, sans-serif" font-size="12" fill="#222222">1500</text>
<line x1="831.82" y1="20.00" x2="831.82" y2="480.00" stroke="#E6E6E6" stroke-width="1"/>
<text x="831.82" y="500.00" text-anchor="middle" font-family="system-ui, -apple-system, Segoe UI, Roboto, Helvetica, Arial, sans-serif" font-size="12" fill="#222222">2000</text>
<line x1="1022.28" y1="20.00" x2="1022.28" y2="480.00" stroke="#E6E6E6" stroke-width="1"/>
<text x="1022.28" y="500.00" text-anchor="middle" font-family="system-ui, -apple-system, Segoe UI, Roboto, Helvetica, Arial, sans-serif" font-size="12" fill="#222222">2500</text>
<line x1="70.00" y1="480.00" x2="940.00" y2="480.00" stroke="#222222" stroke-width="1.5"/>
<line x1="70.00" y1="20.00" x2="70.00" y2="480.00" stroke="#222222" stroke-width="1.5"/>
<rect x="70.00" y="20.00" width="13.50" height="460.00" fill="#4C78A8"/>
<rect x="84.50" y="429.57" width="13.50" height="50.43" fill="#4C78A8"/>
<rect x="99.00" y="438.37" width="13.50" height="41.63" fill="#4C78A8"/>
<rect x="113.50" y="448.47" width="13.50" height="31.53" fill="#4C78A8"/>
<rect x="128.00" y="455.12" width="13.50" height="24.88" fill="#4C78A8"/>
<rect x="142.50" y="462.70" width="13.50" height="17.30" fill="#4C78A8"/>
<rect x="157.00" y="466.29" width="13.50" height="13.71" fill="#4C78A8"/>
<rect x="171.50" y="459.35" width="13.50" height="20.65" fill="#4C78A8"/>
<rect x="186.00" y="467.09" width="13.50" height="12.91" fill="#4C78A8"/>
<rect x="200.50" y="467.50" width="13.50" height="12.50" fill="#4C78A8"/>
<rect x="215.00" y="472.64" width="13.50" height="7.36" fill="#4C78A8"/>
<rect x="229.50" y="468.44" width="13.50" height="11.56" fill="#4C78A8"/>
<rect x="244.00" y="469.47" width="13.50" height="10.53" fill="#4C78A8"/>
<rect x="258.50" y="474.73" width="13.50" height="5.27" fill="#4C78A8"/>
<rect x="273.00" y="476.15" width="13.50" height="3.85" fill="#4C78A8"/>
<rect x="287.50" y="476.61" width="13.50" height="3.39" fill="#4C78A8"/>
<rect x="302.00" y="476.61" width="13.50" height="3.39" fill="#4C78A8"/>
<rect x="316.50" y="474.79" width="13.50" height="5.21" fill="#4C78A8"/>
<rect x="331.00" y="477.19" width="13.50" height="2.81" fill="#4C78A8"/>
<rect x="345.50" y="477.93" width="13.50" height="2.07" fill="#4C78A8"/>
<rect x="360.00" y="476.75" width="13.50" height="3.25" fill="#4C78A8"/>
<rect x="374.50" y="478.31" width="13.50" height="1.69" fill="#4C78A8"/>
<rect x="389.00" y="478.53" width="13.50" height="1.47" fill="#4C78A8"/>
<rect x="403.50" y="477.97" width="13.50" height="2.03" fill="#4C78A8"/>
<rect x="418.00" y="478.80" width="13.50" height="1.20" fill="#4C78A8"/>
<rect x="432.50" y="479.01" width="13.50" height="0.99" fill="#4C78A8"/>
<rect x="447.00" y="478.65" width="13.50" height="1.35" fill="#4C78A8"/>
<rect x="461.50" y="479.23" width="13.50" height="0.77" fill="#4C78A8"/>
<rect x="476.00" y="479.16" width="13.50" height="0.84" fill="#4C78A8"/>
<rect x="490.50" y="479.38" width="13.50" height="0.62" fill="#4C78A8"/>
<rect x="505.00" y="479.40" width="13.50" height="0.60" fill="#4C78A8"/>
<rect x="519.50" y="479.57" width="13.50" height="0.43" fill="#4C78A8"/>
<rect x="534.00" y="479.42" width="13.50" height="0.58" fill="#4C78A8"/>
<rect x="548.50" y="479.56" width="13.50" height="0.44" fill="#4C78A8"/>
<rect x="563.00" y="479.74" width="13.50" height="0.26" fill="#4C78A8"/>
<rect x="577.50" y="479.75" width="13.50" height="0.25" fill="#4C78A8"/>
<rect x="592.00" y="479.31" width="13.50" height="0.69" fill="#4C78A8"/>
<rect x="606.50" y="479.68" width="13.50" height="0.32" fill="#4C78A8"/>
<rect x="621.00" y="479.88" width="13.50" height="0.12" fill="#4C78A8"/>
<rect x="635.50" y="479.81" width="13.50" height="0.19" fill="#4C78A8"/>
<rect x="650.00" y="479.91" width="13.50" height="0.09" fill="#4C78A8"/>
<rect x="664.50" y="479.90" width="13.50" height="0.10" fill="#4C78A8"/>
<rect x="679.00" y="479.83" width="13.50" height="0.17" fill="#4C78A8"/>
<rect x="693.50" y="479.87" width="13.50" height="0.13" fill="#4C78A8"/>
<rect x="708.00" y="479.92" width="13.50" height="0.08" fill="#4C78A8"/>
<rect x="722.50" y="479.93" width="13.50" height="0.07" fill="#4C78A8"/>
<rect x="737.00" y="479.86" width="13.50" height="0.14" fill="#4C78A8"/>
<rect x="751.50" y="479.82" width="13.50" height="0.18" fill="#4C78A8"/>
<rect x="766.00" y="479.89" width="13.50" height="0.11" fill="#4C78A8"/>
<rect x="780.50" y="479.91" width="13.50" height="0.09" fill="#4C78A8"/>
<rect x="795.00" y="479.91" width="13.50" height="0.09" fill="#4C78A8"/>
<rect x="809.50" y="479.94" width="13.50" height="0.06" fill="#4C78A8"/>
<rect x="824.00" y="479.98" width="13.50" height="0.02" fill="#4C78A8"/>
<rect x="838.50" y="479.98" width="13.50" height="0.02" fill="#4C78A8"/>
<rect x="853.00" y="479.96" width="13.50" height="0.04" fill="#4C78A8"/>
<rect x="867.50" y="480.00" width="13.50" height="0.00" fill="#4C78A8"/>
<rect x="882.00" y="479.99" width="13.50" height="0.01" fill="#4C78A8"/>
<rect x="896.50" y="480.00" width="13.50" height="0.00" fill="#4C78A8"/>
<rect x="911.00" y="480.00" width="13.50" height="0.00" fill="#4C78A8"/>
<rect x="925.50" y="480.00" width="13.50" height="0.00" fill="#4C78A8"/>
<text x="480.00" y="28" text-anchor="middle" font-family="system-ui, -apple-system, Segoe UI, Roboto, Helvetica, Arial, sans-serif" font-size="18" fill="#222222">propagation lag_days histogram (hop=3, n=169958)</text>
<text x="480.00" y="48" text-anchor="middle" font-family="system-ui, -apple-system, Segoe UI, Roboto, Helvetica, Arial, sans-serif" font-size="12" fill="#222222">bins=60, x_max=2284</text>
<text x="480.00" y="520.00" text-anchor="middle" font-family="system-ui, -apple-system, Segoe UI, Roboto, Helvetica, Arial, sans-serif" font-size="14" fill="#222222">lag_days</text>
<text x="18" y="270.00" text-anchor="middle" font-family="system-ui, -apple-system, Segoe UI, Roboto, Helvetica, Arial, sans-serif" font-size="14" fill="#222222" transform="rotate(-90 18 270.00)">count</text>
</svg>
