<svg xmlns="http://www.w3.org/2000/svg" width="960" height="540" viewBox="0 0 960 540">
<rect x="0" y="0" width="960" height="540" fill="white"/>
<line x1="70.00" y1="480.00" x2="940.00" y2="480.00" stroke="#E6E6E6" stroke-width="1"/>
<text x="60.00" y="484.00" text-anchor="end" font-family="system-ui, -apple-system, Segoe UI, Roboto, Helvetica, Arial, sans-serif" font-size="12" fill="#222222">0</text>
<line x1="70.00" y1="254.38" x2="940.00" y2="254.38" stroke="#E6E6E6" stroke-width="1"/>
<text x="60.00" y="258.38" text-anchor="end" font-family="system-ui, -apple-system, Segoe UI, Roboto, Helvetica, Arial, sans-serif" font-size="12" fill="#222222">5000</text>
<line x1="70.00" y1="28.75" x2="940.00" y2="28.75" stroke="#E6E6E6" stroke-width="1"/>
<text x="60.00" y="32.75" text-anchor="end" font-family="system-ui, -apple-system, Segoe UI, Roboto, Helvetica, Arial, sans-serif" font-size="12" fill="#222222">10000</text>
<line x1="70.00" y1="-196.87" x2="940.00" y2="-196.87" stroke="#E6E6E6" stroke-width="1"/>
<text x="60.00" y="-192.87" text-anchor="end" font-family="system-ui, -apple-system, Segoe UI, Roboto, Helvetica, Arial, sans-serif" font-size="12" fill="#222222">15000</text>
<line x1="70.00" y1="20.00" x2="70.00" y2="480.00" stroke="#E6E6E6" stroke-width="1"/>
<text x="70.00" y="500.00" text-anchor="middle" font-family="system-ui, -apple-system, Segoe UI, Roboto, Helvetica, Arial, sans-serif" font-size="12" fill="#222222">0</text>
<line x1="358.46" y1="20.00" x2="358.46" y2="480.00" stroke="#E6E6E6" stroke-width="1"/>
<text x="358.46" y="500.00" text-anchor="middle" font-family="system-ui, -apple-system, Segoe UI, Roboto, Helvetica, Arial, sans-serif" font-size="12" fill="#222222">500</text>
<line x1="646.92" y1="20.00" x2="646.92" y2="480.00" stroke="#E6E6E6" stroke-width="1"/>
<text x="646.92" y="500.00" text-anchor="middle" font-family="system-ui, -apple-system, Segoe UI, Roboto, Helvetica, Arial, sans-serif" font-size="12" fill="#222222">1000</text>
<line x1="935.38" y1="20.00" x2="935.38" y2="480.00" stroke="#E6E6E6" stroke-width="1"/>
<text x="935.38" y="500.00" text-anchor="middle" font-family="system-ui, -apple-system, Segoe UI, Roboto, Helvetica, Arial, sans-serif" font-size="12" fill="#222222">1500</text>
<line x1="1223.85" y1="20.00" x2="1223.85" y2="480.00" stroke="#E6E6E6" stroke-width="1"/>
<text x="1223.85" y="500.00" text-anchor="middle" font-family="system-ui, -apple-system, Segoe UI, Roboto, Helvetica, Arial, sans-serif" font-size="12" fill="#222222">2000</text>
<line x1="70.00" y1="480.00" x2="940.00" y2="480.00" stroke="#222222" stroke-width="1.5"/>
<line x1="70.00" y1="20.00" x2="70.00" y2="480.00" stroke="#222222" stroke-width="1.5"/>
<rect x="70.00" y="20.00" width="13.50" height="460.00" fill="#4C78A8"/>
<rect x="84.50" y="462.18" width="13.50" height="17.82" fill="#4C78A8"/>
<rect x="99.00" y="466.33" width="13.50" height="13.67" fill="#4C78A8"/>
<rect x="113.50" y="468.85" width="13.50" height="11.15" fill="#4C78A8"/>
<rect x="128.00" y="469.22" width="13.50" height="10.78" fill="#4C78A8"/>
<rect x="142.50" y="473.01" width="13.50" height="6.99" fill="#4C78A8"/>
<rect x="157.00" y="475.49" width="13.50" height="4.51" fill="#4C78A8"/>
<rect x="171.50" y="474.00" width="13.50" height="6.00" fill="#4C78A8"/>
<rect x="186.00" y="476.12" width="13.50" height="3.88" fill="#4C78A8"/>
<rect x="200.50" y="477.56" width="13.50" height="2.44" fill="#4C78A8"/>
<rect x="215.00" y="477.70" width="13.50" height="2.30" fill="#4C78A8"/>
<rect x="229.50" y="478.74" width="13.50" height="1.26" fill="#4C78A8"/>
<rect x="244.00" y="478.33" width="13.50" height="1.67" fill="#4C78A8"/>
<rect x="258.50" y="478.42" width="13.50" height="1.58" fill="#4C78A8"/>
<rect x="273.00" y="478.24" width="13.50" height="1.76" fill="#4C78A8"/>
<rect x="287.50" y="479.14" width="13.50" height="0.86" fill="#4C78A8"/>
<rect x="302.00" y="479.10" width="13.50" height="0.90" fill="#4C78A8"/>
<rect x="316.50" y="479.59" width="13.50" height="0.41" fill="#4C78A8"/>
<rect x="331.00" y="479.46" width="13.50" height="0.54" fill="#4C78A8"/>
<rect x="345.50" y="478.83" width="13.50" height="1.17" fill="#4C78A8"/>
<rect x="360.00" y="479.68" width="13.50" height="0.32" fill="#4C78A8"/>
<rect x="374.50" y="479.73" width="13.50" height="0.27" fill="#4C78A8"/>
<rect x="389.00" y="479.32" width="13.50" height="0.68" fill="#4C78A8"/>
<rect x="403.50" y="479.32" width="13.50" height="0.68" fill="#4C78A8"/>
<rect x="418.00" y="479.86" width="13.50" height="0.14" fill="#4C78A8"/>
<rect x="432.50" y="479.64" width="13.50" height="0.36" fill="#4C78A8"/>
<rect x="447.00" y="479.73" width="13.50" height="0.27" fill="#4C78A8"/>
<rect x="461.50" y="479.68" width="13.50" height="0.32" fill="#4C78A8"/>
<rect x="476.00" y="479.91" width="13.50" height="0.09" fill="#4C78A8"/>
<rect x="490.50" y="479.77" width="13.50" height="0.23" fill="#4C78A8"/>
<rect x="505.00" y="479.64" width="13.50" height="0.36" fill="#4C78A8"/>
<rect x="519.50" y="479.59" width="13.50" height="0.41" fill="#4C78A8"/>
<rect x="534.00" y="479.86" width="13.50" height="0.14" fill="#4C78A8"/>
<rect x="548.50" y="479.95" width="13.50" height="0.05" fill="#4C78A8"/>
<rect x="563.00" y="479.95" width="13.50" height="0.05" fill="#4C78A8"/>
<rect x="577.50" y="479.55" width="13.50" height="0.45" fill="#4C78A8"/>
<rect x="592.00" y="479.95" width="13.50" height="0.05" fill="#4C78A8"/>
<rect x="606.50" y="479.91" width="13.50" height="0.09" fill="#4C78A8"/>
<rect x="621.00" y="479.91" width="13.50" height="0.09" fill="#4C78A8"/>
<rect x="635.50" y="479.91" width="13.50" height="0.09" fill="#4C78A8"/>
<rect x="650.00" y="479.91" width="13.50" height="0.09" fill="#4C78A8"/>
<rect x="664.50" y="479.95" width="13.50" height="0.05" fill="#4C78A8"/>
<rect x="679.00" y="480.00" width="13.50" height="0.00" fill="#4C78A8"/>
<rect x="693.50" y="479.91" width="13.50" height="0.09" fill="#4C78A8"/>
<rect x="708.00" y="479.95" width="13.50" height="0.05" fill="#4C78A8"/>
<rect x="722.50" y="479.91" width="13.50" height="0.09" fill="#4C78A8"/>
<rect x="737.00" y="479.95" width="13.50" height="0.05" fill="#4C78A8"/>
<rect x="751.50" y="479.91" width="13.50" height="0.09" fill="#4C78A8"/>
<rect x="766.00" y="479.95" width="13.50" height="0.05" fill="#4C78A8"/>
<rect x="780.50" y="479.91" width="13.50" height="0.09" fill="#4C78A8"/>
<rect x="795.00" y="479.91" width="13.50" height="0.09" fill="#4C78A8"/>
<rect x="809.50" y="480.00" width="13.50" height="0.00" fill="#4C78A8"/>
<rect x="824.00" y="480.00" width="13.50" height="0.00" fill="#4C78A8"/>
<rect x="838.50" y="480.00" width="13.50" height="0.00" fill="#4C78A8"/>
<rect x="853.00" y="479.86" width="13.50" height="0.14" fill="#4C78A8"/>
<rect x="867.50" y="480.00" width="13.50" height="0.00" fill="#4C78A8"/>
<rect x="882.00" y="480.00" width="13.50" height="0.00" fill="#4C78A8"/>
<rect x="896.50" y="479.95" width="13.50" height="0.05" fill="#4C78A8"/>
<rect x="911.00" y="479.95" width="13.50" height="0.05" fill="#4C78A8"/>
<rect x="925.50" y="479.95" width="13.50" height="0.05" fill="#4C78A8"/>
<text x="480.00" y="28" text-anchor="middle" font-family="system-ui, -apple-system, Segoe UI, Roboto, Helvetica, Arial, sans-serif" font-size="18" fill="#222222">propagation lag_days histogram (hop=10, n=12317)</text>
<text x="480.00" y="48" text-anchor="middle" font-family="system-ui, -apple-system, Segoe UI, Roboto, Helvetica, Arial, sans-serif" font-size="12" fill="#222222">bins=60, x_max=1508</text>
<text x="480.00" y="520.00" text-anchor="middle" font-family="system-ui, -apple-system, Segoe UI, Roboto, Helvetica, Arial, sans-serif" font-size="14" fill="#222222">lag_days</text>
<text x="18" y="270.00" text-anchor="middle" font-family="system-ui, -apple-system, Segoe UI, Roboto, Helvetica, Arial, sans-serif" font-size="14" fill="#222222" transform="rotate(-90 18 270.00)">count</text>
</svg>
