<svg xmlns="http://www.w3.org/2000/svg" width="960" height="540" viewBox="0 0 960 540">
<rect x="0" y="0" width="960" height="540" fill="white"/>
<line x1="70.00" y1="480.00" x2="940.00" y2="480.00" stroke="#E6E6E6" stroke-width="1"/>
<text x="60.00" y="484.00" text-anchor="end" font-family="system-ui, -apple-system, Segoe UI, Roboto, Helvetica, Arial, sans-serif" font-size="12" fill="#222222">0</text>
<line x1="70.00" y1="369.87" x2="940.00" y2="369.87" stroke="#E6E6E6" stroke-width="1"/>
<text x="60.00" y="373.87" text-anchor="end" font-family="system-ui, -apple-system, Segoe UI, Roboto, Helvetica, Arial, sans-serif" font-size="12" fill="#222222">20000</text>
<line x1="70.00" y1="259.74" x2="940.00" y2="259.74" stroke="#E6E6E6" stroke-width="1"/>
<text x="60.00" y="263.74" text-anchor="end" font-family="system-ui, -apple-system, Segoe UI, Roboto, Helvetica, Arial, sans-serif" font-size="12" fill="#222222">40000</text>
<line x1="70.00" y1="149.61" x2="940.00" y2="149.61" stroke="#E6E6E6" stroke-width="1"/>
<text x="60.00" y="153.61" text-anchor="end" font-family="system-ui, -apple-system, Segoe UI, Roboto, Helvetica, Arial, sans-serif" font-size="12" fill="#222222">60000</text>
<line x1="70.00" y1="39.48" x2="940.00" y2="39.48" stroke="#E6E6E6" stroke-width="1"/>
<text x="60.00" y="43.48" text-anchor="end" font-family="system-ui, -apple-system, Segoe UI, Roboto, Helvetica, Arial, sans-serif" font-size="12" fill="#222222">80000</text>
<line x1="70.00" y1="-70.65" x2="940.00" y2="-70.65" stroke="#E6E6E6" stroke-width="1"/>
<text x="60.00" y="-66.65" text-anchor="end" font-family="system-ui, -apple-system, Segoe UI, Roboto, Helvetica, Arial, sans-serif" font-size="12" fill="#222222">100000</text>
<line x1="70.00" y1="20.00" x2="70.00" y2="480.00" stroke="#E6E6E6" stroke-width="1"/>
<text x="70.00" y="500.00" text-anchor="middle" font-family="system-ui, -apple-system, Segoe UI, Roboto, Helvetica, Arial, sans-serif" font-size="12" fill="#222222">0</text>
<line x1="313.42" y1="20.00" x2="313.42" y2="480.00" stroke="#E6E6E6" stroke-width="1"/>
<text x="313.42" y="500.00" text-anchor="middle" font-family="system-ui, -apple-system, Segoe UI, Roboto, Helvetica, Arial, sans-serif" font-size="12" fill="#222222">500</text>
<line x1="556.85" y1="20.00" x2="556.85" y2="480.00" stroke="#E6E6E6" stroke-width="1"/>
<text x="556.85" y="500.00" text-anchor="middle" font-family="system-ui, -apple-system, Segoe UI, Roboto, Helvetica, Arial, sans-serif" font-size="12" fill="#222222">1000</text>
<line x1="800.27" y1="20.00" x2="800.27" y2="480.00" stroke="#E6E6E6" stroke-width="1"/>
<text x="800.27" y="500.00" text-anchor="middle" font-family="system-ui, -apple-system, Segoe UI, Roboto, Helvetica, Arial, sans-serif" font-size="12" fill="#222222">1500</text>
<line x1="1043.70" y1="20.00" x2="1043.70" y2="480.00" stroke="#E6E6E6" stroke-width="1"/>
<text x="1043.70" y="500.00" text-anchor="middle" font-family="system-ui, -apple-system, Segoe UI, Roboto, Helvetica, Arial, sans-serif" font-size="12" fill="#222222">2000</text>
<line x1="70.00" y1="480.00" x2="940.00" y2="480.00" stroke="#222222" stroke-width="1.5"/>
<line x1="70.00" y1="20.00" x2="70.00" y2="480.00" stroke="#222222" stroke-width="1.5"/>
<rect x="70.00" y="20.00" width="13.50" height="460.00" fill="#4C78A8"/>
<rect x="84.50" y="442.87" width="13.50" height="37.13" fill="#4C78A8"/>
<rect x="99.00" y="456.49" width="13.50" height="23.51" fill="#4C78A8"/>
<rect x="113.50" y="463.16" width="13.50" height="16.84" fill="#4C78A8"/>
<rect x="128.00" y="462.42" width="13.50" height="17.58" fill="#4C78A8"/>
<rect x="142.50" y="459.46" width="13.50" height="20.54" fill="#4C78A8"/>
<rect x="157.00" y="471.08" width="13.50" height="8.92" fill="#4C78A8"/>
<rect x="171.50" y="473.50" width="13.50" height="6.50" fill="#4C78A8"/>
<rect x="186.00" y="475.36" width="13.50" height="4.64" fill="#4C78A8"/>
<rect x="200.50" y="469.85" width="13.50" height="10.15" fill="#4C78A8"/>
<rect x="215.00" y="476.86" width="13.50" height="3.14" fill="#4C78A8"/>
<rect x="229.50" y="472.67" width="13.50" height="7.33" fill="#4C78A8"/>
<rect x="244.00" y="477.41" width="13.50" height="2.59" fill="#4C78A8"/>
<rect x="258.50" y="477.75" width="13.50" height="2.25" fill="#4C78A8"/>
<rect x="273.00" y="477.96" width="13.50" height="2.04" fill="#4C78A8"/>
<rect x="287.50" y="478.73" width="13.50" height="1.27" fill="#4C78A8"/>
<rect x="302.00" y="478.60" width="13.50" height="1.40" fill="#4C78A8"/>
<rect x="316.50" y="479.08" width="13.50" height="0.92" fill="#4C78A8"/>
<rect x="331.00" y="479.35" width="13.50" height="0.65" fill="#4C78A8"/>
<rect x="345.50" y="479.23" width="13.50" height="0.77" fill="#4C78A8"/>
<rect x="360.00" y="479.45" width="13.50" height="0.55" fill="#4C78A8"/>
<rect x="374.50" y="479.55" width="13.50" height="0.45" fill="#4C78A8"/>
<rect x="389.00" y="479.58" width="13.50" height="0.42" fill="#4C78A8"/>
<rect x="403.50" y="479.75" width="13.50" height="0.25" fill="#4C78A8"/>
<rect x="418.00" y="479.75" width="13.50" height="0.25" fill="#4C78A8"/>
<rect x="432.50" y="479.75" width="13.50" height="0.25" fill="#4C78A8"/>
<rect x="447.00" y="479.79" width="13.50" height="0.21" fill="#4C78A8"/>
<rect x="461.50" y="479.92" width="13.50" height="0.08" fill="#4C78A8"/>
<rect x="476.00" y="479.41" width="13.50" height="0.59" fill="#4C78A8"/>
<rect x="490.50" y="479.86" width="13.50" height="0.14" fill="#4C78A8"/>
<rect x="505.00" y="479.30" width="13.50" height="0.70" fill="#4C78A8"/>
<rect x="519.50" y="479.94" width="13.50" height="0.06" fill="#4C78A8"/>
<rect x="534.00" y="479.97" width="13.50" height="0.03" fill="#4C78A8"/>
<rect x="548.50" y="479.96" width="13.50" height="0.04" fill="#4C78A8"/>
<rect x="563.00" y="479.98" width="13.50" height="0.02" fill="#4C78A8"/>
<rect x="577.50" y="479.97" width="13.50" height="0.03" fill="#4C78A8"/>
<rect x="592.00" y="479.89" width="13.50" height="0.11" fill="#4C78A8"/>
<rect x="606.50" y="479.93" width="13.50" height="0.07" fill="#4C78A8"/>
<rect x="621.00" y="479.97" width="13.50" height="0.03" fill="#4C78A8"/>
<rect x="635.50" y="479.99" width="13.50" height="0.01" fill="#4C78A8"/>
<rect x="650.00" y="479.92" width="13.50" height="0.08" fill="#4C78A8"/>
<rect x="664.50" y="479.97" width="13.50" height="0.03" fill="#4C78A8"/>
<rect x="679.00" y="479.97" width="13.50" height="0.03" fill="#4C78A8"/>
<rect x="693.50" y="479.97" width="13.50" height="0.03" fill="#4C78A8"/>
<rect x="708.00" y="479.99" width="13.50" height="0.01" fill="#4C78A8"/>
<rect x="722.50" y="479.99" width="13.50" height="0.01" fill="#4C78A8"/>
<rect x="737.00" y="479.97" width="13.50" height="0.03" fill="#4C78A8"/>
<rect x="751.50" y="479.99" width="13.50" height="0.01" fill="#4C78A8"/>
<rect x="766.00" y="479.99" width="13.50" height="0.01" fill="#4C78A8"/>
<rect x="780.50" y="479.99" width="13.50" height="0.01" fill="#4C78A8"/>
<rect x="795.00" y="479.98" width="13.50" height="0.02" fill="#4C78A8"/>
<rect x="809.50" y="480.00" width="13.50" height="0.00" fill="#4C78A8"/>
<rect x="824.00" y="479.99" width="13.50" height="0.01" fill="#4C78A8"/>
<rect x="838.50" y="479.99" width="13.50" height="0.01" fill="#4C78A8"/>
<rect x="853.00" y="480.00" width="13.50" height="0.00" fill="#4C78A8"/>
<rect x="867.50" y="479.99" width="13.50" height="0.01" fill="#4C78A8"/>
<rect x="882.00" y="480.00" width="13.50" height="0.00" fill="#4C78A8"/>
<rect x="896.50" y="480.00" width="13.50" height="0.00" fill="#4C78A8"/>
<rect x="911.00" y="479.99" width="13.50" height="0.01" fill="#4C78A8"/>
<rect x="925.50" y="479.99" width="13.50" height="0.01" fill="#4C78A8"/>
<text x="480.00" y="28" text-anchor="middle" font-family="system-ui, -apple-system, Segoe UI, Roboto, Helvetica, Arial, sans-serif" font-size="18" fill="#222222">propagation lag_days histogram (hop=7, n=114918)</text>
<text x="480.00" y="48" text-anchor="middle" font-family="system-ui, -apple-system, Segoe UI, Roboto, Helvetica, Arial, sans-serif" font-size="12" fill="#222222">bins=60, x_max=1787</text>
<text x="480.00" y="520.00" text-anchor="middle" font-family="system-ui, -apple-system, Segoe UI, Roboto, Helvetica, Arial, sans-serif" font-size="14" fill="#222222">lag_days</text>
<text x="18" y="270.00" text-anchor="middle" font-family="system-ui, -apple-system, Segoe UI, Roboto, Helvetica, Arial, sans-serif" font-size="14" fill="#222222" transform="rotate(-90 18 270.00)">count</text>
</svg>
