<svg xmlns="http://www.w3.org/2000/svg" width="960" height="540" viewBox="0 0 960 540">
<rect x="0" y="0" width="960" height="540" fill="white"/>
<line x1="70.00" y1="480.00" x2="940.00" y2="480.00" stroke="#E6E6E6" stroke-width="1"/>
<text x="60.00" y="484.00" text-anchor="end" font-family="system-ui, -apple-system, Segoe UI, Roboto, Helvetica, Arial, sans-serif" font-size="12" fill="#222222">0</text>
<line x1="70.00" y1="387.15" x2="940.00" y2="387.15" stroke="#E6E6E6" stroke-width="1"/>
<text x="60.00" y="391.15" text-anchor="end" font-family="system-ui, -apple-system, Segoe UI, Roboto, Helvetica, Arial, sans-serif" font-size="12" fill="#222222">10000</text>
<line x1="70.00" y1="294.30" x2="940.00" y2="294.30" stroke="#E6E6E6" stroke-width="1"/>
<text x="60.00" y="298.30" text-anchor="end" font-family="system-ui, -apple-system, Segoe UI, Roboto, Helvetica, Arial, sans-serif" font-size="12" fill="#222222">20000</text>
<line x1="70.00" y1="201.45" x2="940.00" y2="201.45" stroke="#E6E6E6" stroke-width="1"/>
<text x="60.00" y="205.45" text-anchor="end" font-family="system-ui, -apple-system, Segoe UI, Roboto, Helvetica, Arial, sans-serif" font-size="12" fill="#222222">30000</text>
<line x1="70.00" y1="108.61" x2="940.00" y2="108.61" stroke="#E6E6E6" stroke-width="1"/>
<text x="60.00" y="112.61" text-anchor="end" font-family="system-ui, -apple-system, Segoe UI, Roboto, Helvetica, Arial, sans-serif" font-size="12" fill="#222222">40000</text>
<line x1="70.00" y1="15.76" x2="940.00" y2="15.76" stroke="#E6E6E6" stroke-width="1"/>
<text x="60.00" y="19.76" text-anchor="end" font-family="system-ui, -apple-system, Segoe UI, Roboto, Helvetica, Arial, sans-serif" font-size="12" fill="#222222">50000</text>
<line x1="70.00" y1="20.00" x2="70.00" y2="480.00" stroke="#E6E6E6" stroke-width="1"/>
<text x="70.00" y="500.00" text-anchor="middle" font-family="system-ui, -apple-system, Segoe UI, Roboto, Helvetica, Arial, sans-serif" font-size="12" fill="#222222">0</text>
<line x1="254.24" y1="20.00" x2="254.24" y2="480.00" stroke="#E6E6E6" stroke-width="1"/>
<text x="254.24" y="500.00" text-anchor="middle" font-family="system-ui, -apple-system, Segoe UI, Roboto, Helvetica, Arial, sans-serif" font-size="12" fill="#222222">500</text>
<line x1="438.49" y1="20.00" x2="438.49" y2="480.00" stroke="#E6E6E6" stroke-width="1"/>
<text x="438.49" y="500.00" text-anchor="middle" font-family="system-ui, -apple-system, Segoe UI, Roboto, Helvetica, Arial, sans-serif" font-size="12" fill="#222222">1000</text>
<line x1="622.73" y1="20.00" x2="622.73" y2="480.00" stroke="#E6E6E6" stroke-width="1"/>
<text x="622.73" y="500.00" text-anchor="middle" font-family="system-ui, -apple-system, Segoe UI, Roboto, Helvetica, Arial, sans-serif" font-size="12" fill="#222222">1500</text>
<line x1="806.98" y1="20.00" x2="806.98" y2="480.00" stroke="#E6E6E6" stroke-width="1"/>
<text x="806.98" y="500.00" text-anchor="middle" font-family="system-ui, -apple-system, Segoe UI, Roboto, Helvetica, Arial, sans-serif" font-size="12" fill="#222222">2000</text>
<line x1="991.22" y1="20.00" x2="991.22" y2="480.00" stroke="#E6E6E6" stroke-width="1"/>
<text x="991.22" y="500.00" text-anchor="middle" font-family="system-ui, -apple-system, Segoe UI, Roboto, Helvetica, Arial, sans-serif" font-size="12" fill="#222222">2500</text>
<line x1="70.00" y1="480.00" x2="940.00" y2="480.00" stroke="#222222" stroke-width="1.5"/>
<line x1="70.00" y1="20.00" x2="70.00" y2="480.00" stroke="#222222" stroke-width="1.5"/>
<rect x="70.00" y="20.00" width="13.50" height="460.00" fill="#4C78A8"/>
<rect x="84.50" y="407.68" width="13.50" height="72.32" fill="#4C78A8"/>
<rect x="99.00" y="404.62" width="13.50" height="75.38" fill="#4C78A8"/>
<rect x="113.50" y="411.27" width="13.50" height="68.73" fill="#4C78A8"/>
<rect x="128.00" y="447.97" width="13.50" height="32.03" fill="#4C78A8"/>
<rect x="142.50" y="450.57" width="13.50" height="29.43" fill="#4C78A8"/>
<rect x="157.00" y="456.07" width="13.50" height="23.93" fill="#4C78A8"/>
<rect x="171.50" y="440.44" width="13.50" height="39.56" fill="#4C78A8"/>
<rect x="186.00" y="459.39" width="13.50" height="20.61" fill="#4C78A8"/>
<rect x="200.50" y="465.26" width="13.50" height="14.74" fill="#4C78A8"/>
<rect x="215.00" y="469.39" width="13.50" height="10.61" fill="#4C78A8"/>
<rect x="229.50" y="457.50" width="13.50" height="22.50" fill="#4C78A8"/>
<rect x="244.00" y="462.56" width="13.50" height="17.44" fill="#4C78A8"/>
<rect x="258.50" y="473.96" width="13.50" height="6.04" fill="#4C78A8"/>
<rect x="273.00" y="469.74" width="13.50" height="10.26" fill="#4C78A8"/>
<rect x="287.50" y="474.56" width="13.50" height="5.44" fill="#4C78A8"/>
<rect x="302.00" y="474.40" width="13.50" height="5.60" fill="#4C78A8"/>
<rect x="316.50" y="474.25" width="13.50" height="5.75" fill="#4C78A8"/>
<rect x="331.00" y="476.12" width="13.50" height="3.88" fill="#4C78A8"/>
<rect x="345.50" y="476.78" width="13.50" height="3.22" fill="#4C78A8"/>
<rect x="360.00" y="476.50" width="13.50" height="3.50" fill="#4C78A8"/>
<rect x="374.50" y="476.70" width="13.50" height="3.30" fill="#4C78A8"/>
<rect x="389.00" y="477.72" width="13.50" height="2.28" fill="#4C78A8"/>
<rect x="403.50" y="477.75" width="13.50" height="2.25" fill="#4C78A8"/>
<rect x="418.00" y="477.98" width="13.50" height="2.02" fill="#4C78A8"/>
<rect x="432.50" y="478.43" width="13.50" height="1.57" fill="#4C78A8"/>
<rect x="447.00" y="478.79" width="13.50" height="1.21" fill="#4C78A8"/>
<rect x="461.50" y="478.91" width="13.50" height="1.09" fill="#4C78A8"/>
<rect x="476.00" y="478.71" width="13.50" height="1.29" fill="#4C78A8"/>
<rect x="490.50" y="478.77" width="13.50" height="1.23" fill="#4C78A8"/>
<rect x="505.00" y="479.11" width="13.50" height="0.89" fill="#4C78A8"/>
<rect x="519.50" y="479.15" width="13.50" height="0.85" fill="#4C78A8"/>
<rect x="534.00" y="479.27" width="13.50" height="0.73" fill="#4C78A8"/>
<rect x="548.50" y="479.42" width="13.50" height="0.58" fill="#4C78A8"/>
<rect x="563.00" y="477.70" width="13.50" height="2.30" fill="#4C78A8"/>
<rect x="577.50" y="478.68" width="13.50" height="1.32" fill="#4C78A8"/>
<rect x="592.00" y="479.62" width="13.50" height="0.38" fill="#4C78A8"/>
<rect x="606.50" y="479.71" width="13.50" height="0.29" fill="#4C78A8"/>
<rect x="621.00" y="474.39" width="13.50" height="5.61" fill="#4C78A8"/>
<rect x="635.50" y="479.79" width="13.50" height="0.21" fill="#4C78A8"/>
<rect x="650.00" y="479.79" width="13.50" height="0.21" fill="#4C78A8"/>
<rect x="664.50" y="479.81" width="13.50" height="0.19" fill="#4C78A8"/>
<rect x="679.00" y="479.76" width="13.50" height="0.24" fill="#4C78A8"/>
<rect x="693.50" y="479.78" width="13.50" height="0.22" fill="#4C78A8"/>
<rect x="708.00" y="479.82" width="13.50" height="0.18" fill="#4C78A8"/>
<rect x="722.50" y="479.81" width="13.50" height="0.19" fill="#4C78A8"/>
<rect x="737.00" y="479.82" width="13.50" height="0.18" fill="#4C78A8"/>
<rect x="751.50" y="479.92" width="13.50" height="0.08" fill="#4C78A8"/>
<rect x="766.00" y="479.94" width="13.50" height="0.06" fill="#4C78A8"/>
<rect x="780.50" y="479.88" width="13.50" height="0.12" fill="#4C78A8"/>
<rect x="795.00" y="479.89" width="13.50" height="0.11" fill="#4C78A8"/>
<rect x="809.50" y="479.95" width="13.50" height="0.05" fill="#4C78A8"/>
<rect x="824.00" y="479.93" width="13.50" height="0.07" fill="#4C78A8"/>
<rect x="838.50" y="479.98" width="13.50" height="0.02" fill="#4C78A8"/>
<rect x="853.00" y="479.93" width="13.50" height="0.07" fill="#4C78A8"/>
<rect x="867.50" y="479.98" width="13.50" height="0.02" fill="#4C78A8"/>
<rect x="882.00" y="479.98" width="13.50" height="0.02" fill="#4C78A8"/>
<rect x="896.50" y="479.99" width="13.50" height="0.01" fill="#4C78A8"/>
<rect x="911.00" y="480.00" width="13.50" height="0.00" fill="#4C78A8"/>
<rect x="925.50" y="479.97" width="13.50" height="0.03" fill="#4C78A8"/>
<text x="480.00" y="28" text-anchor="middle" font-family="system-ui, -apple-system, Segoe UI, Roboto, Helvetica, Arial, sans-serif" font-size="18" fill="#222222">propagation lag_days histogram (hop=2, n=103658)</text>
<text x="480.00" y="48" text-anchor="middle" font-family="system-ui, -apple-system, Segoe UI, Roboto, Helvetica, Arial, sans-serif" font-size="12" fill="#222222">bins=60, x_max=2361</text>
<text x="480.00" y="520.00" text-anchor="middle" font-family="system-ui, -apple-system, Segoe UI, Roboto, Helvetica, Arial, sans-serif" font-size="14" fill="#222222">lag_days</text>
<text x="18" y="270.00" text-anchor="middle" font-family="system-ui, -apple-system, Segoe UI, Roboto, Helvetica, Arial, sans-serif" font-size="14" fill="#222222" transform="rotate(-90 18 270.00)">count</text>
</svg>
