<svg xmlns="http://www.w3.org/2000/svg" width="960" height="540" viewBox="0 0 960 540">
<rect x="0" y="0" width="960" height="540" fill="white"/>
<line x1="70.00" y1="480.00" x2="940.00" y2="480.00" stroke="#E6E6E6" stroke-width="1"/>
<text x="60.00" y="484.00" text-anchor="end" font-family="system-ui, -apple-system, Segoe UI, Roboto, Helvetica, Arial, sans-serif" font-size="12" fill="#222222">0</text>
<line x1="70.00" y1="369.82" x2="940.00" y2="369.82" stroke="#E6E6E6" stroke-width="1"/>
<text x="60.00" y="373.82" text-anchor="end" font-family="system-ui, -apple-system, Segoe UI, Roboto, Helvetica, Arial, sans-serif" font-size="12" fill="#222222">5000</text>
<line x1="70.00" y1="259.64" x2="940.00" y2="259.64" stroke="#E6E6E6" stroke-width="1"/>
<text x="60.00" y="263.64" text-anchor="end" font-family="system-ui, -apple-system, Segoe UI, Roboto, Helvetica, Arial, sans-serif" font-size="12" fill="#222222">10000</text>
<line x1="70.00" y1="149.46" x2="940.00" y2="149.46" stroke="#E6E6E6" stroke-width="1"/>
<text x="60.00" y="153.46" text-anchor="end" font-family="system-ui, -apple-system, Segoe UI, Roboto, Helvetica, Arial, sans-serif" font-size="12" fill="#222222">15000</text>
<line x1="70.00" y1="39.28" x2="940.00" y2="39.28" stroke="#E6E6E6" stroke-width="1"/>
<text x="60.00" y="43.28" text-anchor="end" font-family="system-ui, -apple-system, Segoe UI, Roboto, Helvetica, Arial, sans-serif" font-size="12" fill="#222222">20000</text>
<line x1="70.00" y1="-70.90" x2="940.00" y2="-70.90" stroke="#E6E6E6" stroke-width="1"/>
<text x="60.00" y="-66.90" text-anchor="end" font-family="system-ui, -apple-system, Segoe UI, Roboto, Helvetica, Arial, sans-serif" font-size="12" fill="#222222">25000</text>
<line x1="70.00" y1="20.00" x2="70.00" y2="480.00" stroke="#E6E6E6" stroke-width="1"/>
<text x="70.00" y="500.00" text-anchor="middle" font-family="system-ui, -apple-system, Segoe UI, Roboto, Helvetica, Arial, sans-serif" font-size="12" fill="#222222">0</text>
<line x1="312.07" y1="20.00" x2="312.07" y2="480.00" stroke="#E6E6E6" stroke-width="1"/>
<text x="312.07" y="500.00" text-anchor="middle" font-family="system-ui, -apple-system, Segoe UI, Roboto, Helvetica, Arial, sans-serif" font-size="12" fill="#222222">500</text>
<line x1="554.14" y1="20.00" x2="554.14" y2="480.00" stroke="#E6E6E6" stroke-width="1"/>
<text x="554.14" y="500.00" text-anchor="middle" font-family="system-ui, -apple-system, Segoe UI, Roboto, Helvetica, Arial, sans-serif" font-size="12" fill="#222222">1000</text>
<line x1="796.21" y1="20.00" x2="796.21" y2="480.00" stroke="#E6E6E6" stroke-width="1"/>
<text x="796.21" y="500.00" text-anchor="middle" font-family="system-ui, -apple-system, Segoe UI, Roboto, Helvetica, Arial, sans-serif" font-size="12" fill="#222222">1500</text>
<line x1="1038.28" y1="20.00" x2="1038.28" y2="480.00" stroke="#E6E6E6" stroke-width="1"/>
<text x="1038.28" y="500.00" text-anchor="middle" font-family="system-ui, -apple-system, Segoe UI, Roboto, Helvetica, Arial, sans-serif" font-size="12" fill="#222222">2000</text>
<line x1="70.00" y1="480.00" x2="940.00" y2="480.00" stroke="#222222" stroke-width="1.5"/>
<line x1="70.00" y1="20.00" x2="70.00" y2="480.00" stroke="#222222" stroke-width="1.5"/>
<rect x="70.00" y="20.00" width="13.50" height="460.00" fill="#4C78A8"/>
<rect x="84.50" y="441.79" width="13.50" height="38.21" fill="#4C78A8"/>
<rect x="99.00" y="459.97" width="13.50" height="20.03" fill="#4C78A8"/>
<rect x="113.50" y="457.02" width="13.50" height="22.98" fill="#4C78A8"/>
<rect x="128.00" y="470.13" width="13.50" height="9.87" fill="#4C78A8"/>
<rect x="142.50" y="461.12" width="13.50" height="18.88" fill="#4C78A8"/>
<rect x="157.00" y="472.55" width="13.50" height="7.45" fill="#4C78A8"/>
<rect x="171.50" y="475.09" width="13.50" height="4.91" fill="#4C78A8"/>
<rect x="186.00" y="476.39" width="13.50" height="3.61" fill="#4C78A8"/>
<rect x="200.50" y="477.00" width="13.50" height="3.00" fill="#4C78A8"/>
<rect x="215.00" y="477.40" width="13.50" height="2.60" fill="#4C78A8"/>
<rect x="229.50" y="477.69" width="13.50" height="2.31" fill="#4C78A8"/>
<rect x="244.00" y="477.42" width="13.50" height="2.58" fill="#4C78A8"/>
<rect x="258.50" y="477.84" width="13.50" height="2.16" fill="#4C78A8"/>
<rect x="273.00" y="478.57" width="13.50" height="1.43" fill="#4C78A8"/>
<rect x="287.50" y="478.35" width="13.50" height="1.65" fill="#4C78A8"/>
<rect x="302.00" y="478.99" width="13.50" height="1.01" fill="#4C78A8"/>
<rect x="316.50" y="479.54" width="13.50" height="0.46" fill="#4C78A8"/>
<rect x="331.00" y="479.63" width="13.50" height="0.37" fill="#4C78A8"/>
<rect x="345.50" y="479.32" width="13.50" height="0.68" fill="#4C78A8"/>
<rect x="360.00" y="479.47" width="13.50" height="0.53" fill="#4C78A8"/>
<rect x="374.50" y="479.76" width="13.50" height="0.24" fill="#4C78A8"/>
<rect x="389.00" y="479.60" width="13.50" height="0.40" fill="#4C78A8"/>
<rect x="403.50" y="479.71" width="13.50" height="0.29" fill="#4C78A8"/>
<rect x="418.00" y="479.82" width="13.50" height="0.18" fill="#4C78A8"/>
<rect x="432.50" y="479.85" width="13.50" height="0.15" fill="#4C78A8"/>
<rect x="447.00" y="479.85" width="13.50" height="0.15" fill="#4C78A8"/>
<rect x="461.50" y="479.91" width="13.50" height="0.09" fill="#4C78A8"/>
<rect x="476.00" y="479.93" width="13.50" height="0.07" fill="#4C78A8"/>
<rect x="490.50" y="479.96" width="13.50" height="0.04" fill="#4C78A8"/>
<rect x="505.00" y="479.96" width="13.50" height="0.04" fill="#4C78A8"/>
<rect x="519.50" y="479.98" width="13.50" height="0.02" fill="#4C78A8"/>
<rect x="534.00" y="479.96" width="13.50" height="0.04" fill="#4C78A8"/>
<rect x="548.50" y="479.98" width="13.50" height="0.02" fill="#4C78A8"/>
<rect x="563.00" y="479.91" width="13.50" height="0.09" fill="#4C78A8"/>
<rect x="577.50" y="479.76" width="13.50" height="0.24" fill="#4C78A8"/>
<rect x="592.00" y="479.80" width="13.50" height="0.20" fill="#4C78A8"/>
<rect x="606.50" y="479.91" width="13.50" height="0.09" fill="#4C78A8"/>
<rect x="621.00" y="479.85" width="13.50" height="0.15" fill="#4C78A8"/>
<rect x="635.50" y="479.89" width="13.50" height="0.11" fill="#4C78A8"/>
<rect x="650.00" y="479.87" width="13.50" height="0.13" fill="#4C78A8"/>
<rect x="664.50" y="479.96" width="13.50" height="0.04" fill="#4C78A8"/>
<rect x="679.00" y="479.93" width="13.50" height="0.07" fill="#4C78A8"/>
<rect x="693.50" y="479.96" width="13.50" height="0.04" fill="#4C78A8"/>
<rect x="708.00" y="479.98" width="13.50" height="0.02" fill="#4C78A8"/>
<rect x="722.50" y="479.96" width="13.50" height="0.04" fill="#4C78A8"/>
<rect x="737.00" y="479.93" width="13.50" height="0.07" fill="#4C78A8"/>
<rect x="751.50" y="479.93" width="13.50" height="0.07" fill="#4C78A8"/>
<rect x="766.00" y="479.85" width="13.50" height="0.15" fill="#4C78A8"/>
<rect x="780.50" y="479.96" width="13.50" height="0.04" fill="#4C78A8"/>
<rect x="795.00" y="479.98" width="13.50" height="0.02" fill="#4C78A8"/>
<rect x="809.50" y="480.00" width="13.50" height="0.00" fill="#4C78A8"/>
<rect x="824.00" y="479.93" width="13.50" height="0.07" fill="#4C78A8"/>
<rect x="838.50" y="480.00" width="13.50" height="0.00" fill="#4C78A8"/>
<rect x="853.00" y="479.96" width="13.50" height="0.04" fill="#4C78A8"/>
<rect x="867.50" y="479.98" width="13.50" height="0.02" fill="#4C78A8"/>
<rect x="882.00" y="480.00" width="13.50" height="0.00" fill="#4C78A8"/>
<rect x="896.50" y="479.98" width="13.50" height="0.02" fill="#4C78A8"/>
<rect x="911.00" y="479.93" width="13.50" height="0.07" fill="#4C78A8"/>
<rect x="925.50" y="479.96" width="13.50" height="0.04" fill="#4C78A8"/>
<text x="480.00" y="28" text-anchor="middle" font-family="system-ui, -apple-system, Segoe UI, Roboto, Helvetica, Arial, sans-serif" font-size="18" fill="#222222">propagation lag_days histogram (hop=9, n=27607)</text>
<text x="480.00" y="48" text-anchor="middle" font-family="system-ui, -apple-system, Segoe UI, Roboto, Helvetica, Arial, sans-serif" font-size="12" fill="#222222">bins=60, x_max=1797</text>
<text x="480.00" y="520.00" text-anchor="middle" font-family="system-ui, -apple-system, Segoe UI, Roboto, Helvetica, Arial, sans-serif" font-size="14" fill="#222222">lag_days</text>
<text x="18" y="270.00" text-anchor="middle" font-family="system-ui, -apple-system, Segoe UI, Roboto, Helvetica, Arial, sans-serif" font-size="14" fill="#222222" transform="rotate(-90 18 270.00)">count</text>
</svg>
