<svg xmlns="http://www.w3.org/2000/svg" width="960" height="540" viewBox="0 0 960 540">
<rect x="0" y="0" width="960" height="540" fill="white"/>
<line x1="70.00" y1="480.00" x2="940.00" y2="480.00" stroke="#E6E6E6" stroke-width="1"/>
<text x="60.00" y="484.00" text-anchor="end" font-family="system-ui, -apple-system, Segoe UI, Roboto, Helvetica, Arial, sans-serif" font-size="12" fill="#222222">0</text>
<line x1="70.00" y1="384.47" x2="940.00" y2="384.47" stroke="#E6E6E6" stroke-width="1"/>
<text x="60.00" y="388.47" text-anchor="end" font-family="system-ui, -apple-system, Segoe UI, Roboto, Helvetica, Arial, sans-serif" font-size="12" fill="#222222">200</text>
<line x1="70.00" y1="288.93" x2="940.00" y2="288.93" stroke="#E6E6E6" stroke-width="1"/>
<text x="60.00" y="292.93" text-anchor="end" font-family="system-ui, -apple-system, Segoe UI, Roboto, Helvetica, Arial, sans-serif" font-size="12" fill="#222222">400</text>
<line x1="70.00" y1="193.40" x2="940.00" y2="193.40" stroke="#E6E6E6" stroke-width="1"/>
<text x="60.00" y="197.40" text-anchor="end" font-family="system-ui, -apple-system, Segoe UI, Roboto, Helvetica, Arial, sans-serif" font-size="12" fill="#222222">600</text>
<line x1="70.00" y1="97.86" x2="940.00" y2="97.86" stroke="#E6E6E6" stroke-width="1"/>
<text x="60.00" y="101.86" text-anchor="end" font-family="system-ui, -apple-system, Segoe UI, Roboto, Helvetica, Arial, sans-serif" font-size="12" fill="#222222">800</text>
<line x1="70.00" y1="2.33" x2="940.00" y2="2.33" stroke="#E6E6E6" stroke-width="1"/>
<text x="60.00" y="6.33" text-anchor="end" font-family="system-ui, -apple-system, Segoe UI, Roboto, Helvetica, Arial, sans-serif" font-size="12" fill="#222222">1000</text>
<line x1="70.00" y1="20.00" x2="70.00" y2="480.00" stroke="#E6E6E6" stroke-width="1"/>
<text x="70.00" y="500.00" text-anchor="middle" font-family="system-ui, -apple-system, Segoe UI, Roboto, Helvetica, Arial, sans-serif" font-size="12" fill="#222222">0</text>
<line x1="304.82" y1="20.00" x2="304.82" y2="480.00" stroke="#E6E6E6" stroke-width="1"/>
<text x="304.82" y="500.00" text-anchor="middle" font-family="system-ui, -apple-system, Segoe UI, Roboto, Helvetica, Arial, sans-serif" font-size="12" fill="#222222">200</text>
<line x1="539.64" y1="20.00" x2="539.64" y2="480.00" stroke="#E6E6E6" stroke-width="1"/>
<text x="539.64" y="500.00" text-anchor="middle" font-family="system-ui, -apple-system, Segoe UI, Roboto, Helvetica, Arial, sans-serif" font-size="12" fill="#222222">400</text>
<line x1="774.45" y1="20.00" x2="774.45" y2="480.00" stroke="#E6E6E6" stroke-width="1"/>
<text x="774.45" y="500.00" text-anchor="middle" font-family="system-ui, -apple-system, Segoe UI, Roboto, Helvetica, Arial, sans-serif" font-size="12" fill="#222222">600</text>
<line x1="1009.27" y1="20.00" x2="1009.27" y2="480.00" stroke="#E6E6E6" stroke-width="1"/>
<text x="1009.27" y="500.00" text-anchor="middle" font-family="system-ui, -apple-system, Segoe UI, Roboto, Helvetica, Arial, sans-serif" font-size="12" fill="#222222">800</text>
<line x1="70.00" y1="480.00" x2="940.00" y2="480.00" stroke="#222222" stroke-width="1.5"/>
<line x1="70.00" y1="20.00" x2="70.00" y2="480.00" stroke="#222222" stroke-width="1.5"/>
<rect x="70.00" y="20.00" width="13.50" height="460.00" fill="#4C78A8"/>
<rect x="84.50" y="462.80" width="13.50" height="17.20" fill="#4C78A8"/>
<rect x="99.00" y="462.80" width="13.50" height="17.20" fill="#4C78A8"/>
<rect x="113.50" y="460.89" width="13.50" height="19.11" fill="#4C78A8"/>
<rect x="128.00" y="472.36" width="13.50" height="7.64" fill="#4C78A8"/>
<rect x="142.50" y="472.83" width="13.50" height="7.17" fill="#4C78A8"/>
<rect x="157.00" y="476.66" width="13.50" height="3.34" fill="#4C78A8"/>
<rect x="171.50" y="471.88" width="13.50" height="8.12" fill="#4C78A8"/>
<rect x="186.00" y="474.75" width="13.50" height="5.25" fill="#4C78A8"/>
<rect x="200.50" y="476.18" width="13.50" height="3.82" fill="#4C78A8"/>
<rect x="215.00" y="476.66" width="13.50" height="3.34" fill="#4C78A8"/>
<rect x="229.50" y="477.13" width="13.50" height="2.87" fill="#4C78A8"/>
<rect x="244.00" y="479.04" width="13.50" height="0.96" fill="#4C78A8"/>
<rect x="258.50" y="477.13" width="13.50" height="2.87" fill="#4C78A8"/>
<rect x="273.00" y="479.52" width="13.50" height="0.48" fill="#4C78A8"/>
<rect x="287.50" y="475.22" width="13.50" height="4.78" fill="#4C78A8"/>
<rect x="302.00" y="475.70" width="13.50" height="4.30" fill="#4C78A8"/>
<rect x="316.50" y="475.22" width="13.50" height="4.78" fill="#4C78A8"/>
<rect x="331.00" y="479.52" width="13.50" height="0.48" fill="#4C78A8"/>
<rect x="345.50" y="478.57" width="13.50" height="1.43" fill="#4C78A8"/>
<rect x="360.00" y="479.52" width="13.50" height="0.48" fill="#4C78A8"/>
<rect x="374.50" y="479.52" width="13.50" height="0.48" fill="#4C78A8"/>
<rect x="389.00" y="479.04" width="13.50" height="0.96" fill="#4C78A8"/>
<rect x="403.50" y="479.52" width="13.50" height="0.48" fill="#4C78A8"/>
<rect x="418.00" y="479.52" width="13.50" height="0.48" fill="#4C78A8"/>
<rect x="432.50" y="479.52" width="13.50" height="0.48" fill="#4C78A8"/>
<rect x="447.00" y="480.00" width="13.50" height="0.00" fill="#4C78A8"/>
<rect x="461.50" y="479.04" width="13.50" height="0.96" fill="#4C78A8"/>
<rect x="476.00" y="480.00" width="13.50" height="0.00" fill="#4C78A8"/>
<rect x="490.50" y="480.00" width="13.50" height="0.00" fill="#4C78A8"/>
<rect x="505.00" y="479.52" width="13.50" height="0.48" fill="#4C78A8"/>
<rect x="519.50" y="480.00" width="13.50" height="0.00" fill="#4C78A8"/>
<rect x="534.00" y="479.52" width="13.50" height="0.48" fill="#4C78A8"/>
<rect x="548.50" y="480.00" width="13.50" height="0.00" fill="#4C78A8"/>
<rect x="563.00" y="479.52" width="13.50" height="0.48" fill="#4C78A8"/>
<rect x="577.50" y="480.00" width="13.50" height="0.00" fill="#4C78A8"/>
<rect x="592.00" y="480.00" width="13.50" height="0.00" fill="#4C78A8"/>
<rect x="606.50" y="480.00" width="13.50" height="0.00" fill="#4C78A8"/>
<rect x="621.00" y="480.00" width="13.50" height="0.00" fill="#4C78A8"/>
<rect x="635.50" y="479.52" width="13.50" height="0.48" fill="#4C78A8"/>
<rect x="650.00" y="480.00" width="13.50" height="0.00" fill="#4C78A8"/>
<rect x="664.50" y="480.00" width="13.50" height="0.00" fill="#4C78A8"/>
<rect x="679.00" y="480.00" width="13.50" height="0.00" fill="#4C78A8"/>
<rect x="693.50" y="480.00" width="13.50" height="0.00" fill="#4C78A8"/>
<rect x="708.00" y="480.00" width="13.50" height="0.00" fill="#4C78A8"/>
<rect x="722.50" y="479.04" width="13.50" height="0.96" fill="#4C78A8"/>
<rect x="737.00" y="480.00" width="13.50" height="0.00" fill="#4C78A8"/>
<rect x="751.50" y="480.00" width="13.50" height="0.00" fill="#4C78A8"/>
<rect x="766.00" y="480.00" width="13.50" height="0.00" fill="#4C78A8"/>
<rect x="780.50" y="480.00" width="13.50" height="0.00" fill="#4C78A8"/>
<rect x="795.00" y="480.00" width="13.50" height="0.00" fill="#4C78A8"/>
<rect x="809.50" y="480.00" width="13.50" height="0.00" fill="#4C78A8"/>
<rect x="824.00" y="480.00" width="13.50" height="0.00" fill="#4C78A8"/>
<rect x="838.50" y="480.00" width="13.50" height="0.00" fill="#4C78A8"/>
<rect x="853.00" y="480.00" width="13.50" height="0.00" fill="#4C78A8"/>
<rect x="867.50" y="480.00" width="13.50" height="0.00" fill="#4C78A8"/>
<rect x="882.00" y="479.52" width="13.50" height="0.48" fill="#4C78A8"/>
<rect x="896.50" y="480.00" width="13.50" height="0.00" fill="#4C78A8"/>
<rect x="911.00" y="480.00" width="13.50" height="0.00" fill="#4C78A8"/>
<rect x="925.50" y="479.52" width="13.50" height="0.48" fill="#4C78A8"/>
<text x="480.00" y="28" text-anchor="middle" font-family="system-ui, -apple-system, Segoe UI, Roboto, Helvetica, Arial, sans-serif" font-size="18" fill="#222222">propagation lag_days histogram (hop=13, n=1221)</text>
<text x="480.00" y="48" text-anchor="middle" font-family="system-ui, -apple-system, Segoe UI, Roboto, Helvetica, Arial, sans-serif" font-size="12" fill="#222222">bins=60, x_max=741</text>
<text x="480.00" y="520.00" text-anchor="middle" font-family="system-ui, -apple-system, Segoe UI, Roboto, Helvetica, Arial, sans-serif" font-size="14" fill="#222222">lag_days</text>
<text x="18" y="270.00" text-anchor="middle" font-family="system-ui, -apple-system, Segoe UI, Roboto, Helvetica, Arial, sans-serif" font-size="14" fill="#222222" transform="rotate(-90 18 270.00)">count</text>
</svg>
