<svg xmlns="http://www.w3.org/2000/svg" width="960" height="540" viewBox="0 0 960 540">
<rect x="0" y="0" width="960" height="540" fill="white"/>
<line x1="70.00" y1="480.00" x2="940.00" y2="480.00" stroke="#E6E6E6" stroke-width="1"/>
<text x="60.00" y="484.00" text-anchor="end" font-family="system-ui, -apple-system, Segoe UI, Roboto, Helvetica, Arial, sans-serif" font-size="12" fill="#222222">0</text>
<line x1="70.00" y1="311.01" x2="940.00" y2="311.01" stroke="#E6E6E6" stroke-width="1"/>
<text x="60.00" y="315.01" text-anchor="end" font-family="system-ui, -apple-system, Segoe UI, Roboto, Helvetica, Arial, sans-serif" font-size="12" fill="#222222">50000</text>
<line x1="70.00" y1="142.02" x2="940.00" y2="142.02" stroke="#E6E6E6" stroke-width="1"/>
<text x="60.00" y="146.02" text-anchor="end" font-family="system-ui, -apple-system, Segoe UI, Roboto, Helvetica, Arial, sans-serif" font-size="12" fill="#222222">100000</text>
<line x1="70.00" y1="-26.97" x2="940.00" y2="-26.97" stroke="#E6E6E6" stroke-width="1"/>
<text x="60.00" y="-22.97" text-anchor="end" font-family="system-ui, -apple-system, Segoe UI, Roboto, Helvetica, Arial, sans-serif" font-size="12" fill="#222222">150000</text>
<line x1="70.00" y1="20.00" x2="70.00" y2="480.00" stroke="#E6E6E6" stroke-width="1"/>
<text x="70.00" y="500.00" text-anchor="middle" font-family="system-ui, -apple-system, Segoe UI, Roboto, Helvetica, Arial, sans-serif" font-size="12" fill="#222222">0</text>
<line x1="279.84" y1="20.00" x2="279.84" y2="480.00" stroke="#E6E6E6" stroke-width="1"/>
<text x="279.84" y="500.00" text-anchor="middle" font-family="system-ui, -apple-system, Segoe UI, Roboto, Helvetica, Arial, sans-serif" font-size="12" fill="#222222">500</text>
<line x1="489.68" y1="20.00" x2="489.68" y2="480.00" stroke="#E6E6E6" stroke-width="1"/>
<text x="489.68" y="500.00" text-anchor="middle" font-family="system-ui, -apple-system, Segoe UI, Roboto, Helvetica, Arial, sans-serif" font-size="12" fill="#222222">1000</text>
<line x1="699.52" y1="20.00" x2="699.52" y2="480.00" stroke="#E6E6E6" stroke-width="1"/>
<text x="699.52" y="500.00" text-anchor="middle" font-family="system-ui, -apple-system, Segoe UI, Roboto, Helvetica, Arial, sans-serif" font-size="12" fill="#222222">1500</text>
<line x1="909.36" y1="20.00" x2="909.36" y2="480.00" stroke="#E6E6E6" stroke-width="1"/>
<text x="909.36" y="500.00" text-anchor="middle" font-family="system-ui, -apple-system, Segoe UI, Roboto, Helvetica, Arial, sans-serif" font-size="12" fill="#222222">2000</text>
<line x1="1119.20" y1="20.00" x2="1119.20" y2="480.00" stroke="#E6E6E6" stroke-width="1"/>
<text x="1119.20" y="500.00" text-anchor="middle" font-family="system-ui, -apple-system, Segoe UI, Roboto, Helvetica, Arial, sans-serif" font-size="12" fill="#222222">2500</text>
<line x1="70.00" y1="480.00" x2="940.00" y2="480.00" stroke="#222222" stroke-width="1.5"/>
<line x1="70.00" y1="20.00" x2="70.00" y2="480.00" stroke="#222222" stroke-width="1.5"/>
<rect x="70.00" y="20.00" width="13.50" height="460.00" fill="#4C78A8"/>
<rect x="84.50" y="437.81" width="13.50" height="42.19" fill="#4C78A8"/>
<rect x="99.00" y="449.62" width="13.50" height="30.38" fill="#4C78A8"/>
<rect x="113.50" y="460.40" width="13.50" height="19.60" fill="#4C78A8"/>
<rect x="128.00" y="465.28" width="13.50" height="14.72" fill="#4C78A8"/>
<rect x="142.50" y="467.79" width="13.50" height="12.21" fill="#4C78A8"/>
<rect x="157.00" y="470.22" width="13.50" height="9.78" fill="#4C78A8"/>
<rect x="171.50" y="471.97" width="13.50" height="8.03" fill="#4C78A8"/>
<rect x="186.00" y="474.31" width="13.50" height="5.69" fill="#4C78A8"/>
<rect x="200.50" y="472.51" width="13.50" height="7.49" fill="#4C78A8"/>
<rect x="215.00" y="474.25" width="13.50" height="5.75" fill="#4C78A8"/>
<rect x="229.50" y="474.57" width="13.50" height="5.43" fill="#4C78A8"/>
<rect x="244.00" y="476.15" width="13.50" height="3.85" fill="#4C78A8"/>
<rect x="258.50" y="477.25" width="13.50" height="2.75" fill="#4C78A8"/>
<rect x="273.00" y="477.20" width="13.50" height="2.80" fill="#4C78A8"/>
<rect x="287.50" y="477.96" width="13.50" height="2.04" fill="#4C78A8"/>
<rect x="302.00" y="477.99" width="13.50" height="2.01" fill="#4C78A8"/>
<rect x="316.50" y="478.43" width="13.50" height="1.57" fill="#4C78A8"/>
<rect x="331.00" y="478.19" width="13.50" height="1.81" fill="#4C78A8"/>
<rect x="345.50" y="478.31" width="13.50" height="1.69" fill="#4C78A8"/>
<rect x="360.00" y="478.85" width="13.50" height="1.15" fill="#4C78A8"/>
<rect x="374.50" y="479.10" width="13.50" height="0.90" fill="#4C78A8"/>
<rect x="389.00" y="478.98" width="13.50" height="1.02" fill="#4C78A8"/>
<rect x="403.50" y="479.31" width="13.50" height="0.69" fill="#4C78A8"/>
<rect x="418.00" y="479.31" width="13.50" height="0.69" fill="#4C78A8"/>
<rect x="432.50" y="479.50" width="13.50" height="0.50" fill="#4C78A8"/>
<rect x="447.00" y="479.71" width="13.50" height="0.29" fill="#4C78A8"/>
<rect x="461.50" y="479.64" width="13.50" height="0.36" fill="#4C78A8"/>
<rect x="476.00" y="479.63" width="13.50" height="0.37" fill="#4C78A8"/>
<rect x="490.50" y="479.75" width="13.50" height="0.25" fill="#4C78A8"/>
<rect x="505.00" y="479.71" width="13.50" height="0.29" fill="#4C78A8"/>
<rect x="519.50" y="479.77" width="13.50" height="0.23" fill="#4C78A8"/>
<rect x="534.00" y="479.73" width="13.50" height="0.27" fill="#4C78A8"/>
<rect x="548.50" y="479.75" width="13.50" height="0.25" fill="#4C78A8"/>
<rect x="563.00" y="479.82" width="13.50" height="0.18" fill="#4C78A8"/>
<rect x="577.50" y="479.90" width="13.50" height="0.10" fill="#4C78A8"/>
<rect x="592.00" y="479.81" width="13.50" height="0.19" fill="#4C78A8"/>
<rect x="606.50" y="479.97" width="13.50" height="0.03" fill="#4C78A8"/>
<rect x="621.00" y="479.93" width="13.50" height="0.07" fill="#4C78A8"/>
<rect x="635.50" y="479.93" width="13.50" height="0.07" fill="#4C78A8"/>
<rect x="650.00" y="479.89" width="13.50" height="0.11" fill="#4C78A8"/>
<rect x="664.50" y="479.94" width="13.50" height="0.06" fill="#4C78A8"/>
<rect x="679.00" y="479.97" width="13.50" height="0.03" fill="#4C78A8"/>
<rect x="693.50" y="479.98" width="13.50" height="0.02" fill="#4C78A8"/>
<rect x="708.00" y="479.98" width="13.50" height="0.02" fill="#4C78A8"/>
<rect x="722.50" y="479.97" width="13.50" height="0.03" fill="#4C78A8"/>
<rect x="737.00" y="479.99" width="13.50" height="0.01" fill="#4C78A8"/>
<rect x="751.50" y="479.97" width="13.50" height="0.03" fill="#4C78A8"/>
<rect x="766.00" y="479.98" width="13.50" height="0.02" fill="#4C78A8"/>
<rect x="780.50" y="480.00" width="13.50" height="0.00" fill="#4C78A8"/>
<rect x="795.00" y="479.99" width="13.50" height="0.01" fill="#4C78A8"/>
<rect x="809.50" y="479.99" width="13.50" height="0.01" fill="#4C78A8"/>
<rect x="824.00" y="479.97" width="13.50" height="0.03" fill="#4C78A8"/>
<rect x="838.50" y="479.99" width="13.50" height="0.01" fill="#4C78A8"/>
<rect x="853.00" y="480.00" width="13.50" height="0.00" fill="#4C78A8"/>
<rect x="867.50" y="479.99" width="13.50" height="0.01" fill="#4C78A8"/>
<rect x="882.00" y="479.99" width="13.50" height="0.01" fill="#4C78A8"/>
<rect x="896.50" y="480.00" width="13.50" height="0.00" fill="#4C78A8"/>
<rect x="911.00" y="480.00" width="13.50" height="0.00" fill="#4C78A8"/>
<rect x="925.50" y="479.99" width="13.50" height="0.01" fill="#4C78A8"/>
<text x="480.00" y="28" text-anchor="middle" font-family="system-ui, -apple-system, Segoe UI, Roboto, Helvetica, Arial, sans-serif" font-size="18" fill="#222222">propagation lag_days histogram (hop=5, n=191771)</text>
<text x="480.00" y="48" text-anchor="middle" font-family="system-ui, -apple-system, Segoe UI, Roboto, Helvetica, Arial, sans-serif" font-size="12" fill="#222222">bins=60, x_max=2073</text>
<text x="480.00" y="520.00" text-anchor="middle" font-family="system-ui, -apple-system, Segoe UI, Roboto, Helvetica, Arial, sans-serif" font-size="14" fill="#222222">lag_days</text>
<text x="18" y="270.00" text-anchor="middle" font-family="system-ui, -apple-system, Segoe UI, Roboto, Helvetica, Arial, sans-serif" font-size="14" fill="#222222" transform="rotate(-90 18 270.00)">count</text>
</svg>
