<svg xmlns="http://www.w3.org/2000/svg" width="960" height="540" viewBox="0 0 960 540">
<rect x="0" y="0" width="960" height="540" fill="white"/>
<line x1="70.00" y1="480.00" x2="940.00" y2="480.00" stroke="#E6E6E6" stroke-width="1"/>
<text x="60.00" y="484.00" text-anchor="end" font-family="system-ui, -apple-system, Segoe UI, Roboto, Helvetica, Arial, sans-serif" font-size="12" fill="#222222">0</text>
<line x1="70.00" y1="302.74" x2="940.00" y2="302.74" stroke="#E6E6E6" stroke-width="1"/>
<text x="60.00" y="306.74" text-anchor="end" font-family="system-ui, -apple-system, Segoe UI, Roboto, Helvetica, Arial, sans-serif" font-size="12" fill="#222222">20000</text>
<line x1="70.00" y1="125.48" x2="940.00" y2="125.48" stroke="#E6E6E6" stroke-width="1"/>
<text x="60.00" y="129.48" text-anchor="end" font-family="system-ui, -apple-system, Segoe UI, Roboto, Helvetica, Arial, sans-serif" font-size="12" fill="#222222">40000</text>
<line x1="70.00" y1="-51.78" x2="940.00" y2="-51.78" stroke="#E6E6E6" stroke-width="1"/>
<text x="60.00" y="-47.78" text-anchor="end" font-family="system-ui, -apple-system, Segoe UI, Roboto, Helvetica, Arial, sans-serif" font-size="12" fill="#222222">60000</text>
<line x1="70.00" y1="20.00" x2="70.00" y2="480.00" stroke="#E6E6E6" stroke-width="1"/>
<text x="70.00" y="500.00" text-anchor="middle" font-family="system-ui, -apple-system, Segoe UI, Roboto, Helvetica, Arial, sans-serif" font-size="12" fill="#222222">0</text>
<line x1="298.47" y1="20.00" x2="298.47" y2="480.00" stroke="#E6E6E6" stroke-width="1"/>
<text x="298.47" y="500.00" text-anchor="middle" font-family="system-ui, -apple-system, Segoe UI, Roboto, Helvetica, Arial, sans-serif" font-size="12" fill="#222222">500</text>
<line x1="526.93" y1="20.00" x2="526.93" y2="480.00" stroke="#E6E6E6" stroke-width="1"/>
<text x="526.93" y="500.00" text-anchor="middle" font-family="system-ui, -apple-system, Segoe UI, Roboto, Helvetica, Arial, sans-serif" font-size="12" fill="#222222">1000</text>
<line x1="755.40" y1="20.00" x2="755.40" y2="480.00" stroke="#E6E6E6" stroke-width="1"/>
<text x="755.40" y="500.00" text-anchor="middle" font-family="system-ui, -apple-system, Segoe UI, Roboto, Helvetica, Arial, sans-serif" font-size="12" fill="#222222">1500</text>
<line x1="983.87" y1="20.00" x2="983.87" y2="480.00" stroke="#E6E6E6" stroke-width="1"/>
<text x="983.87" y="500.00" text-anchor="middle" font-family="system-ui, -apple-system, Segoe UI, Roboto, Helvetica, Arial, sans-serif" font-size="12" fill="#222222">2000</text>
<line x1="70.00" y1="480.00" x2="940.00" y2="480.00" stroke="#222222" stroke-width="1.5"/>
<line x1="70.00" y1="20.00" x2="70.00" y2="480.00" stroke="#222222" stroke-width="1.5"/>
<rect x="70.00" y="20.00" width="13.50" height="460.00" fill="#4C78A8"/>
<rect x="84.50" y="449.42" width="13.50" height="30.58" fill="#4C78A8"/>
<rect x="99.00" y="460.62" width="13.50" height="19.38" fill="#4C78A8"/>
<rect x="113.50" y="466.81" width="13.50" height="13.19" fill="#4C78A8"/>
<rect x="128.00" y="465.50" width="13.50" height="14.50" fill="#4C78A8"/>
<rect x="142.50" y="473.03" width="13.50" height="6.97" fill="#4C78A8"/>
<rect x="157.00" y="469.43" width="13.50" height="10.57" fill="#4C78A8"/>
<rect x="171.50" y="475.75" width="13.50" height="4.25" fill="#4C78A8"/>
<rect x="186.00" y="471.35" width="13.50" height="8.65" fill="#4C78A8"/>
<rect x="200.50" y="477.39" width="13.50" height="2.61" fill="#4C78A8"/>
<rect x="215.00" y="474.43" width="13.50" height="5.57" fill="#4C78A8"/>
<rect x="229.50" y="477.93" width="13.50" height="2.07" fill="#4C78A8"/>
<rect x="244.00" y="477.93" width="13.50" height="2.07" fill="#4C78A8"/>
<rect x="258.50" y="477.81" width="13.50" height="2.19" fill="#4C78A8"/>
<rect x="273.00" y="478.35" width="13.50" height="1.65" fill="#4C78A8"/>
<rect x="287.50" y="478.79" width="13.50" height="1.21" fill="#4C78A8"/>
<rect x="302.00" y="479.03" width="13.50" height="0.97" fill="#4C78A8"/>
<rect x="316.50" y="479.52" width="13.50" height="0.48" fill="#4C78A8"/>
<rect x="331.00" y="479.69" width="13.50" height="0.31" fill="#4C78A8"/>
<rect x="345.50" y="479.65" width="13.50" height="0.35" fill="#4C78A8"/>
<rect x="360.00" y="479.75" width="13.50" height="0.25" fill="#4C78A8"/>
<rect x="374.50" y="470.41" width="13.50" height="9.59" fill="#4C78A8"/>
<rect x="389.00" y="479.79" width="13.50" height="0.21" fill="#4C78A8"/>
<rect x="403.50" y="479.81" width="13.50" height="0.19" fill="#4C78A8"/>
<rect x="418.00" y="479.88" width="13.50" height="0.12" fill="#4C78A8"/>
<rect x="432.50" y="479.94" width="13.50" height="0.06" fill="#4C78A8"/>
<rect x="447.00" y="479.88" width="13.50" height="0.12" fill="#4C78A8"/>
<rect x="461.50" y="479.88" width="13.50" height="0.12" fill="#4C78A8"/>
<rect x="476.00" y="479.96" width="13.50" height="0.04" fill="#4C78A8"/>
<rect x="490.50" y="479.94" width="13.50" height="0.06" fill="#4C78A8"/>
<rect x="505.00" y="479.96" width="13.50" height="0.04" fill="#4C78A8"/>
<rect x="519.50" y="479.96" width="13.50" height="0.04" fill="#4C78A8"/>
<rect x="534.00" y="480.00" width="13.50" height="0.00" fill="#4C78A8"/>
<rect x="548.50" y="479.93" width="13.50" height="0.07" fill="#4C78A8"/>
<rect x="563.00" y="479.94" width="13.50" height="0.06" fill="#4C78A8"/>
<rect x="577.50" y="479.94" width="13.50" height="0.06" fill="#4C78A8"/>
<rect x="592.00" y="479.96" width="13.50" height="0.04" fill="#4C78A8"/>
<rect x="606.50" y="479.96" width="13.50" height="0.04" fill="#4C78A8"/>
<rect x="621.00" y="479.88" width="13.50" height="0.12" fill="#4C78A8"/>
<rect x="635.50" y="479.98" width="13.50" height="0.02" fill="#4C78A8"/>
<rect x="650.00" y="479.94" width="13.50" height="0.06" fill="#4C78A8"/>
<rect x="664.50" y="479.95" width="13.50" height="0.05" fill="#4C78A8"/>
<rect x="679.00" y="479.97" width="13.50" height="0.03" fill="#4C78A8"/>
<rect x="693.50" y="480.00" width="13.50" height="0.00" fill="#4C78A8"/>
<rect x="708.00" y="479.99" width="13.50" height="0.01" fill="#4C78A8"/>
<rect x="722.50" y="479.99" width="13.50" height="0.01" fill="#4C78A8"/>
<rect x="737.00" y="479.99" width="13.50" height="0.01" fill="#4C78A8"/>
<rect x="751.50" y="479.96" width="13.50" height="0.04" fill="#4C78A8"/>
<rect x="766.00" y="479.99" width="13.50" height="0.01" fill="#4C78A8"/>
<rect x="780.50" y="479.99" width="13.50" height="0.01" fill="#4C78A8"/>
<rect x="795.00" y="479.98" width="13.50" height="0.02" fill="#4C78A8"/>
<rect x="809.50" y="479.99" width="13.50" height="0.01" fill="#4C78A8"/>
<rect x="824.00" y="479.99" width="13.50" height="0.01" fill="#4C78A8"/>
<rect x="838.50" y="479.97" width="13.50" height="0.03" fill="#4C78A8"/>
<rect x="853.00" y="479.99" width="13.50" height="0.01" fill="#4C78A8"/>
<rect x="867.50" y="479.99" width="13.50" height="0.01" fill="#4C78A8"/>
<rect x="882.00" y="479.99" width="13.50" height="0.01" fill="#4C78A8"/>
<rect x="896.50" y="480.00" width="13.50" height="0.00" fill="#4C78A8"/>
<rect x="911.00" y="479.99" width="13.50" height="0.01" fill="#4C78A8"/>
<rect x="925.50" y="479.99" width="13.50" height="0.01" fill="#4C78A8"/>
<text x="480.00" y="28" text-anchor="middle" font-family="system-ui, -apple-system, Segoe UI, Roboto, Helvetica, Arial, sans-serif" font-size="18" fill="#222222">propagation lag_days histogram (hop=8, n=67598)</text>
<text x="480.00" y="48" text-anchor="middle" font-family="system-ui, -apple-system, Segoe UI, Roboto, Helvetica, Arial, sans-serif" font-size="12" fill="#222222">bins=60, x_max=1904</text>
<text x="480.00" y="520.00" text-anchor="middle" font-family="system-ui, -apple-system, Segoe UI, Roboto, Helvetica, Arial, sans-serif" font-size="14" fill="#222222">lag_days</text>
<text x="18" y="270.00" text-anchor="middle" font-family="system-ui, -apple-system, Segoe UI, Roboto, Helvetica, Arial, sans-serif" font-size="14" fill="#222222" transform="rotate(-90 18 270.00)">count</text>
</svg>
