<svg xmlns="http://www.w3.org/2000/svg" width="960" height="540" viewBox="0 0 960 540">
<rect x="0" y="0" width="960" height="540" fill="white"/>
<line x1="70.00" y1="480.00" x2="940.00" y2="480.00" stroke="#E6E6E6" stroke-width="1"/>
<text x="60.00" y="484.00" text-anchor="end" font-family="system-ui, -apple-system, Segoe UI, Roboto, Helvetica, Arial, sans-serif" font-size="12" fill="#222222">0</text>
<line x1="70.00" y1="304.68" x2="940.00" y2="304.68" stroke="#E6E6E6" stroke-width="1"/>
<text x="60.00" y="308.68" text-anchor="end" font-family="system-ui, -apple-system, Segoe UI, Roboto, Helvetica, Arial, sans-serif" font-size="12" fill="#222222">20000</text>
<line x1="70.00" y1="129.36" x2="940.00" y2="129.36" stroke="#E6E6E6" stroke-width="1"/>
<text x="60.00" y="133.36" text-anchor="end" font-family="system-ui, -apple-system, Segoe UI, Roboto, Helvetica, Arial, sans-serif" font-size="12" fill="#222222">40000</text>
<line x1="70.00" y1="-45.95" x2="940.00" y2="-45.95" stroke="#E6E6E6" stroke-width="1"/>
<text x="60.00" y="-41.95" text-anchor="end" font-family="system-ui, -apple-system, Segoe UI, Roboto, Helvetica, Arial, sans-serif" font-size="12" fill="#222222">60000</text>
<line x1="70.00" y1="20.00" x2="70.00" y2="480.00" stroke="#E6E6E6" stroke-width="1"/>
<text x="70.00" y="500.00" text-anchor="middle" font-family="system-ui, -apple-system, Segoe UI, Roboto, Helvetica, Arial, sans-serif" font-size="12" fill="#222222">0</text>
<line x1="254.24" y1="20.00" x2="254.24" y2="480.00" stroke="#E6E6E6" stroke-width="1"/>
<text x="254.24" y="500.00" text-anchor="middle" font-family="system-ui, -apple-system, Segoe UI, Roboto, Helvetica, Arial, sans-serif" font-size="12" fill="#222222">500</text>
<line x1="438.49" y1="20.00" x2="438.49" y2="480.00" stroke="#E6E6E6" stroke-width="1"/>
<text x="438.49" y="500.00" text-anchor="middle" font-family="system-ui, -apple-system, Segoe UI, Roboto, Helvetica, Arial, sans-serif" font-size="12" fill="#222222">1000</text>
<line x1="622.73" y1="20.00" x2="622.73" y2="480.00" stroke="#E6E6E6" stroke-width="1"/>
<text x="622.73" y="500.00" text-anchor="middle" font-family="system-ui, -apple-system, Segoe UI, Roboto, Helvetica, Arial, sans-serif" font-size="12" fill="#222222">1500</text>
<line x1="806.98" y1="20.00" x2="806.98" y2="480.00" stroke="#E6E6E6" stroke-width="1"/>
<text x="806.98" y="500.00" text-anchor="middle" font-family="system-ui, -apple-system, Segoe UI, Roboto, Helvetica, Arial, sans-serif" font-size="12" fill="#222222">2000</text>
<line x1="991.22" y1="20.00" x2="991.22" y2="480.00" stroke="#E6E6E6" stroke-width="1"/>
<text x="991.22" y="500.00" text-anchor="middle" font-family="system-ui, -apple-system, Segoe UI, Roboto, Helvetica, Arial, sans-serif" font-size="12" fill="#222222">2500</text>
<line x1="70.00" y1="480.00" x2="940.00" y2="480.00" stroke="#222222" stroke-width="1.5"/>
<line x1="70.00" y1="20.00" x2="70.00" y2="480.00" stroke="#222222" stroke-width="1.5"/>
<rect x="70.00" y="20.00" width="13.50" height="460.00" fill="#4C78A8"/>
<rect x="84.50" y="409.12" width="13.50" height="70.88" fill="#4C78A8"/>
<rect x="99.00" y="407.35" width="13.50" height="72.65" fill="#4C78A8"/>
<rect x="113.50" y="413.94" width="13.50" height="66.06" fill="#4C78A8"/>
<rect x="128.00" y="448.94" width="13.50" height="31.06" fill="#4C78A8"/>
<rect x="142.50" y="451.40" width="13.50" height="28.60" fill="#4C78A8"/>
<rect x="157.00" y="456.91" width="13.50" height="23.09" fill="#4C78A8"/>
<rect x="171.50" y="442.16" width="13.50" height="37.84" fill="#4C78A8"/>
<rect x="186.00" y="460.08" width="13.50" height="19.92" fill="#4C78A8"/>
<rect x="200.50" y="465.62" width="13.50" height="14.38" fill="#4C78A8"/>
<rect x="215.00" y="469.67" width="13.50" height="10.33" fill="#4C78A8"/>
<rect x="229.50" y="458.44" width="13.50" height="21.56" fill="#4C78A8"/>
<rect x="244.00" y="463.25" width="13.50" height="16.75" fill="#4C78A8"/>
<rect x="258.50" y="474.17" width="13.50" height="5.83" fill="#4C78A8"/>
<rect x="273.00" y="470.08" width="13.50" height="9.92" fill="#4C78A8"/>
<rect x="287.50" y="474.29" width="13.50" height="5.71" fill="#4C78A8"/>
<rect x="302.00" y="474.13" width="13.50" height="5.87" fill="#4C78A8"/>
<rect x="316.50" y="473.98" width="13.50" height="6.02" fill="#4C78A8"/>
<rect x="331.00" y="475.83" width="13.50" height="4.17" fill="#4C78A8"/>
<rect x="345.50" y="476.54" width="13.50" height="3.46" fill="#4C78A8"/>
<rect x="360.00" y="476.33" width="13.50" height="3.67" fill="#4C78A8"/>
<rect x="374.50" y="476.64" width="13.50" height="3.36" fill="#4C78A8"/>
<rect x="389.00" y="477.57" width="13.50" height="2.43" fill="#4C78A8"/>
<rect x="403.50" y="477.67" width="13.50" height="2.33" fill="#4C78A8"/>
<rect x="418.00" y="477.86" width="13.50" height="2.14" fill="#4C78A8"/>
<rect x="432.50" y="478.34" width="13.50" height="1.66" fill="#4C78A8"/>
<rect x="447.00" y="478.69" width="13.50" height="1.31" fill="#4C78A8"/>
<rect x="461.50" y="478.84" width="13.50" height="1.16" fill="#4C78A8"/>
<rect x="476.00" y="478.70" width="13.50" height="1.30" fill="#4C78A8"/>
<rect x="490.50" y="478.71" width="13.50" height="1.29" fill="#4C78A8"/>
<rect x="505.00" y="479.10" width="13.50" height="0.90" fill="#4C78A8"/>
<rect x="519.50" y="479.09" width="13.50" height="0.91" fill="#4C78A8"/>
<rect x="534.00" y="479.22" width="13.50" height="0.78" fill="#4C78A8"/>
<rect x="548.50" y="479.35" width="13.50" height="0.65" fill="#4C78A8"/>
<rect x="563.00" y="477.70" width="13.50" height="2.30" fill="#4C78A8"/>
<rect x="577.50" y="478.69" width="13.50" height="1.31" fill="#4C78A8"/>
<rect x="592.00" y="479.60" width="13.50" height="0.40" fill="#4C78A8"/>
<rect x="606.50" y="479.65" width="13.50" height="0.35" fill="#4C78A8"/>
<rect x="621.00" y="474.65" width="13.50" height="5.35" fill="#4C78A8"/>
<rect x="635.50" y="479.75" width="13.50" height="0.25" fill="#4C78A8"/>
<rect x="650.00" y="479.73" width="13.50" height="0.27" fill="#4C78A8"/>
<rect x="664.50" y="479.76" width="13.50" height="0.24" fill="#4C78A8"/>
<rect x="679.00" y="479.72" width="13.50" height="0.28" fill="#4C78A8"/>
<rect x="693.50" y="479.76" width="13.50" height="0.24" fill="#4C78A8"/>
<rect x="708.00" y="479.82" width="13.50" height="0.18" fill="#4C78A8"/>
<rect x="722.50" y="479.80" width="13.50" height="0.20" fill="#4C78A8"/>
<rect x="737.00" y="479.79" width="13.50" height="0.21" fill="#4C78A8"/>
<rect x="751.50" y="479.90" width="13.50" height="0.10" fill="#4C78A8"/>
<rect x="766.00" y="479.89" width="13.50" height="0.11" fill="#4C78A8"/>
<rect x="780.50" y="479.85" width="13.50" height="0.15" fill="#4C78A8"/>
<rect x="795.00" y="479.85" width="13.50" height="0.15" fill="#4C78A8"/>
<rect x="809.50" y="479.93" width="13.50" height="0.07" fill="#4C78A8"/>
<rect x="824.00" y="479.93" width="13.50" height="0.07" fill="#4C78A8"/>
<rect x="838.50" y="479.98" width="13.50" height="0.02" fill="#4C78A8"/>
<rect x="853.00" y="479.93" width="13.50" height="0.07" fill="#4C78A8"/>
<rect x="867.50" y="479.98" width="13.50" height="0.02" fill="#4C78A8"/>
<rect x="882.00" y="479.98" width="13.50" height="0.02" fill="#4C78A8"/>
<rect x="896.50" y="479.99" width="13.50" height="0.01" fill="#4C78A8"/>
<rect x="911.00" y="480.00" width="13.50" height="0.00" fill="#4C78A8"/>
<rect x="925.50" y="479.96" width="13.50" height="0.04" fill="#4C78A8"/>
<text x="480.00" y="28" text-anchor="middle" font-family="system-ui, -apple-system, Segoe UI, Roboto, Helvetica, Arial, sans-serif" font-size="18" fill="#222222">propagation lag_days histogram (hop=2, n=108418)</text>
<text x="480.00" y="48" text-anchor="middle" font-family="system-ui, -apple-system, Segoe UI, Roboto, Helvetica, Arial, sans-serif" font-size="12" fill="#222222">bins=60, x_max=2361</text>
<text x="480.00" y="520.00" text-anchor="middle" font-family="system-ui, -apple-system, Segoe UI, Roboto, Helvetica, Arial, sans-serif" font-size="14" fill="#222222">lag_days</text>
<text x="18" y="270.00" text-anchor="middle" font-family="system-ui, -apple-system, Segoe UI, Roboto, Helvetica, Arial, sans-serif" font-size="14" fill="#222222" transform="rotate(-90 18 270.00)">count</text>
</svg>
