<svg xmlns="http://www.w3.org/2000/svg" width="960" height="540" viewBox="0 0 960 540">
<rect x="0" y="0" width="960" height="540" fill="white"/>
<line x1="70.00" y1="480.00" x2="940.00" y2="480.00" stroke="#E6E6E6" stroke-width="1"/>
<text x="60.00" y="484.00" text-anchor="end" font-family="system-ui, -apple-system, Segoe UI, Roboto, Helvetica, Arial, sans-serif" font-size="12" fill="#222222">0</text>
<line x1="70.00" y1="363.58" x2="940.00" y2="363.58" stroke="#E6E6E6" stroke-width="1"/>
<text x="60.00" y="367.58" text-anchor="end" font-family="system-ui, -apple-system, Segoe UI, Roboto, Helvetica, Arial, sans-serif" font-size="12" fill="#222222">20000</text>
<line x1="70.00" y1="247.17" x2="940.00" y2="247.17" stroke="#E6E6E6" stroke-width="1"/>
<text x="60.00" y="251.17" text-anchor="end" font-family="system-ui, -apple-system, Segoe UI, Roboto, Helvetica, Arial, sans-serif" font-size="12" fill="#222222">40000</text>
<line x1="70.00" y1="130.75" x2="940.00" y2="130.75" stroke="#E6E6E6" stroke-width="1"/>
<text x="60.00" y="134.75" text-anchor="end" font-family="system-ui, -apple-system, Segoe UI, Roboto, Helvetica, Arial, sans-serif" font-size="12" fill="#222222">60000</text>
<line x1="70.00" y1="14.33" x2="940.00" y2="14.33" stroke="#E6E6E6" stroke-width="1"/>
<text x="60.00" y="18.33" text-anchor="end" font-family="system-ui, -apple-system, Segoe UI, Roboto, Helvetica, Arial, sans-serif" font-size="12" fill="#222222">80000</text>
<line x1="70.00" y1="20.00" x2="70.00" y2="480.00" stroke="#E6E6E6" stroke-width="1"/>
<text x="70.00" y="500.00" text-anchor="middle" font-family="system-ui, -apple-system, Segoe UI, Roboto, Helvetica, Arial, sans-serif" font-size="12" fill="#222222">0</text>
<line x1="313.42" y1="20.00" x2="313.42" y2="480.00" stroke="#E6E6E6" stroke-width="1"/>
<text x="313.42" y="500.00" text-anchor="middle" font-family="system-ui, -apple-system, Segoe UI, Roboto, Helvetica, Arial, sans-serif" font-size="12" fill="#222222">500</text>
<line x1="556.85" y1="20.00" x2="556.85" y2="480.00" stroke="#E6E6E6" stroke-width="1"/>
<text x="556.85" y="500.00" text-anchor="middle" font-family="system-ui, -apple-system, Segoe UI, Roboto, Helvetica, Arial, sans-serif" font-size="12" fill="#222222">1000</text>
<line x1="800.27" y1="20.00" x2="800.27" y2="480.00" stroke="#E6E6E6" stroke-width="1"/>
<text x="800.27" y="500.00" text-anchor="middle" font-family="system-ui, -apple-system, Segoe UI, Roboto, Helvetica, Arial, sans-serif" font-size="12" fill="#222222">1500</text>
<line x1="1043.70" y1="20.00" x2="1043.70" y2="480.00" stroke="#E6E6E6" stroke-width="1"/>
<text x="1043.70" y="500.00" text-anchor="middle" font-family="system-ui, -apple-system, Segoe UI, Roboto, Helvetica, Arial, sans-serif" font-size="12" fill="#222222">2000</text>
<line x1="70.00" y1="480.00" x2="940.00" y2="480.00" stroke="#222222" stroke-width="1.5"/>
<line x1="70.00" y1="20.00" x2="70.00" y2="480.00" stroke="#222222" stroke-width="1.5"/>
<rect x="70.00" y="20.00" width="13.50" height="460.00" fill="#4C78A8"/>
<rect x="84.50" y="442.12" width="13.50" height="37.88" fill="#4C78A8"/>
<rect x="99.00" y="456.75" width="13.50" height="23.25" fill="#4C78A8"/>
<rect x="113.50" y="463.65" width="13.50" height="16.35" fill="#4C78A8"/>
<rect x="128.00" y="462.49" width="13.50" height="17.51" fill="#4C78A8"/>
<rect x="142.50" y="458.92" width="13.50" height="21.08" fill="#4C78A8"/>
<rect x="157.00" y="471.16" width="13.50" height="8.84" fill="#4C78A8"/>
<rect x="171.50" y="473.53" width="13.50" height="6.47" fill="#4C78A8"/>
<rect x="186.00" y="475.40" width="13.50" height="4.60" fill="#4C78A8"/>
<rect x="200.50" y="469.57" width="13.50" height="10.43" fill="#4C78A8"/>
<rect x="215.00" y="476.87" width="13.50" height="3.13" fill="#4C78A8"/>
<rect x="229.50" y="472.44" width="13.50" height="7.56" fill="#4C78A8"/>
<rect x="244.00" y="477.52" width="13.50" height="2.48" fill="#4C78A8"/>
<rect x="258.50" y="477.79" width="13.50" height="2.21" fill="#4C78A8"/>
<rect x="273.00" y="478.01" width="13.50" height="1.99" fill="#4C78A8"/>
<rect x="287.50" y="478.71" width="13.50" height="1.29" fill="#4C78A8"/>
<rect x="302.00" y="478.71" width="13.50" height="1.29" fill="#4C78A8"/>
<rect x="316.50" y="479.09" width="13.50" height="0.91" fill="#4C78A8"/>
<rect x="331.00" y="479.41" width="13.50" height="0.59" fill="#4C78A8"/>
<rect x="345.50" y="479.34" width="13.50" height="0.66" fill="#4C78A8"/>
<rect x="360.00" y="479.49" width="13.50" height="0.51" fill="#4C78A8"/>
<rect x="374.50" y="479.60" width="13.50" height="0.40" fill="#4C78A8"/>
<rect x="389.00" y="479.62" width="13.50" height="0.38" fill="#4C78A8"/>
<rect x="403.50" y="479.77" width="13.50" height="0.23" fill="#4C78A8"/>
<rect x="418.00" y="479.80" width="13.50" height="0.20" fill="#4C78A8"/>
<rect x="432.50" y="479.76" width="13.50" height="0.24" fill="#4C78A8"/>
<rect x="447.00" y="479.85" width="13.50" height="0.15" fill="#4C78A8"/>
<rect x="461.50" y="479.94" width="13.50" height="0.06" fill="#4C78A8"/>
<rect x="476.00" y="479.41" width="13.50" height="0.59" fill="#4C78A8"/>
<rect x="490.50" y="479.90" width="13.50" height="0.10" fill="#4C78A8"/>
<rect x="505.00" y="479.28" width="13.50" height="0.72" fill="#4C78A8"/>
<rect x="519.50" y="479.97" width="13.50" height="0.03" fill="#4C78A8"/>
<rect x="534.00" y="479.99" width="13.50" height="0.01" fill="#4C78A8"/>
<rect x="548.50" y="479.97" width="13.50" height="0.03" fill="#4C78A8"/>
<rect x="563.00" y="480.00" width="13.50" height="0.00" fill="#4C78A8"/>
<rect x="577.50" y="479.97" width="13.50" height="0.03" fill="#4C78A8"/>
<rect x="592.00" y="479.91" width="13.50" height="0.09" fill="#4C78A8"/>
<rect x="606.50" y="479.94" width="13.50" height="0.06" fill="#4C78A8"/>
<rect x="621.00" y="479.99" width="13.50" height="0.01" fill="#4C78A8"/>
<rect x="635.50" y="479.99" width="13.50" height="0.01" fill="#4C78A8"/>
<rect x="650.00" y="479.94" width="13.50" height="0.06" fill="#4C78A8"/>
<rect x="664.50" y="479.99" width="13.50" height="0.01" fill="#4C78A8"/>
<rect x="679.00" y="480.00" width="13.50" height="0.00" fill="#4C78A8"/>
<rect x="693.50" y="479.99" width="13.50" height="0.01" fill="#4C78A8"/>
<rect x="708.00" y="479.99" width="13.50" height="0.01" fill="#4C78A8"/>
<rect x="722.50" y="480.00" width="13.50" height="0.00" fill="#4C78A8"/>
<rect x="737.00" y="479.99" width="13.50" height="0.01" fill="#4C78A8"/>
<rect x="751.50" y="479.99" width="13.50" height="0.01" fill="#4C78A8"/>
<rect x="766.00" y="479.99" width="13.50" height="0.01" fill="#4C78A8"/>
<rect x="780.50" y="479.99" width="13.50" height="0.01" fill="#4C78A8"/>
<rect x="795.00" y="480.00" width="13.50" height="0.00" fill="#4C78A8"/>
<rect x="809.50" y="480.00" width="13.50" height="0.00" fill="#4C78A8"/>
<rect x="824.00" y="479.99" width="13.50" height="0.01" fill="#4C78A8"/>
<rect x="838.50" y="479.99" width="13.50" height="0.01" fill="#4C78A8"/>
<rect x="853.00" y="480.00" width="13.50" height="0.00" fill="#4C78A8"/>
<rect x="867.50" y="480.00" width="13.50" height="0.00" fill="#4C78A8"/>
<rect x="882.00" y="480.00" width="13.50" height="0.00" fill="#4C78A8"/>
<rect x="896.50" y="480.00" width="13.50" height="0.00" fill="#4C78A8"/>
<rect x="911.00" y="480.00" width="13.50" height="0.00" fill="#4C78A8"/>
<rect x="925.50" y="479.99" width="13.50" height="0.01" fill="#4C78A8"/>
<text x="480.00" y="28" text-anchor="middle" font-family="system-ui, -apple-system, Segoe UI, Roboto, Helvetica, Arial, sans-serif" font-size="18" fill="#222222">propagation lag_days histogram (hop=7, n=108660)</text>
<text x="480.00" y="48" text-anchor="middle" font-family="system-ui, -apple-system, Segoe UI, Roboto, Helvetica, Arial, sans-serif" font-size="12" fill="#222222">bins=60, x_max=1787</text>
<text x="480.00" y="520.00" text-anchor="middle" font-family="system-ui, -apple-system, Segoe UI, Roboto, Helvetica, Arial, sans-serif" font-size="14" fill="#222222">lag_days</text>
<text x="18" y="270.00" text-anchor="middle" font-family="system-ui, -apple-system, Segoe UI, Roboto, Helvetica, Arial, sans-serif" font-size="14" fill="#222222" transform="rotate(-90 18 270.00)">count</text>
</svg>
