<svg xmlns="http://www.w3.org/2000/svg" width="960" height="540" viewBox="0 0 960 540">
<rect x="0" y="0" width="960" height="540" fill="white"/>
<line x1="70" y1="480.00" x2="940" y2="480.00" stroke="#E6E6E6" stroke-width="1"/>
<text x="60" y="484.00" text-anchor="end" font-family="system-ui, -apple-system, Segoe UI, Roboto, Helvetica, Arial, sans-serif" font-size="12" fill="#222222">0</text>
<line x1="70" y1="315.95" x2="940" y2="315.95" stroke="#E6E6E6" stroke-width="1"/>
<text x="60" y="319.95" text-anchor="end" font-family="system-ui, -apple-system, Segoe UI, Roboto, Helvetica, Arial, sans-serif" font-size="12" fill="#222222">2000</text>
<line x1="70" y1="151.90" x2="940" y2="151.90" stroke="#E6E6E6" stroke-width="1"/>
<text x="60" y="155.90" text-anchor="end" font-family="system-ui, -apple-system, Segoe UI, Roboto, Helvetica, Arial, sans-serif" font-size="12" fill="#222222">4000</text>
<line x1="70" y1="-12.15" x2="940" y2="-12.15" stroke="#E6E6E6" stroke-width="1"/>
<text x="60" y="-8.15" text-anchor="end" font-family="system-ui, -apple-system, Segoe UI, Roboto, Helvetica, Arial, sans-serif" font-size="12" fill="#222222">6000</text>
<line x1="70.00" y1="20" x2="70.00" y2="480" stroke="#E6E6E6" stroke-width="1"/>
<text x="70.00" y="500" text-anchor="middle" font-family="system-ui, -apple-system, Segoe UI, Roboto, Helvetica, Arial, sans-serif" font-size="12" fill="#222222">0</text>
<line x1="343.50" y1="20" x2="343.50" y2="480" stroke="#E6E6E6" stroke-width="1"/>
<text x="343.50" y="500" text-anchor="middle" font-family="system-ui, -apple-system, Segoe UI, Roboto, Helvetica, Arial, sans-serif" font-size="12" fill="#222222">1000</text>
<line x1="617.00" y1="20" x2="617.00" y2="480" stroke="#E6E6E6" stroke-width="1"/>
<text x="617.00" y="500" text-anchor="middle" font-family="system-ui, -apple-system, Segoe UI, Roboto, Helvetica, Arial, sans-serif" font-size="12" fill="#222222">2000</text>
<line x1="890.50" y1="20" x2="890.50" y2="480" stroke="#E6E6E6" stroke-width="1"/>
<text x="890.50" y="500" text-anchor="middle" font-family="system-ui, -apple-system, Segoe UI, Roboto, Helvetica, Arial, sans-serif" font-size="12" fill="#222222">3000</text>
<line x1="1164.00" y1="20" x2="1164.00" y2="480" stroke="#E6E6E6" stroke-width="1"/>
<text x="1164.00" y="500" text-anchor="middle" font-family="system-ui, -apple-system, Segoe UI, Roboto, Helvetica, Arial, sans-serif" font-size="12" fill="#222222">4000</text>
<line x1="70" y1="480" x2="940" y2="480" stroke="#222222" stroke-width="1.5"/>
<line x1="70" y1="20" x2="70" y2="480" stroke="#222222" stroke-width="1.5"/>
<rect x="70.00" y="20.00" width="13.50" height="460.00" fill="#4C78A8"/>
<rect x="84.50" y="234.33" width="13.50" height="245.67" fill="#4C78A8"/>
<rect x="99.00" y="313.65" width="13.50" height="166.35" fill="#4C78A8"/>
<rect x="113.50" y="327.51" width="13.50" height="152.49" fill="#4C78A8"/>
<rect x="128.00" y="362.54" width="13.50" height="117.46" fill="#4C78A8"/>
<rect x="142.50" y="373.45" width="13.50" height="106.55" fill="#4C78A8"/>
<rect x="157.00" y="407.41" width="13.50" height="72.59" fill="#4C78A8"/>
<rect x="171.50" y="403.80" width="13.50" height="76.20" fill="#4C78A8"/>
<rect x="186.00" y="415.20" width="13.50" height="64.80" fill="#4C78A8"/>
<rect x="200.50" y="420.04" width="13.50" height="59.96" fill="#4C78A8"/>
<rect x="215.00" y="417.91" width="13.50" height="62.09" fill="#4C78A8"/>
<rect x="229.50" y="435.05" width="13.50" height="44.95" fill="#4C78A8"/>
<rect x="244.00" y="420.53" width="13.50" height="59.47" fill="#4C78A8"/>
<rect x="258.50" y="433.74" width="13.50" height="46.26" fill="#4C78A8"/>
<rect x="273.00" y="440.63" width="13.50" height="39.37" fill="#4C78A8"/>
<rect x="287.50" y="436.94" width="13.50" height="43.06" fill="#4C78A8"/>
<rect x="302.00" y="436.69" width="13.50" height="43.31" fill="#4C78A8"/>
<rect x="316.50" y="442.10" width="13.50" height="37.90" fill="#4C78A8"/>
<rect x="331.00" y="443.01" width="13.50" height="36.99" fill="#4C78A8"/>
<rect x="345.50" y="437.43" width="13.50" height="42.57" fill="#4C78A8"/>
<rect x="360.00" y="452.77" width="13.50" height="27.23" fill="#4C78A8"/>
<rect x="374.50" y="406.01" width="13.50" height="73.99" fill="#4C78A8"/>
<rect x="389.00" y="355.07" width="13.50" height="124.93" fill="#4C78A8"/>
<rect x="403.50" y="456.95" width="13.50" height="23.05" fill="#4C78A8"/>
<rect x="418.00" y="457.11" width="13.50" height="22.89" fill="#4C78A8"/>
<rect x="432.50" y="410.20" width="13.50" height="69.80" fill="#4C78A8"/>
<rect x="447.00" y="462.45" width="13.50" height="17.55" fill="#4C78A8"/>
<rect x="461.50" y="458.02" width="13.50" height="21.98" fill="#4C78A8"/>
<rect x="476.00" y="427.50" width="13.50" height="52.50" fill="#4C78A8"/>
<rect x="490.50" y="465.97" width="13.50" height="14.03" fill="#4C78A8"/>
<rect x="505.00" y="471.80" width="13.50" height="8.20" fill="#4C78A8"/>
<rect x="519.50" y="474.50" width="13.50" height="5.50" fill="#4C78A8"/>
<rect x="534.00" y="473.93" width="13.50" height="6.07" fill="#4C78A8"/>
<rect x="548.50" y="475.90" width="13.50" height="4.10" fill="#4C78A8"/>
<rect x="563.00" y="475.49" width="13.50" height="4.51" fill="#4C78A8"/>
<rect x="577.50" y="477.62" width="13.50" height="2.38" fill="#4C78A8"/>
<rect x="592.00" y="478.61" width="13.50" height="1.39" fill="#4C78A8"/>
<rect x="606.50" y="477.38" width="13.50" height="2.62" fill="#4C78A8"/>
<rect x="621.00" y="477.70" width="13.50" height="2.30" fill="#4C78A8"/>
<rect x="635.50" y="478.11" width="13.50" height="1.89" fill="#4C78A8"/>
<rect x="650.00" y="477.87" width="13.50" height="2.13" fill="#4C78A8"/>
<rect x="664.50" y="478.44" width="13.50" height="1.56" fill="#4C78A8"/>
<rect x="679.00" y="478.93" width="13.50" height="1.07" fill="#4C78A8"/>
<rect x="693.50" y="478.93" width="13.50" height="1.07" fill="#4C78A8"/>
<rect x="708.00" y="479.43" width="13.50" height="0.57" fill="#4C78A8"/>
<rect x="722.50" y="478.20" width="13.50" height="1.80" fill="#4C78A8"/>
<rect x="737.00" y="478.85" width="13.50" height="1.15" fill="#4C78A8"/>
<rect x="751.50" y="478.44" width="13.50" height="1.56" fill="#4C78A8"/>
<rect x="766.00" y="479.26" width="13.50" height="0.74" fill="#4C78A8"/>
<rect x="780.50" y="479.67" width="13.50" height="0.33" fill="#4C78A8"/>
<rect x="795.00" y="479.67" width="13.50" height="0.33" fill="#4C78A8"/>
<rect x="809.50" y="479.26" width="13.50" height="0.74" fill="#4C78A8"/>
<rect x="824.00" y="479.26" width="13.50" height="0.74" fill="#4C78A8"/>
<rect x="838.50" y="479.75" width="13.50" height="0.25" fill="#4C78A8"/>
<rect x="853.00" y="479.92" width="13.50" height="0.08" fill="#4C78A8"/>
<rect x="867.50" y="479.67" width="13.50" height="0.33" fill="#4C78A8"/>
<rect x="882.00" y="479.92" width="13.50" height="0.08" fill="#4C78A8"/>
<rect x="896.50" y="479.92" width="13.50" height="0.08" fill="#4C78A8"/>
<rect x="911.00" y="479.75" width="13.50" height="0.25" fill="#4C78A8"/>
<rect x="925.50" y="479.75" width="13.50" height="0.25" fill="#4C78A8"/>
<text x="480.00" y="28" text-anchor="middle" font-family="system-ui, -apple-system, Segoe UI, Roboto, Helvetica, Arial, sans-serif" font-size="18" fill="#222222">lag_days histogram (n=30288)</text>
<text x="480.00" y="48" text-anchor="middle" font-family="system-ui, -apple-system, Segoe UI, Roboto, Helvetica, Arial, sans-serif" font-size="12" fill="#222222">bins=60, x_max=3181, y_scale=linear</text>
<text x="480.00" y="520" text-anchor="middle" font-family="system-ui, -apple-system, Segoe UI, Roboto, Helvetica, Arial, sans-serif" font-size="14" fill="#222222">lag_days</text>
<text x="18" y="270.00" text-anchor="middle" font-family="system-ui, -apple-system, Segoe UI, Roboto, Helvetica, Arial, sans-serif" font-size="14" fill="#222222" transform="rotate(-90 18 270.00)">count</text>
</svg>
