<svg xmlns="http://www.w3.org/2000/svg" width="960" height="540" viewBox="0 0 960 540">
<rect x="0" y="0" width="960" height="540" fill="white"/>
<line x1="70" y1="480.00" x2="940" y2="480.00" stroke="#E6E6E6" stroke-width="1"/>
<text x="60" y="484.00" text-anchor="end" font-family="system-ui, -apple-system, Segoe UI, Roboto, Helvetica, Arial, sans-serif" font-size="12" fill="#222222">0</text>
<line x1="70" y1="327.18" x2="940" y2="327.18" stroke="#E6E6E6" stroke-width="1"/>
<text x="60" y="331.18" text-anchor="end" font-family="system-ui, -apple-system, Segoe UI, Roboto, Helvetica, Arial, sans-serif" font-size="12" fill="#222222">500</text>
<line x1="70" y1="174.35" x2="940" y2="174.35" stroke="#E6E6E6" stroke-width="1"/>
<text x="60" y="178.35" text-anchor="end" font-family="system-ui, -apple-system, Segoe UI, Roboto, Helvetica, Arial, sans-serif" font-size="12" fill="#222222">1000</text>
<line x1="70" y1="21.53" x2="940" y2="21.53" stroke="#E6E6E6" stroke-width="1"/>
<text x="60" y="25.53" text-anchor="end" font-family="system-ui, -apple-system, Segoe UI, Roboto, Helvetica, Arial, sans-serif" font-size="12" fill="#222222">1500</text>
<line x1="70" y1="-131.30" x2="940" y2="-131.30" stroke="#E6E6E6" stroke-width="1"/>
<text x="60" y="-127.30" text-anchor="end" font-family="system-ui, -apple-system, Segoe UI, Roboto, Helvetica, Arial, sans-serif" font-size="12" fill="#222222">2000</text>
<line x1="70.00" y1="20" x2="70.00" y2="480" stroke="#E6E6E6" stroke-width="1"/>
<text x="70.00" y="500" text-anchor="middle" font-family="system-ui, -apple-system, Segoe UI, Roboto, Helvetica, Arial, sans-serif" font-size="12" fill="#222222">0</text>
<line x1="343.50" y1="20" x2="343.50" y2="480" stroke="#E6E6E6" stroke-width="1"/>
<text x="343.50" y="500" text-anchor="middle" font-family="system-ui, -apple-system, Segoe UI, Roboto, Helvetica, Arial, sans-serif" font-size="12" fill="#222222">1000</text>
<line x1="617.00" y1="20" x2="617.00" y2="480" stroke="#E6E6E6" stroke-width="1"/>
<text x="617.00" y="500" text-anchor="middle" font-family="system-ui, -apple-system, Segoe UI, Roboto, Helvetica, Arial, sans-serif" font-size="12" fill="#222222">2000</text>
<line x1="890.50" y1="20" x2="890.50" y2="480" stroke="#E6E6E6" stroke-width="1"/>
<text x="890.50" y="500" text-anchor="middle" font-family="system-ui, -apple-system, Segoe UI, Roboto, Helvetica, Arial, sans-serif" font-size="12" fill="#222222">3000</text>
<line x1="1164.00" y1="20" x2="1164.00" y2="480" stroke="#E6E6E6" stroke-width="1"/>
<text x="1164.00" y="500" text-anchor="middle" font-family="system-ui, -apple-system, Segoe UI, Roboto, Helvetica, Arial, sans-serif" font-size="12" fill="#222222">4000</text>
<line x1="70" y1="480" x2="940" y2="480" stroke="#222222" stroke-width="1.5"/>
<line x1="70" y1="20" x2="70" y2="480" stroke="#222222" stroke-width="1.5"/>
<rect x="70.00" y="20.00" width="13.50" height="460.00" fill="#4C78A8"/>
<rect x="84.50" y="152.96" width="13.50" height="327.04" fill="#4C78A8"/>
<rect x="99.00" y="290.80" width="13.50" height="189.20" fill="#4C78A8"/>
<rect x="113.50" y="302.42" width="13.50" height="177.58" fill="#4C78A8"/>
<rect x="128.00" y="340.93" width="13.50" height="139.07" fill="#4C78A8"/>
<rect x="142.50" y="410.92" width="13.50" height="69.08" fill="#4C78A8"/>
<rect x="157.00" y="419.79" width="13.50" height="60.21" fill="#4C78A8"/>
<rect x="171.50" y="419.79" width="13.50" height="60.21" fill="#4C78A8"/>
<rect x="186.00" y="412.15" width="13.50" height="67.85" fill="#4C78A8"/>
<rect x="200.50" y="432.32" width="13.50" height="47.68" fill="#4C78A8"/>
<rect x="215.00" y="421.32" width="13.50" height="58.68" fill="#4C78A8"/>
<rect x="229.50" y="439.04" width="13.50" height="40.96" fill="#4C78A8"/>
<rect x="244.00" y="393.50" width="13.50" height="86.50" fill="#4C78A8"/>
<rect x="258.50" y="441.79" width="13.50" height="38.21" fill="#4C78A8"/>
<rect x="273.00" y="437.21" width="13.50" height="42.79" fill="#4C78A8"/>
<rect x="287.50" y="429.26" width="13.50" height="50.74" fill="#4C78A8"/>
<rect x="302.00" y="444.85" width="13.50" height="35.15" fill="#4C78A8"/>
<rect x="316.50" y="443.32" width="13.50" height="36.68" fill="#4C78A8"/>
<rect x="331.00" y="448.82" width="13.50" height="31.18" fill="#4C78A8"/>
<rect x="345.50" y="451.57" width="13.50" height="28.43" fill="#4C78A8"/>
<rect x="360.00" y="470.83" width="13.50" height="9.17" fill="#4C78A8"/>
<rect x="374.50" y="293.25" width="13.50" height="186.75" fill="#4C78A8"/>
<rect x="389.00" y="475.42" width="13.50" height="4.58" fill="#4C78A8"/>
<rect x="403.50" y="474.50" width="13.50" height="5.50" fill="#4C78A8"/>
<rect x="418.00" y="478.17" width="13.50" height="1.83" fill="#4C78A8"/>
<rect x="432.50" y="476.64" width="13.50" height="3.36" fill="#4C78A8"/>
<rect x="447.00" y="477.86" width="13.50" height="2.14" fill="#4C78A8"/>
<rect x="461.50" y="477.86" width="13.50" height="2.14" fill="#4C78A8"/>
<rect x="476.00" y="477.55" width="13.50" height="2.45" fill="#4C78A8"/>
<rect x="490.50" y="478.78" width="13.50" height="1.22" fill="#4C78A8"/>
<rect x="505.00" y="479.39" width="13.50" height="0.61" fill="#4C78A8"/>
<rect x="519.50" y="478.78" width="13.50" height="1.22" fill="#4C78A8"/>
<rect x="534.00" y="480.00" width="13.50" height="0.00" fill="#4C78A8"/>
<rect x="548.50" y="479.69" width="13.50" height="0.31" fill="#4C78A8"/>
<rect x="563.00" y="479.39" width="13.50" height="0.61" fill="#4C78A8"/>
<rect x="577.50" y="479.69" width="13.50" height="0.31" fill="#4C78A8"/>
<rect x="592.00" y="479.69" width="13.50" height="0.31" fill="#4C78A8"/>
<rect x="606.50" y="480.00" width="13.50" height="0.00" fill="#4C78A8"/>
<rect x="621.00" y="479.39" width="13.50" height="0.61" fill="#4C78A8"/>
<rect x="635.50" y="479.69" width="13.50" height="0.31" fill="#4C78A8"/>
<rect x="650.00" y="480.00" width="13.50" height="0.00" fill="#4C78A8"/>
<rect x="664.50" y="480.00" width="13.50" height="0.00" fill="#4C78A8"/>
<rect x="679.00" y="479.69" width="13.50" height="0.31" fill="#4C78A8"/>
<rect x="693.50" y="480.00" width="13.50" height="0.00" fill="#4C78A8"/>
<rect x="708.00" y="480.00" width="13.50" height="0.00" fill="#4C78A8"/>
<rect x="722.50" y="480.00" width="13.50" height="0.00" fill="#4C78A8"/>
<rect x="737.00" y="480.00" width="13.50" height="0.00" fill="#4C78A8"/>
<rect x="751.50" y="480.00" width="13.50" height="0.00" fill="#4C78A8"/>
<rect x="766.00" y="480.00" width="13.50" height="0.00" fill="#4C78A8"/>
<rect x="780.50" y="480.00" width="13.50" height="0.00" fill="#4C78A8"/>
<rect x="795.00" y="480.00" width="13.50" height="0.00" fill="#4C78A8"/>
<rect x="809.50" y="480.00" width="13.50" height="0.00" fill="#4C78A8"/>
<rect x="824.00" y="480.00" width="13.50" height="0.00" fill="#4C78A8"/>
<rect x="838.50" y="480.00" width="13.50" height="0.00" fill="#4C78A8"/>
<rect x="853.00" y="480.00" width="13.50" height="0.00" fill="#4C78A8"/>
<rect x="867.50" y="480.00" width="13.50" height="0.00" fill="#4C78A8"/>
<rect x="882.00" y="480.00" width="13.50" height="0.00" fill="#4C78A8"/>
<rect x="896.50" y="480.00" width="13.50" height="0.00" fill="#4C78A8"/>
<rect x="911.00" y="480.00" width="13.50" height="0.00" fill="#4C78A8"/>
<rect x="925.50" y="480.00" width="13.50" height="0.00" fill="#4C78A8"/>
<text x="480.00" y="28" text-anchor="middle" font-family="system-ui, -apple-system, Segoe UI, Roboto, Helvetica, Arial, sans-serif" font-size="18" fill="#222222">lag_days histogram (severity=INFO, n=7430)</text>
<text x="480.00" y="48" text-anchor="middle" font-family="system-ui, -apple-system, Segoe UI, Roboto, Helvetica, Arial, sans-serif" font-size="12" fill="#222222">bins=60, x_max=3181, y_scale=linear</text>
<text x="480.00" y="520" text-anchor="middle" font-family="system-ui, -apple-system, Segoe UI, Roboto, Helvetica, Arial, sans-serif" font-size="14" fill="#222222">lag_days</text>
<text x="18" y="270.00" text-anchor="middle" font-family="system-ui, -apple-system, Segoe UI, Roboto, Helvetica, Arial, sans-serif" font-size="14" fill="#222222" transform="rotate(-90 18 270.00)">count</text>
</svg>
