<svg xmlns="http://www.w3.org/2000/svg" width="960" height="540" viewBox="0 0 960 540">
<rect x="0" y="0" width="960" height="540" fill="white"/>
<line x1="70" y1="480.00" x2="940" y2="480.00" stroke="#E6E6E6" stroke-width="1"/>
<text x="60" y="484.00" text-anchor="end" font-family="system-ui, -apple-system, Segoe UI, Roboto, Helvetica, Arial, sans-serif" font-size="12" fill="#222222">0</text>
<line x1="70" y1="338.24" x2="940" y2="338.24" stroke="#E6E6E6" stroke-width="1"/>
<text x="60" y="342.24" text-anchor="end" font-family="system-ui, -apple-system, Segoe UI, Roboto, Helvetica, Arial, sans-serif" font-size="12" fill="#222222">200</text>
<line x1="70" y1="196.49" x2="940" y2="196.49" stroke="#E6E6E6" stroke-width="1"/>
<text x="60" y="200.49" text-anchor="end" font-family="system-ui, -apple-system, Segoe UI, Roboto, Helvetica, Arial, sans-serif" font-size="12" fill="#222222">400</text>
<line x1="70" y1="54.73" x2="940" y2="54.73" stroke="#E6E6E6" stroke-width="1"/>
<text x="60" y="58.73" text-anchor="end" font-family="system-ui, -apple-system, Segoe UI, Roboto, Helvetica, Arial, sans-serif" font-size="12" fill="#222222">600</text>
<line x1="70" y1="-87.03" x2="940" y2="-87.03" stroke="#E6E6E6" stroke-width="1"/>
<text x="60" y="-83.03" text-anchor="end" font-family="system-ui, -apple-system, Segoe UI, Roboto, Helvetica, Arial, sans-serif" font-size="12" fill="#222222">800</text>
<line x1="70.00" y1="20" x2="70.00" y2="480" stroke="#E6E6E6" stroke-width="1"/>
<text x="70.00" y="500" text-anchor="middle" font-family="system-ui, -apple-system, Segoe UI, Roboto, Helvetica, Arial, sans-serif" font-size="12" fill="#222222">0</text>
<line x1="343.50" y1="20" x2="343.50" y2="480" stroke="#E6E6E6" stroke-width="1"/>
<text x="343.50" y="500" text-anchor="middle" font-family="system-ui, -apple-system, Segoe UI, Roboto, Helvetica, Arial, sans-serif" font-size="12" fill="#222222">1000</text>
<line x1="617.00" y1="20" x2="617.00" y2="480" stroke="#E6E6E6" stroke-width="1"/>
<text x="617.00" y="500" text-anchor="middle" font-family="system-ui, -apple-system, Segoe UI, Roboto, Helvetica, Arial, sans-serif" font-size="12" fill="#222222">2000</text>
<line x1="890.50" y1="20" x2="890.50" y2="480" stroke="#E6E6E6" stroke-width="1"/>
<text x="890.50" y="500" text-anchor="middle" font-family="system-ui, -apple-system, Segoe UI, Roboto, Helvetica, Arial, sans-serif" font-size="12" fill="#222222">3000</text>
<line x1="1164.00" y1="20" x2="1164.00" y2="480" stroke="#E6E6E6" stroke-width="1"/>
<text x="1164.00" y="500" text-anchor="middle" font-family="system-ui, -apple-system, Segoe UI, Roboto, Helvetica, Arial, sans-serif" font-size="12" fill="#222222">4000</text>
<line x1="70" y1="480" x2="940" y2="480" stroke="#222222" stroke-width="1.5"/>
<line x1="70" y1="20" x2="70" y2="480" stroke="#222222" stroke-width="1.5"/>
<rect x="70.00" y="78.83" width="13.50" height="401.17" fill="#4C78A8"/>
<rect x="84.50" y="264.53" width="13.50" height="215.47" fill="#4C78A8"/>
<rect x="99.00" y="319.82" width="13.50" height="160.18" fill="#4C78A8"/>
<rect x="113.50" y="307.77" width="13.50" height="172.23" fill="#4C78A8"/>
<rect x="128.00" y="373.68" width="13.50" height="106.32" fill="#4C78A8"/>
<rect x="142.50" y="392.82" width="13.50" height="87.18" fill="#4C78A8"/>
<rect x="157.00" y="422.59" width="13.50" height="57.41" fill="#4C78A8"/>
<rect x="171.50" y="412.67" width="13.50" height="67.33" fill="#4C78A8"/>
<rect x="186.00" y="429.68" width="13.50" height="50.32" fill="#4C78A8"/>
<rect x="200.50" y="420.46" width="13.50" height="59.54" fill="#4C78A8"/>
<rect x="215.00" y="443.14" width="13.50" height="36.86" fill="#4C78A8"/>
<rect x="229.50" y="443.14" width="13.50" height="36.86" fill="#4C78A8"/>
<rect x="244.00" y="441.73" width="13.50" height="38.27" fill="#4C78A8"/>
<rect x="258.50" y="433.93" width="13.50" height="46.07" fill="#4C78A8"/>
<rect x="273.00" y="445.98" width="13.50" height="34.02" fill="#4C78A8"/>
<rect x="287.50" y="450.23" width="13.50" height="29.77" fill="#4C78A8"/>
<rect x="302.00" y="445.27" width="13.50" height="34.73" fill="#4C78A8"/>
<rect x="316.50" y="443.14" width="13.50" height="36.86" fill="#4C78A8"/>
<rect x="331.00" y="454.48" width="13.50" height="25.52" fill="#4C78A8"/>
<rect x="345.50" y="397.78" width="13.50" height="82.22" fill="#4C78A8"/>
<rect x="360.00" y="441.73" width="13.50" height="38.27" fill="#4C78A8"/>
<rect x="374.50" y="440.31" width="13.50" height="39.69" fill="#4C78A8"/>
<rect x="389.00" y="430.39" width="13.50" height="49.61" fill="#4C78A8"/>
<rect x="403.50" y="433.93" width="13.50" height="46.07" fill="#4C78A8"/>
<rect x="418.00" y="423.30" width="13.50" height="56.70" fill="#4C78A8"/>
<rect x="432.50" y="20.00" width="13.50" height="460.00" fill="#4C78A8"/>
<rect x="447.00" y="464.41" width="13.50" height="15.59" fill="#4C78A8"/>
<rect x="461.50" y="459.45" width="13.50" height="20.55" fill="#4C78A8"/>
<rect x="476.00" y="463.70" width="13.50" height="16.30" fill="#4C78A8"/>
<rect x="490.50" y="469.37" width="13.50" height="10.63" fill="#4C78A8"/>
<rect x="505.00" y="465.82" width="13.50" height="14.18" fill="#4C78A8"/>
<rect x="519.50" y="465.82" width="13.50" height="14.18" fill="#4C78A8"/>
<rect x="534.00" y="468.66" width="13.50" height="11.34" fill="#4C78A8"/>
<rect x="548.50" y="471.49" width="13.50" height="8.51" fill="#4C78A8"/>
<rect x="563.00" y="471.49" width="13.50" height="8.51" fill="#4C78A8"/>
<rect x="577.50" y="476.46" width="13.50" height="3.54" fill="#4C78A8"/>
<rect x="592.00" y="479.29" width="13.50" height="0.71" fill="#4C78A8"/>
<rect x="606.50" y="475.04" width="13.50" height="4.96" fill="#4C78A8"/>
<rect x="621.00" y="474.33" width="13.50" height="5.67" fill="#4C78A8"/>
<rect x="635.50" y="476.46" width="13.50" height="3.54" fill="#4C78A8"/>
<rect x="650.00" y="477.16" width="13.50" height="2.84" fill="#4C78A8"/>
<rect x="664.50" y="475.75" width="13.50" height="4.25" fill="#4C78A8"/>
<rect x="679.00" y="477.16" width="13.50" height="2.84" fill="#4C78A8"/>
<rect x="693.50" y="477.16" width="13.50" height="2.84" fill="#4C78A8"/>
<rect x="708.00" y="480.00" width="13.50" height="0.00" fill="#4C78A8"/>
<rect x="722.50" y="477.87" width="13.50" height="2.13" fill="#4C78A8"/>
<rect x="737.00" y="480.00" width="13.50" height="0.00" fill="#4C78A8"/>
<rect x="751.50" y="479.29" width="13.50" height="0.71" fill="#4C78A8"/>
<rect x="766.00" y="477.87" width="13.50" height="2.13" fill="#4C78A8"/>
<rect x="780.50" y="480.00" width="13.50" height="0.00" fill="#4C78A8"/>
<rect x="795.00" y="479.29" width="13.50" height="0.71" fill="#4C78A8"/>
<rect x="809.50" y="480.00" width="13.50" height="0.00" fill="#4C78A8"/>
<rect x="824.00" y="480.00" width="13.50" height="0.00" fill="#4C78A8"/>
<rect x="838.50" y="480.00" width="13.50" height="0.00" fill="#4C78A8"/>
<rect x="853.00" y="480.00" width="13.50" height="0.00" fill="#4C78A8"/>
<rect x="867.50" y="480.00" width="13.50" height="0.00" fill="#4C78A8"/>
<rect x="882.00" y="480.00" width="13.50" height="0.00" fill="#4C78A8"/>
<rect x="896.50" y="480.00" width="13.50" height="0.00" fill="#4C78A8"/>
<rect x="911.00" y="479.29" width="13.50" height="0.71" fill="#4C78A8"/>
<rect x="925.50" y="480.00" width="13.50" height="0.00" fill="#4C78A8"/>
<text x="480.00" y="28" text-anchor="middle" font-family="system-ui, -apple-system, Segoe UI, Roboto, Helvetica, Arial, sans-serif" font-size="18" fill="#222222">lag_days histogram (severity=HIGH, n=3705)</text>
<text x="480.00" y="48" text-anchor="middle" font-family="system-ui, -apple-system, Segoe UI, Roboto, Helvetica, Arial, sans-serif" font-size="12" fill="#222222">bins=60, x_max=3181, y_scale=linear</text>
<text x="480.00" y="520" text-anchor="middle" font-family="system-ui, -apple-system, Segoe UI, Roboto, Helvetica, Arial, sans-serif" font-size="14" fill="#222222">lag_days</text>
<text x="18" y="270.00" text-anchor="middle" font-family="system-ui, -apple-system, Segoe UI, Roboto, Helvetica, Arial, sans-serif" font-size="14" fill="#222222" transform="rotate(-90 18 270.00)">count</text>
</svg>
