<svg xmlns="http://www.w3.org/2000/svg" width="960" height="540" viewBox="0 0 960 540">
<rect x="0" y="0" width="960" height="540" fill="white"/>
<line x1="70.00" y1="480.00" x2="940.00" y2="480.00" stroke="#E6E6E6" stroke-width="1"/>
<text x="60.00" y="484.00" text-anchor="end" font-family="system-ui, -apple-system, Segoe UI, Roboto, Helvetica, Arial, sans-serif" font-size="12" fill="#222222">0</text>
<line x1="70.00" y1="390.85" x2="940.00" y2="390.85" stroke="#E6E6E6" stroke-width="1"/>
<text x="60.00" y="394.85" text-anchor="end" font-family="system-ui, -apple-system, Segoe UI, Roboto, Helvetica, Arial, sans-serif" font-size="12" fill="#222222">1</text>
<line x1="70.00" y1="301.69" x2="940.00" y2="301.69" stroke="#E6E6E6" stroke-width="1"/>
<text x="60.00" y="305.69" text-anchor="end" font-family="system-ui, -apple-system, Segoe UI, Roboto, Helvetica, Arial, sans-serif" font-size="12" fill="#222222">2</text>
<line x1="70.00" y1="212.54" x2="940.00" y2="212.54" stroke="#E6E6E6" stroke-width="1"/>
<text x="60.00" y="216.54" text-anchor="end" font-family="system-ui, -apple-system, Segoe UI, Roboto, Helvetica, Arial, sans-serif" font-size="12" fill="#222222">3</text>
<line x1="70.00" y1="123.39" x2="940.00" y2="123.39" stroke="#E6E6E6" stroke-width="1"/>
<text x="60.00" y="127.39" text-anchor="end" font-family="system-ui, -apple-system, Segoe UI, Roboto, Helvetica, Arial, sans-serif" font-size="12" fill="#222222">4</text>
<line x1="70.00" y1="34.23" x2="940.00" y2="34.23" stroke="#E6E6E6" stroke-width="1"/>
<text x="60.00" y="38.23" text-anchor="end" font-family="system-ui, -apple-system, Segoe UI, Roboto, Helvetica, Arial, sans-serif" font-size="12" fill="#222222">5</text>
<line x1="70.00" y1="-54.92" x2="940.00" y2="-54.92" stroke="#E6E6E6" stroke-width="1"/>
<text x="60.00" y="-50.92" text-anchor="end" font-family="system-ui, -apple-system, Segoe UI, Roboto, Helvetica, Arial, sans-serif" font-size="12" fill="#222222">6</text>
<line x1="70.00" y1="20.00" x2="70.00" y2="480.00" stroke="#E6E6E6" stroke-width="1"/>
<text x="70.00" y="500.00" text-anchor="middle" font-family="system-ui, -apple-system, Segoe UI, Roboto, Helvetica, Arial, sans-serif" font-size="12" fill="#222222">0</text>
<line x1="215.00" y1="20.00" x2="215.00" y2="480.00" stroke="#E6E6E6" stroke-width="1"/>
<text x="215.00" y="500.00" text-anchor="middle" font-family="system-ui, -apple-system, Segoe UI, Roboto, Helvetica, Arial, sans-serif" font-size="12" fill="#222222">345</text>
<line x1="360.00" y1="20.00" x2="360.00" y2="480.00" stroke="#E6E6E6" stroke-width="1"/>
<text x="360.00" y="500.00" text-anchor="middle" font-family="system-ui, -apple-system, Segoe UI, Roboto, Helvetica, Arial, sans-serif" font-size="12" fill="#222222">691</text>
<line x1="505.00" y1="20.00" x2="505.00" y2="480.00" stroke="#E6E6E6" stroke-width="1"/>
<text x="505.00" y="500.00" text-anchor="middle" font-family="system-ui, -apple-system, Segoe UI, Roboto, Helvetica, Arial, sans-serif" font-size="12" fill="#222222">1036</text>
<line x1="650.00" y1="20.00" x2="650.00" y2="480.00" stroke="#E6E6E6" stroke-width="1"/>
<text x="650.00" y="500.00" text-anchor="middle" font-family="system-ui, -apple-system, Segoe UI, Roboto, Helvetica, Arial, sans-serif" font-size="12" fill="#222222">1382</text>
<line x1="795.00" y1="20.00" x2="795.00" y2="480.00" stroke="#E6E6E6" stroke-width="1"/>
<text x="795.00" y="500.00" text-anchor="middle" font-family="system-ui, -apple-system, Segoe UI, Roboto, Helvetica, Arial, sans-serif" font-size="12" fill="#222222">1727</text>
<line x1="940.00" y1="20.00" x2="940.00" y2="480.00" stroke="#E6E6E6" stroke-width="1"/>
<text x="940.00" y="500.00" text-anchor="middle" font-family="system-ui, -apple-system, Segoe UI, Roboto, Helvetica, Arial, sans-serif" font-size="12" fill="#222222">2073</text>
<line x1="70.00" y1="480.00" x2="940.00" y2="480.00" stroke="#222222" stroke-width="1.5"/>
<line x1="70.00" y1="20.00" x2="70.00" y2="480.00" stroke="#222222" stroke-width="1.5"/>
<rect x="70.00" y="20.00" width="13.50" height="460.00" fill="#4C78A8"/>
<rect x="84.50" y="111.87" width="13.50" height="368.13" fill="#4C78A8"/>
<rect x="99.00" y="119.92" width="13.50" height="360.08" fill="#4C78A8"/>
<rect x="113.50" y="139.13" width="13.50" height="340.87" fill="#4C78A8"/>
<rect x="128.00" y="148.83" width="13.50" height="331.17" fill="#4C78A8"/>
<rect x="142.50" y="160.22" width="13.50" height="319.78" fill="#4C78A8"/>
<rect x="157.00" y="168.63" width="13.50" height="311.37" fill="#4C78A8"/>
<rect x="171.50" y="175.97" width="13.50" height="304.03" fill="#4C78A8"/>
<rect x="186.00" y="188.80" width="13.50" height="291.20" fill="#4C78A8"/>
<rect x="200.50" y="179.12" width="13.50" height="300.88" fill="#4C78A8"/>
<rect x="215.00" y="189.53" width="13.50" height="290.47" fill="#4C78A8"/>
<rect x="229.50" y="192.10" width="13.50" height="287.90" fill="#4C78A8"/>
<rect x="244.00" y="203.43" width="13.50" height="276.57" fill="#4C78A8"/>
<rect x="258.50" y="215.90" width="13.50" height="264.10" fill="#4C78A8"/>
<rect x="273.00" y="217.39" width="13.50" height="262.61" fill="#4C78A8"/>
<rect x="287.50" y="226.34" width="13.50" height="253.66" fill="#4C78A8"/>
<rect x="302.00" y="227.94" width="13.50" height="252.06" fill="#4C78A8"/>
<rect x="316.50" y="236.39" width="13.50" height="243.61" fill="#4C78A8"/>
<rect x="331.00" y="232.54" width="13.50" height="247.46" fill="#4C78A8"/>
<rect x="345.50" y="235.07" width="13.50" height="244.93" fill="#4C78A8"/>
<rect x="360.00" y="248.44" width="13.50" height="231.56" fill="#4C78A8"/>
<rect x="374.50" y="258.57" width="13.50" height="221.43" fill="#4C78A8"/>
<rect x="389.00" y="253.35" width="13.50" height="226.65" fill="#4C78A8"/>
<rect x="403.50" y="269.58" width="13.50" height="210.42" fill="#4C78A8"/>
<rect x="418.00" y="270.11" width="13.50" height="209.89" fill="#4C78A8"/>
<rect x="432.50" y="280.54" width="13.50" height="199.46" fill="#4C78A8"/>
<rect x="447.00" y="301.51" width="13.50" height="178.49" fill="#4C78A8"/>
<rect x="461.50" y="293.85" width="13.50" height="186.15" fill="#4C78A8"/>
<rect x="476.00" y="292.87" width="13.50" height="187.13" fill="#4C78A8"/>
<rect x="490.50" y="305.32" width="13.50" height="174.68" fill="#4C78A8"/>
<rect x="505.00" y="300.32" width="13.50" height="179.68" fill="#4C78A8"/>
<rect x="519.50" y="308.09" width="13.50" height="171.91" fill="#4C78A8"/>
<rect x="534.00" y="302.74" width="13.50" height="177.26" fill="#4C78A8"/>
<rect x="548.50" y="306.68" width="13.50" height="173.32" fill="#4C78A8"/>
<rect x="563.00" y="319.71" width="13.50" height="160.29" fill="#4C78A8"/>
<rect x="577.50" y="326.00" width="13.50" height="154.00" fill="#4C78A8"/>
<rect x="592.00" y="317.82" width="13.50" height="162.18" fill="#4C78A8"/>
<rect x="606.50" y="360.36" width="13.50" height="119.64" fill="#4C78A8"/>
<rect x="621.00" y="346.55" width="13.50" height="133.45" fill="#4C78A8"/>
<rect x="635.50" y="355.19" width="13.50" height="124.81" fill="#4C78A8"/>
<rect x="650.00" y="336.39" width="13.50" height="143.61" fill="#4C78A8"/>
<rect x="664.50" y="355.19" width="13.50" height="124.81" fill="#4C78A8"/>
<rect x="679.00" y="373.38" width="13.50" height="106.62" fill="#4C78A8"/>
<rect x="693.50" y="373.38" width="13.50" height="106.62" fill="#4C78A8"/>
<rect x="708.00" y="393.16" width="13.50" height="86.84" fill="#4C78A8"/>
<rect x="722.50" y="373.38" width="13.50" height="106.62" fill="#4C78A8"/>
<rect x="737.00" y="393.16" width="13.50" height="86.84" fill="#4C78A8"/>
<rect x="751.50" y="373.38" width="13.50" height="106.62" fill="#4C78A8"/>
<rect x="766.00" y="393.16" width="13.50" height="86.84" fill="#4C78A8"/>
<rect x="780.50" y="435.70" width="13.50" height="44.30" fill="#4C78A8"/>
<rect x="795.00" y="393.16" width="13.50" height="86.84" fill="#4C78A8"/>
<rect x="809.50" y="393.16" width="13.50" height="86.84" fill="#4C78A8"/>
<rect x="824.00" y="393.16" width="13.50" height="86.84" fill="#4C78A8"/>
<rect x="838.50" y="435.70" width="13.50" height="44.30" fill="#4C78A8"/>
<rect x="853.00" y="480.00" width="13.50" height="0.00" fill="#4C78A8"/>
<rect x="867.50" y="408.86" width="13.50" height="71.14" fill="#4C78A8"/>
<rect x="882.00" y="435.70" width="13.50" height="44.30" fill="#4C78A8"/>
<rect x="896.50" y="480.00" width="13.50" height="0.00" fill="#4C78A8"/>
<rect x="911.00" y="480.00" width="13.50" height="0.00" fill="#4C78A8"/>
<rect x="925.50" y="435.70" width="13.50" height="44.30" fill="#4C78A8"/>
<text x="480.00" y="28" text-anchor="middle" font-family="system-ui, -apple-system, Segoe UI, Roboto, Helvetica, Arial, sans-serif" font-size="18" fill="#222222">propagation lag_days histogram (hop=5, n=205310)</text>
<text x="480.00" y="48" text-anchor="middle" font-family="system-ui, -apple-system, Segoe UI, Roboto, Helvetica, Arial, sans-serif" font-size="12" fill="#222222">bins=60, x_max=2073, y_scale=log10</text>
<text x="480.00" y="520.00" text-anchor="middle" font-family="system-ui, -apple-system, Segoe UI, Roboto, Helvetica, Arial, sans-serif" font-size="14" fill="#222222">lag_days</text>
<text x="18" y="270.00" text-anchor="middle" font-family="system-ui, -apple-system, Segoe UI, Roboto, Helvetica, Arial, sans-serif" font-size="14" fill="#222222" transform="rotate(-90 18 270.00)">count (log10)</text>
</svg>