<svg xmlns="http://www.w3.org/2000/svg" width="960" height="540" viewBox="0 0 960 540">
<rect x="0" y="0" width="960" height="540" fill="white"/>
<line x1="70.00" y1="480.00" x2="940.00" y2="480.00" stroke="#E6E6E6" stroke-width="1"/>
<text x="60.00" y="484.00" text-anchor="end" font-family="system-ui, -apple-system, Segoe UI, Roboto, Helvetica, Arial, sans-serif" font-size="12" fill="#222222">0</text>
<line x1="70.00" y1="401.99" x2="940.00" y2="401.99" stroke="#E6E6E6" stroke-width="1"/>
<text x="60.00" y="405.99" text-anchor="end" font-family="system-ui, -apple-system, Segoe UI, Roboto, Helvetica, Arial, sans-serif" font-size="12" fill="#222222">1</text>
<line x1="70.00" y1="323.98" x2="940.00" y2="323.98" stroke="#E6E6E6" stroke-width="1"/>
<text x="60.00" y="327.98" text-anchor="end" font-family="system-ui, -apple-system, Segoe UI, Roboto, Helvetica, Arial, sans-serif" font-size="12" fill="#222222">2</text>
<line x1="70.00" y1="245.97" x2="940.00" y2="245.97" stroke="#E6E6E6" stroke-width="1"/>
<text x="60.00" y="249.97" text-anchor="end" font-family="system-ui, -apple-system, Segoe UI, Roboto, Helvetica, Arial, sans-serif" font-size="12" fill="#222222">3</text>
<line x1="70.00" y1="167.96" x2="940.00" y2="167.96" stroke="#E6E6E6" stroke-width="1"/>
<text x="60.00" y="171.96" text-anchor="end" font-family="system-ui, -apple-system, Segoe UI, Roboto, Helvetica, Arial, sans-serif" font-size="12" fill="#222222">4</text>
<line x1="70.00" y1="89.95" x2="940.00" y2="89.95" stroke="#E6E6E6" stroke-width="1"/>
<text x="60.00" y="93.95" text-anchor="end" font-family="system-ui, -apple-system, Segoe UI, Roboto, Helvetica, Arial, sans-serif" font-size="12" fill="#222222">5</text>
<line x1="70.00" y1="11.94" x2="940.00" y2="11.94" stroke="#E6E6E6" stroke-width="1"/>
<text x="60.00" y="15.94" text-anchor="end" font-family="system-ui, -apple-system, Segoe UI, Roboto, Helvetica, Arial, sans-serif" font-size="12" fill="#222222">6</text>
<line x1="70.00" y1="20.00" x2="70.00" y2="480.00" stroke="#E6E6E6" stroke-width="1"/>
<text x="70.00" y="500.00" text-anchor="middle" font-family="system-ui, -apple-system, Segoe UI, Roboto, Helvetica, Arial, sans-serif" font-size="12" fill="#222222">0</text>
<line x1="215.00" y1="20.00" x2="215.00" y2="480.00" stroke="#E6E6E6" stroke-width="1"/>
<text x="215.00" y="500.00" text-anchor="middle" font-family="system-ui, -apple-system, Segoe UI, Roboto, Helvetica, Arial, sans-serif" font-size="12" fill="#222222">530</text>
<line x1="360.00" y1="20.00" x2="360.00" y2="480.00" stroke="#E6E6E6" stroke-width="1"/>
<text x="360.00" y="500.00" text-anchor="middle" font-family="system-ui, -apple-system, Segoe UI, Roboto, Helvetica, Arial, sans-serif" font-size="12" fill="#222222">1060</text>
<line x1="505.00" y1="20.00" x2="505.00" y2="480.00" stroke="#E6E6E6" stroke-width="1"/>
<text x="505.00" y="500.00" text-anchor="middle" font-family="system-ui, -apple-system, Segoe UI, Roboto, Helvetica, Arial, sans-serif" font-size="12" fill="#222222">1590</text>
<line x1="650.00" y1="20.00" x2="650.00" y2="480.00" stroke="#E6E6E6" stroke-width="1"/>
<text x="650.00" y="500.00" text-anchor="middle" font-family="system-ui, -apple-system, Segoe UI, Roboto, Helvetica, Arial, sans-serif" font-size="12" fill="#222222">2120</text>
<line x1="795.00" y1="20.00" x2="795.00" y2="480.00" stroke="#E6E6E6" stroke-width="1"/>
<text x="795.00" y="500.00" text-anchor="middle" font-family="system-ui, -apple-system, Segoe UI, Roboto, Helvetica, Arial, sans-serif" font-size="12" fill="#222222">2650</text>
<line x1="940.00" y1="20.00" x2="940.00" y2="480.00" stroke="#E6E6E6" stroke-width="1"/>
<text x="940.00" y="500.00" text-anchor="middle" font-family="system-ui, -apple-system, Segoe UI, Roboto, Helvetica, Arial, sans-serif" font-size="12" fill="#222222">3181</text>
<line x1="70.00" y1="480.00" x2="940.00" y2="480.00" stroke="#222222" stroke-width="1.5"/>
<line x1="70.00" y1="20.00" x2="70.00" y2="480.00" stroke="#222222" stroke-width="1.5"/>
<rect x="70.00" y="20.00" width="13.50" height="460.00" fill="#4C78A8"/>
<rect x="84.50" y="94.05" width="13.50" height="385.95" fill="#4C78A8"/>
<rect x="99.00" y="106.26" width="13.50" height="373.74" fill="#4C78A8"/>
<rect x="113.50" y="122.25" width="13.50" height="357.75" fill="#4C78A8"/>
<rect x="128.00" y="135.91" width="13.50" height="344.09" fill="#4C78A8"/>
<rect x="142.50" y="132.28" width="13.50" height="347.72" fill="#4C78A8"/>
<rect x="157.00" y="142.37" width="13.50" height="337.63" fill="#4C78A8"/>
<rect x="171.50" y="158.70" width="13.50" height="321.30" fill="#4C78A8"/>
<rect x="186.00" y="156.19" width="13.50" height="323.81" fill="#4C78A8"/>
<rect x="200.50" y="171.09" width="13.50" height="308.91" fill="#4C78A8"/>
<rect x="215.00" y="181.18" width="13.50" height="298.82" fill="#4C78A8"/>
<rect x="229.50" y="186.97" width="13.50" height="293.03" fill="#4C78A8"/>
<rect x="244.00" y="181.88" width="13.50" height="298.12" fill="#4C78A8"/>
<rect x="258.50" y="198.35" width="13.50" height="281.65" fill="#4C78A8"/>
<rect x="273.00" y="203.40" width="13.50" height="276.60" fill="#4C78A8"/>
<rect x="287.50" y="212.44" width="13.50" height="267.56" fill="#4C78A8"/>
<rect x="302.00" y="215.13" width="13.50" height="264.87" fill="#4C78A8"/>
<rect x="316.50" y="223.28" width="13.50" height="256.72" fill="#4C78A8"/>
<rect x="331.00" y="227.05" width="13.50" height="252.95" fill="#4C78A8"/>
<rect x="345.50" y="233.63" width="13.50" height="246.37" fill="#4C78A8"/>
<rect x="360.00" y="240.29" width="13.50" height="239.71" fill="#4C78A8"/>
<rect x="374.50" y="228.41" width="13.50" height="251.59" fill="#4C78A8"/>
<rect x="389.00" y="219.89" width="13.50" height="260.11" fill="#4C78A8"/>
<rect x="403.50" y="251.21" width="13.50" height="228.79" fill="#4C78A8"/>
<rect x="418.00" y="256.32" width="13.50" height="223.68" fill="#4C78A8"/>
<rect x="432.50" y="235.71" width="13.50" height="244.29" fill="#4C78A8"/>
<rect x="447.00" y="257.93" width="13.50" height="222.07" fill="#4C78A8"/>
<rect x="461.50" y="269.66" width="13.50" height="210.34" fill="#4C78A8"/>
<rect x="476.00" y="234.45" width="13.50" height="245.55" fill="#4C78A8"/>
<rect x="490.50" y="287.76" width="13.50" height="192.24" fill="#4C78A8"/>
<rect x="505.00" y="296.85" width="13.50" height="183.15" fill="#4C78A8"/>
<rect x="519.50" y="299.56" width="13.50" height="180.44" fill="#4C78A8"/>
<rect x="534.00" y="305.73" width="13.50" height="174.27" fill="#4C78A8"/>
<rect x="548.50" y="309.30" width="13.50" height="170.70" fill="#4C78A8"/>
<rect x="563.00" y="309.30" width="13.50" height="170.70" fill="#4C78A8"/>
<rect x="577.50" y="323.04" width="13.50" height="156.96" fill="#4C78A8"/>
<rect x="592.00" y="336.78" width="13.50" height="143.22" fill="#4C78A8"/>
<rect x="606.50" y="336.78" width="13.50" height="143.22" fill="#4C78A8"/>
<rect x="621.00" y="346.52" width="13.50" height="133.48" fill="#4C78A8"/>
<rect x="635.50" y="360.26" width="13.50" height="119.74" fill="#4C78A8"/>
<rect x="650.00" y="360.26" width="13.50" height="119.74" fill="#4C78A8"/>
<rect x="664.50" y="360.26" width="13.50" height="119.74" fill="#4C78A8"/>
<rect x="679.00" y="383.74" width="13.50" height="96.26" fill="#4C78A8"/>
<rect x="693.50" y="383.74" width="13.50" height="96.26" fill="#4C78A8"/>
<rect x="708.00" y="383.74" width="13.50" height="96.26" fill="#4C78A8"/>
<rect x="722.50" y="383.74" width="13.50" height="96.26" fill="#4C78A8"/>
<rect x="737.00" y="383.74" width="13.50" height="96.26" fill="#4C78A8"/>
<rect x="751.50" y="383.74" width="13.50" height="96.26" fill="#4C78A8"/>
<rect x="766.00" y="383.74" width="13.50" height="96.26" fill="#4C78A8"/>
<rect x="780.50" y="480.00" width="13.50" height="0.00" fill="#4C78A8"/>
<rect x="795.00" y="480.00" width="13.50" height="0.00" fill="#4C78A8"/>
<rect x="809.50" y="383.74" width="13.50" height="96.26" fill="#4C78A8"/>
<rect x="824.00" y="383.74" width="13.50" height="96.26" fill="#4C78A8"/>
<rect x="838.50" y="480.00" width="13.50" height="0.00" fill="#4C78A8"/>
<rect x="853.00" y="480.00" width="13.50" height="0.00" fill="#4C78A8"/>
<rect x="867.50" y="480.00" width="13.50" height="0.00" fill="#4C78A8"/>
<rect x="882.00" y="480.00" width="13.50" height="0.00" fill="#4C78A8"/>
<rect x="896.50" y="480.00" width="13.50" height="0.00" fill="#4C78A8"/>
<rect x="911.00" y="480.00" width="13.50" height="0.00" fill="#4C78A8"/>
<rect x="925.50" y="480.00" width="13.50" height="0.00" fill="#4C78A8"/>
<text x="480.00" y="28" text-anchor="middle" font-family="system-ui, -apple-system, Segoe UI, Roboto, Helvetica, Arial, sans-serif" font-size="18" fill="#222222">propagation lag_days histogram (all hops, n=1128888)</text>
<text x="480.00" y="48" text-anchor="middle" font-family="system-ui, -apple-system, Segoe UI, Roboto, Helvetica, Arial, sans-serif" font-size="12" fill="#222222">bins=60, x_max=3181, y_scale=log10</text>
<text x="480.00" y="520.00" text-anchor="middle" font-family="system-ui, -apple-system, Segoe UI, Roboto, Helvetica, Arial, sans-serif" font-size="14" fill="#222222">lag_days</text>
<text x="18" y="270.00" text-anchor="middle" font-family="system-ui, -apple-system, Segoe UI, Roboto, Helvetica, Arial, sans-serif" font-size="14" fill="#222222" transform="rotate(-90 18 270.00)">count (log10)</text>
</svg>