<svg xmlns="http://www.w3.org/2000/svg" width="960" height="540" viewBox="0 0 960 540">
<rect x="0" y="0" width="960" height="540" fill="white"/>
<line x1="70.00" y1="480.00" x2="940.00" y2="480.00" stroke="#E6E6E6" stroke-width="1"/>
<text x="60.00" y="484.00" text-anchor="end" font-family="system-ui, -apple-system, Segoe UI, Roboto, Helvetica, Arial, sans-serif" font-size="12" fill="#222222">0</text>
<line x1="70.00" y1="365.35" x2="940.00" y2="365.35" stroke="#E6E6E6" stroke-width="1"/>
<text x="60.00" y="369.35" text-anchor="end" font-family="system-ui, -apple-system, Segoe UI, Roboto, Helvetica, Arial, sans-serif" font-size="12" fill="#222222">1</text>
<line x1="70.00" y1="250.70" x2="940.00" y2="250.70" stroke="#E6E6E6" stroke-width="1"/>
<text x="60.00" y="254.70" text-anchor="end" font-family="system-ui, -apple-system, Segoe UI, Roboto, Helvetica, Arial, sans-serif" font-size="12" fill="#222222">2</text>
<line x1="70.00" y1="136.05" x2="940.00" y2="136.05" stroke="#E6E6E6" stroke-width="1"/>
<text x="60.00" y="140.05" text-anchor="end" font-family="system-ui, -apple-system, Segoe UI, Roboto, Helvetica, Arial, sans-serif" font-size="12" fill="#222222">3</text>
<line x1="70.00" y1="21.40" x2="940.00" y2="21.40" stroke="#E6E6E6" stroke-width="1"/>
<text x="60.00" y="25.40" text-anchor="end" font-family="system-ui, -apple-system, Segoe UI, Roboto, Helvetica, Arial, sans-serif" font-size="12" fill="#222222">4</text>
<line x1="70.00" y1="-93.25" x2="940.00" y2="-93.25" stroke="#E6E6E6" stroke-width="1"/>
<text x="60.00" y="-89.25" text-anchor="end" font-family="system-ui, -apple-system, Segoe UI, Roboto, Helvetica, Arial, sans-serif" font-size="12" fill="#222222">5</text>
<line x1="70.00" y1="20.00" x2="70.00" y2="480.00" stroke="#E6E6E6" stroke-width="1"/>
<text x="70.00" y="500.00" text-anchor="middle" font-family="system-ui, -apple-system, Segoe UI, Roboto, Helvetica, Arial, sans-serif" font-size="12" fill="#222222">0</text>
<line x1="215.00" y1="20.00" x2="215.00" y2="480.00" stroke="#E6E6E6" stroke-width="1"/>
<text x="215.00" y="500.00" text-anchor="middle" font-family="system-ui, -apple-system, Segoe UI, Roboto, Helvetica, Arial, sans-serif" font-size="12" fill="#222222">251</text>
<line x1="360.00" y1="20.00" x2="360.00" y2="480.00" stroke="#E6E6E6" stroke-width="1"/>
<text x="360.00" y="500.00" text-anchor="middle" font-family="system-ui, -apple-system, Segoe UI, Roboto, Helvetica, Arial, sans-serif" font-size="12" fill="#222222">502</text>
<line x1="505.00" y1="20.00" x2="505.00" y2="480.00" stroke="#E6E6E6" stroke-width="1"/>
<text x="505.00" y="500.00" text-anchor="middle" font-family="system-ui, -apple-system, Segoe UI, Roboto, Helvetica, Arial, sans-serif" font-size="12" fill="#222222">754</text>
<line x1="650.00" y1="20.00" x2="650.00" y2="480.00" stroke="#E6E6E6" stroke-width="1"/>
<text x="650.00" y="500.00" text-anchor="middle" font-family="system-ui, -apple-system, Segoe UI, Roboto, Helvetica, Arial, sans-serif" font-size="12" fill="#222222">1005</text>
<line x1="795.00" y1="20.00" x2="795.00" y2="480.00" stroke="#E6E6E6" stroke-width="1"/>
<text x="795.00" y="500.00" text-anchor="middle" font-family="system-ui, -apple-system, Segoe UI, Roboto, Helvetica, Arial, sans-serif" font-size="12" fill="#222222">1256</text>
<line x1="940.00" y1="20.00" x2="940.00" y2="480.00" stroke="#E6E6E6" stroke-width="1"/>
<text x="940.00" y="500.00" text-anchor="middle" font-family="system-ui, -apple-system, Segoe UI, Roboto, Helvetica, Arial, sans-serif" font-size="12" fill="#222222">1508</text>
<line x1="70.00" y1="480.00" x2="940.00" y2="480.00" stroke="#222222" stroke-width="1.5"/>
<line x1="70.00" y1="20.00" x2="70.00" y2="480.00" stroke="#222222" stroke-width="1.5"/>
<rect x="70.00" y="20.00" width="13.50" height="460.00" fill="#4C78A8"/>
<rect x="84.50" y="181.87" width="13.50" height="298.13" fill="#4C78A8"/>
<rect x="99.00" y="195.07" width="13.50" height="284.93" fill="#4C78A8"/>
<rect x="113.50" y="205.22" width="13.50" height="274.78" fill="#4C78A8"/>
<rect x="128.00" y="206.90" width="13.50" height="273.10" fill="#4C78A8"/>
<rect x="142.50" y="228.47" width="13.50" height="251.53" fill="#4C78A8"/>
<rect x="157.00" y="250.28" width="13.50" height="229.72" fill="#4C78A8"/>
<rect x="171.50" y="236.07" width="13.50" height="243.93" fill="#4C78A8"/>
<rect x="186.00" y="257.78" width="13.50" height="222.22" fill="#4C78A8"/>
<rect x="200.50" y="280.87" width="13.50" height="199.13" fill="#4C78A8"/>
<rect x="215.00" y="283.81" width="13.50" height="196.19" fill="#4C78A8"/>
<rect x="229.50" y="313.78" width="13.50" height="166.22" fill="#4C78A8"/>
<rect x="244.00" y="299.75" width="13.50" height="180.25" fill="#4C78A8"/>
<rect x="258.50" y="302.51" width="13.50" height="177.49" fill="#4C78A8"/>
<rect x="273.00" y="297.14" width="13.50" height="182.86" fill="#4C78A8"/>
<rect x="287.50" y="332.80" width="13.50" height="147.20" fill="#4C78A8"/>
<rect x="302.00" y="330.53" width="13.50" height="149.47" fill="#4C78A8"/>
<rect x="316.50" y="369.68" width="13.50" height="110.32" fill="#4C78A8"/>
<rect x="331.00" y="355.97" width="13.50" height="124.03" fill="#4C78A8"/>
<rect x="345.50" y="317.47" width="13.50" height="162.53" fill="#4C78A8"/>
<rect x="360.00" y="382.02" width="13.50" height="97.98" fill="#4C78A8"/>
<rect x="374.50" y="390.48" width="13.50" height="89.52" fill="#4C78A8"/>
<rect x="389.00" y="344.49" width="13.50" height="135.51" fill="#4C78A8"/>
<rect x="403.50" y="344.49" width="13.50" height="135.51" fill="#4C78A8"/>
<rect x="418.00" y="423.18" width="13.50" height="56.82" fill="#4C78A8"/>
<rect x="432.50" y="376.16" width="13.50" height="103.84" fill="#4C78A8"/>
<rect x="447.00" y="390.48" width="13.50" height="89.52" fill="#4C78A8"/>
<rect x="461.50" y="382.02" width="13.50" height="97.98" fill="#4C78A8"/>
<rect x="476.00" y="445.18" width="13.50" height="34.82" fill="#4C78A8"/>
<rect x="490.50" y="398.46" width="13.50" height="81.54" fill="#4C78A8"/>
<rect x="505.00" y="376.16" width="13.50" height="103.84" fill="#4C78A8"/>
<rect x="519.50" y="369.68" width="13.50" height="110.32" fill="#4C78A8"/>
<rect x="534.00" y="423.18" width="13.50" height="56.82" fill="#4C78A8"/>
<rect x="548.50" y="474.45" width="13.50" height="5.55" fill="#4C78A8"/>
<rect x="563.00" y="474.45" width="13.50" height="5.55" fill="#4C78A8"/>
<rect x="577.50" y="365.04" width="13.50" height="114.96" fill="#4C78A8"/>
<rect x="592.00" y="474.45" width="13.50" height="5.55" fill="#4C78A8"/>
<rect x="606.50" y="445.18" width="13.50" height="34.82" fill="#4C78A8"/>
<rect x="621.00" y="445.18" width="13.50" height="34.82" fill="#4C78A8"/>
<rect x="635.50" y="445.18" width="13.50" height="34.82" fill="#4C78A8"/>
<rect x="650.00" y="445.18" width="13.50" height="34.82" fill="#4C78A8"/>
<rect x="664.50" y="474.45" width="13.50" height="5.55" fill="#4C78A8"/>
<rect x="679.00" y="480.00" width="13.50" height="0.00" fill="#4C78A8"/>
<rect x="693.50" y="445.18" width="13.50" height="34.82" fill="#4C78A8"/>
<rect x="708.00" y="474.45" width="13.50" height="5.55" fill="#4C78A8"/>
<rect x="722.50" y="445.18" width="13.50" height="34.82" fill="#4C78A8"/>
<rect x="737.00" y="474.45" width="13.50" height="5.55" fill="#4C78A8"/>
<rect x="751.50" y="445.18" width="13.50" height="34.82" fill="#4C78A8"/>
<rect x="766.00" y="474.45" width="13.50" height="5.55" fill="#4C78A8"/>
<rect x="780.50" y="445.18" width="13.50" height="34.82" fill="#4C78A8"/>
<rect x="795.00" y="445.18" width="13.50" height="34.82" fill="#4C78A8"/>
<rect x="809.50" y="480.00" width="13.50" height="0.00" fill="#4C78A8"/>
<rect x="824.00" y="480.00" width="13.50" height="0.00" fill="#4C78A8"/>
<rect x="838.50" y="480.00" width="13.50" height="0.00" fill="#4C78A8"/>
<rect x="853.00" y="423.18" width="13.50" height="56.82" fill="#4C78A8"/>
<rect x="867.50" y="480.00" width="13.50" height="0.00" fill="#4C78A8"/>
<rect x="882.00" y="480.00" width="13.50" height="0.00" fill="#4C78A8"/>
<rect x="896.50" y="474.45" width="13.50" height="5.55" fill="#4C78A8"/>
<rect x="911.00" y="474.45" width="13.50" height="5.55" fill="#4C78A8"/>
<rect x="925.50" y="474.45" width="13.50" height="5.55" fill="#4C78A8"/>
<text x="480.00" y="28" text-anchor="middle" font-family="system-ui, -apple-system, Segoe UI, Roboto, Helvetica, Arial, sans-serif" font-size="18" fill="#222222">propagation lag_days histogram (hop=10, n=12317)</text>
<text x="480.00" y="48" text-anchor="middle" font-family="system-ui, -apple-system, Segoe UI, Roboto, Helvetica, Arial, sans-serif" font-size="12" fill="#222222">bins=60, x_max=1508, y_scale=log10</text>
<text x="480.00" y="520.00" text-anchor="middle" font-family="system-ui, -apple-system, Segoe UI, Roboto, Helvetica, Arial, sans-serif" font-size="14" fill="#222222">lag_days</text>
<text x="18" y="270.00" text-anchor="middle" font-family="system-ui, -apple-system, Segoe UI, Roboto, Helvetica, Arial, sans-serif" font-size="14" fill="#222222" transform="rotate(-90 18 270.00)">count (log10)</text>
</svg>