<svg xmlns="http://www.w3.org/2000/svg" width="960" height="540" viewBox="0 0 960 540">
<rect x="0" y="0" width="960" height="540" fill="white"/>
<line x1="70.00" y1="480.00" x2="940.00" y2="480.00" stroke="#E6E6E6" stroke-width="1"/>
<text x="60.00" y="484.00" text-anchor="end" font-family="system-ui, -apple-system, Segoe UI, Roboto, Helvetica, Arial, sans-serif" font-size="12" fill="#222222">0</text>
<line x1="70.00" y1="386.61" x2="940.00" y2="386.61" stroke="#E6E6E6" stroke-width="1"/>
<text x="60.00" y="390.61" text-anchor="end" font-family="system-ui, -apple-system, Segoe UI, Roboto, Helvetica, Arial, sans-serif" font-size="12" fill="#222222">1</text>
<line x1="70.00" y1="293.23" x2="940.00" y2="293.23" stroke="#E6E6E6" stroke-width="1"/>
<text x="60.00" y="297.23" text-anchor="end" font-family="system-ui, -apple-system, Segoe UI, Roboto, Helvetica, Arial, sans-serif" font-size="12" fill="#222222">2</text>
<line x1="70.00" y1="199.84" x2="940.00" y2="199.84" stroke="#E6E6E6" stroke-width="1"/>
<text x="60.00" y="203.84" text-anchor="end" font-family="system-ui, -apple-system, Segoe UI, Roboto, Helvetica, Arial, sans-serif" font-size="12" fill="#222222">3</text>
<line x1="70.00" y1="106.46" x2="940.00" y2="106.46" stroke="#E6E6E6" stroke-width="1"/>
<text x="60.00" y="110.46" text-anchor="end" font-family="system-ui, -apple-system, Segoe UI, Roboto, Helvetica, Arial, sans-serif" font-size="12" fill="#222222">4</text>
<line x1="70.00" y1="13.07" x2="940.00" y2="13.07" stroke="#E6E6E6" stroke-width="1"/>
<text x="60.00" y="17.07" text-anchor="end" font-family="system-ui, -apple-system, Segoe UI, Roboto, Helvetica, Arial, sans-serif" font-size="12" fill="#222222">5</text>
<line x1="70.00" y1="20.00" x2="70.00" y2="480.00" stroke="#E6E6E6" stroke-width="1"/>
<text x="70.00" y="500.00" text-anchor="middle" font-family="system-ui, -apple-system, Segoe UI, Roboto, Helvetica, Arial, sans-serif" font-size="12" fill="#222222">0</text>
<line x1="215.00" y1="20.00" x2="215.00" y2="480.00" stroke="#E6E6E6" stroke-width="1"/>
<text x="215.00" y="500.00" text-anchor="middle" font-family="system-ui, -apple-system, Segoe UI, Roboto, Helvetica, Arial, sans-serif" font-size="12" fill="#222222">297</text>
<line x1="360.00" y1="20.00" x2="360.00" y2="480.00" stroke="#E6E6E6" stroke-width="1"/>
<text x="360.00" y="500.00" text-anchor="middle" font-family="system-ui, -apple-system, Segoe UI, Roboto, Helvetica, Arial, sans-serif" font-size="12" fill="#222222">595</text>
<line x1="505.00" y1="20.00" x2="505.00" y2="480.00" stroke="#E6E6E6" stroke-width="1"/>
<text x="505.00" y="500.00" text-anchor="middle" font-family="system-ui, -apple-system, Segoe UI, Roboto, Helvetica, Arial, sans-serif" font-size="12" fill="#222222">893</text>
<line x1="650.00" y1="20.00" x2="650.00" y2="480.00" stroke="#E6E6E6" stroke-width="1"/>
<text x="650.00" y="500.00" text-anchor="middle" font-family="system-ui, -apple-system, Segoe UI, Roboto, Helvetica, Arial, sans-serif" font-size="12" fill="#222222">1191</text>
<line x1="795.00" y1="20.00" x2="795.00" y2="480.00" stroke="#E6E6E6" stroke-width="1"/>
<text x="795.00" y="500.00" text-anchor="middle" font-family="system-ui, -apple-system, Segoe UI, Roboto, Helvetica, Arial, sans-serif" font-size="12" fill="#222222">1489</text>
<line x1="940.00" y1="20.00" x2="940.00" y2="480.00" stroke="#E6E6E6" stroke-width="1"/>
<text x="940.00" y="500.00" text-anchor="middle" font-family="system-ui, -apple-system, Segoe UI, Roboto, Helvetica, Arial, sans-serif" font-size="12" fill="#222222">1787</text>
<line x1="70.00" y1="480.00" x2="940.00" y2="480.00" stroke="#222222" stroke-width="1.5"/>
<line x1="70.00" y1="20.00" x2="70.00" y2="480.00" stroke="#222222" stroke-width="1.5"/>
<rect x="70.00" y="20.00" width="13.50" height="460.00" fill="#4C78A8"/>
<rect x="84.50" y="122.07" width="13.50" height="357.93" fill="#4C78A8"/>
<rect x="99.00" y="140.61" width="13.50" height="339.39" fill="#4C78A8"/>
<rect x="113.50" y="154.14" width="13.50" height="325.86" fill="#4C78A8"/>
<rect x="128.00" y="152.40" width="13.50" height="327.60" fill="#4C78A8"/>
<rect x="142.50" y="146.08" width="13.50" height="333.92" fill="#4C78A8"/>
<rect x="157.00" y="179.91" width="13.50" height="300.09" fill="#4C78A8"/>
<rect x="171.50" y="192.75" width="13.50" height="287.25" fill="#4C78A8"/>
<rect x="186.00" y="206.42" width="13.50" height="273.58" fill="#4C78A8"/>
<rect x="200.50" y="174.67" width="13.50" height="305.33" fill="#4C78A8"/>
<rect x="215.00" y="222.26" width="13.50" height="257.74" fill="#4C78A8"/>
<rect x="229.50" y="187.87" width="13.50" height="292.13" fill="#4C78A8"/>
<rect x="244.00" y="230.07" width="13.50" height="249.93" fill="#4C78A8"/>
<rect x="258.50" y="235.77" width="13.50" height="244.23" fill="#4C78A8"/>
<rect x="273.00" y="239.75" width="13.50" height="240.25" fill="#4C78A8"/>
<rect x="287.50" y="258.97" width="13.50" height="221.03" fill="#4C78A8"/>
<rect x="302.00" y="255.02" width="13.50" height="224.98" fill="#4C78A8"/>
<rect x="316.50" y="272.04" width="13.50" height="207.96" fill="#4C78A8"/>
<rect x="331.00" y="286.13" width="13.50" height="193.87" fill="#4C78A8"/>
<rect x="345.50" y="279.26" width="13.50" height="200.74" fill="#4C78A8"/>
<rect x="360.00" y="292.91" width="13.50" height="187.09" fill="#4C78A8"/>
<rect x="374.50" y="301.05" width="13.50" height="178.95" fill="#4C78A8"/>
<rect x="389.00" y="303.84" width="13.50" height="176.16" fill="#4C78A8"/>
<rect x="403.50" y="324.89" width="13.50" height="155.11" fill="#4C78A8"/>
<rect x="418.00" y="324.89" width="13.50" height="155.11" fill="#4C78A8"/>
<rect x="432.50" y="324.89" width="13.50" height="155.11" fill="#4C78A8"/>
<rect x="447.00" y="331.96" width="13.50" height="148.04" fill="#4C78A8"/>
<rect x="461.50" y="371.10" width="13.50" height="108.90" fill="#4C78A8"/>
<rect x="476.00" y="290.06" width="13.50" height="189.94" fill="#4C78A8"/>
<rect x="490.50" y="348.40" width="13.50" height="131.60" fill="#4C78A8"/>
<rect x="505.00" y="283.13" width="13.50" height="196.87" fill="#4C78A8"/>
<rect x="519.50" y="382.76" width="13.50" height="97.24" fill="#4C78A8"/>
<rect x="534.00" y="410.88" width="13.50" height="69.12" fill="#4C78A8"/>
<rect x="548.50" y="399.21" width="13.50" height="80.79" fill="#4C78A8"/>
<rect x="563.00" y="427.32" width="13.50" height="52.68" fill="#4C78A8"/>
<rect x="577.50" y="410.88" width="13.50" height="69.12" fill="#4C78A8"/>
<rect x="592.00" y="358.18" width="13.50" height="121.82" fill="#4C78A8"/>
<rect x="606.50" y="376.51" width="13.50" height="103.49" fill="#4C78A8"/>
<rect x="621.00" y="410.88" width="13.50" height="69.12" fill="#4C78A8"/>
<rect x="635.50" y="455.43" width="13.50" height="24.57" fill="#4C78A8"/>
<rect x="650.00" y="371.10" width="13.50" height="108.90" fill="#4C78A8"/>
<rect x="664.50" y="410.88" width="13.50" height="69.12" fill="#4C78A8"/>
<rect x="679.00" y="410.88" width="13.50" height="69.12" fill="#4C78A8"/>
<rect x="693.50" y="410.88" width="13.50" height="69.12" fill="#4C78A8"/>
<rect x="708.00" y="455.43" width="13.50" height="24.57" fill="#4C78A8"/>
<rect x="722.50" y="455.43" width="13.50" height="24.57" fill="#4C78A8"/>
<rect x="737.00" y="410.88" width="13.50" height="69.12" fill="#4C78A8"/>
<rect x="751.50" y="455.43" width="13.50" height="24.57" fill="#4C78A8"/>
<rect x="766.00" y="455.43" width="13.50" height="24.57" fill="#4C78A8"/>
<rect x="780.50" y="455.43" width="13.50" height="24.57" fill="#4C78A8"/>
<rect x="795.00" y="427.32" width="13.50" height="52.68" fill="#4C78A8"/>
<rect x="809.50" y="480.00" width="13.50" height="0.00" fill="#4C78A8"/>
<rect x="824.00" y="455.43" width="13.50" height="24.57" fill="#4C78A8"/>
<rect x="838.50" y="455.43" width="13.50" height="24.57" fill="#4C78A8"/>
<rect x="853.00" y="480.00" width="13.50" height="0.00" fill="#4C78A8"/>
<rect x="867.50" y="455.43" width="13.50" height="24.57" fill="#4C78A8"/>
<rect x="882.00" y="480.00" width="13.50" height="0.00" fill="#4C78A8"/>
<rect x="896.50" y="480.00" width="13.50" height="0.00" fill="#4C78A8"/>
<rect x="911.00" y="455.43" width="13.50" height="24.57" fill="#4C78A8"/>
<rect x="925.50" y="455.43" width="13.50" height="24.57" fill="#4C78A8"/>
<text x="480.00" y="28" text-anchor="middle" font-family="system-ui, -apple-system, Segoe UI, Roboto, Helvetica, Arial, sans-serif" font-size="18" fill="#222222">propagation lag_days histogram (hop=7, n=114918)</text>
<text x="480.00" y="48" text-anchor="middle" font-family="system-ui, -apple-system, Segoe UI, Roboto, Helvetica, Arial, sans-serif" font-size="12" fill="#222222">bins=60, x_max=1787, y_scale=log10</text>
<text x="480.00" y="520.00" text-anchor="middle" font-family="system-ui, -apple-system, Segoe UI, Roboto, Helvetica, Arial, sans-serif" font-size="14" fill="#222222">lag_days</text>
<text x="18" y="270.00" text-anchor="middle" font-family="system-ui, -apple-system, Segoe UI, Roboto, Helvetica, Arial, sans-serif" font-size="14" fill="#222222" transform="rotate(-90 18 270.00)">count (log10)</text>
</svg>