<svg xmlns="http://www.w3.org/2000/svg" width="960" height="540" viewBox="0 0 960 540">
<rect x="0" y="0" width="960" height="540" fill="white"/>
<line x1="70.00" y1="480.00" x2="940.00" y2="480.00" stroke="#E6E6E6" stroke-width="1"/>
<text x="60.00" y="484.00" text-anchor="end" font-family="system-ui, -apple-system, Segoe UI, Roboto, Helvetica, Arial, sans-serif" font-size="12" fill="#222222">0</text>
<line x1="70.00" y1="335.70" x2="940.00" y2="335.70" stroke="#E6E6E6" stroke-width="1"/>
<text x="60.00" y="339.70" text-anchor="end" font-family="system-ui, -apple-system, Segoe UI, Roboto, Helvetica, Arial, sans-serif" font-size="12" fill="#222222">1</text>
<line x1="70.00" y1="191.39" x2="940.00" y2="191.39" stroke="#E6E6E6" stroke-width="1"/>
<text x="60.00" y="195.39" text-anchor="end" font-family="system-ui, -apple-system, Segoe UI, Roboto, Helvetica, Arial, sans-serif" font-size="12" fill="#222222">2</text>
<line x1="70.00" y1="47.09" x2="940.00" y2="47.09" stroke="#E6E6E6" stroke-width="1"/>
<text x="60.00" y="51.09" text-anchor="end" font-family="system-ui, -apple-system, Segoe UI, Roboto, Helvetica, Arial, sans-serif" font-size="12" fill="#222222">3</text>
<line x1="70.00" y1="-97.22" x2="940.00" y2="-97.22" stroke="#E6E6E6" stroke-width="1"/>
<text x="60.00" y="-93.22" text-anchor="end" font-family="system-ui, -apple-system, Segoe UI, Roboto, Helvetica, Arial, sans-serif" font-size="12" fill="#222222">4</text>
<line x1="70.00" y1="20.00" x2="70.00" y2="480.00" stroke="#E6E6E6" stroke-width="1"/>
<text x="70.00" y="500.00" text-anchor="middle" font-family="system-ui, -apple-system, Segoe UI, Roboto, Helvetica, Arial, sans-serif" font-size="12" fill="#222222">0</text>
<line x1="215.00" y1="20.00" x2="215.00" y2="480.00" stroke="#E6E6E6" stroke-width="1"/>
<text x="215.00" y="500.00" text-anchor="middle" font-family="system-ui, -apple-system, Segoe UI, Roboto, Helvetica, Arial, sans-serif" font-size="12" fill="#222222">116</text>
<line x1="360.00" y1="20.00" x2="360.00" y2="480.00" stroke="#E6E6E6" stroke-width="1"/>
<text x="360.00" y="500.00" text-anchor="middle" font-family="system-ui, -apple-system, Segoe UI, Roboto, Helvetica, Arial, sans-serif" font-size="12" fill="#222222">233</text>
<line x1="505.00" y1="20.00" x2="505.00" y2="480.00" stroke="#E6E6E6" stroke-width="1"/>
<text x="505.00" y="500.00" text-anchor="middle" font-family="system-ui, -apple-system, Segoe UI, Roboto, Helvetica, Arial, sans-serif" font-size="12" fill="#222222">349</text>
<line x1="650.00" y1="20.00" x2="650.00" y2="480.00" stroke="#E6E6E6" stroke-width="1"/>
<text x="650.00" y="500.00" text-anchor="middle" font-family="system-ui, -apple-system, Segoe UI, Roboto, Helvetica, Arial, sans-serif" font-size="12" fill="#222222">466</text>
<line x1="795.00" y1="20.00" x2="795.00" y2="480.00" stroke="#E6E6E6" stroke-width="1"/>
<text x="795.00" y="500.00" text-anchor="middle" font-family="system-ui, -apple-system, Segoe UI, Roboto, Helvetica, Arial, sans-serif" font-size="12" fill="#222222">582</text>
<line x1="940.00" y1="20.00" x2="940.00" y2="480.00" stroke="#E6E6E6" stroke-width="1"/>
<text x="940.00" y="500.00" text-anchor="middle" font-family="system-ui, -apple-system, Segoe UI, Roboto, Helvetica, Arial, sans-serif" font-size="12" fill="#222222">699</text>
<line x1="70.00" y1="480.00" x2="940.00" y2="480.00" stroke="#222222" stroke-width="1.5"/>
<line x1="70.00" y1="20.00" x2="70.00" y2="480.00" stroke="#222222" stroke-width="1.5"/>
<rect x="70.00" y="20.00" width="13.50" height="460.00" fill="#4C78A8"/>
<rect x="84.50" y="222.86" width="13.50" height="257.14" fill="#4C78A8"/>
<rect x="99.00" y="117.35" width="13.50" height="362.65" fill="#4C78A8"/>
<rect x="113.50" y="160.60" width="13.50" height="319.40" fill="#4C78A8"/>
<rect x="128.00" y="192.74" width="13.50" height="287.26" fill="#4C78A8"/>
<rect x="142.50" y="238.14" width="13.50" height="241.86" fill="#4C78A8"/>
<rect x="157.00" y="272.92" width="13.50" height="207.08" fill="#4C78A8"/>
<rect x="171.50" y="253.12" width="13.50" height="226.88" fill="#4C78A8"/>
<rect x="186.00" y="341.77" width="13.50" height="138.23" fill="#4C78A8"/>
<rect x="200.50" y="294.95" width="13.50" height="185.05" fill="#4C78A8"/>
<rect x="215.00" y="335.19" width="13.50" height="144.81" fill="#4C78A8"/>
<rect x="229.50" y="280.27" width="13.50" height="199.73" fill="#4C78A8"/>
<rect x="244.00" y="266.27" width="13.50" height="213.73" fill="#4C78A8"/>
<rect x="258.50" y="294.95" width="13.50" height="185.05" fill="#4C78A8"/>
<rect x="273.00" y="349.12" width="13.50" height="130.88" fill="#4C78A8"/>
<rect x="287.50" y="314.01" width="13.50" height="165.99" fill="#4C78A8"/>
<rect x="302.00" y="280.27" width="13.50" height="199.73" fill="#4C78A8"/>
<rect x="316.50" y="335.19" width="13.50" height="144.81" fill="#4C78A8"/>
<rect x="331.00" y="335.19" width="13.50" height="144.81" fill="#4C78A8"/>
<rect x="345.50" y="436.26" width="13.50" height="43.74" fill="#4C78A8"/>
<rect x="360.00" y="378.42" width="13.50" height="101.58" fill="#4C78A8"/>
<rect x="374.50" y="378.42" width="13.50" height="101.58" fill="#4C78A8"/>
<rect x="389.00" y="436.26" width="13.50" height="43.74" fill="#4C78A8"/>
<rect x="403.50" y="410.85" width="13.50" height="69.15" fill="#4C78A8"/>
<rect x="418.00" y="367.06" width="13.50" height="112.94" fill="#4C78A8"/>
<rect x="432.50" y="479.70" width="13.50" height="0.30" fill="#4C78A8"/>
<rect x="447.00" y="357.45" width="13.50" height="122.55" fill="#4C78A8"/>
<rect x="461.50" y="436.26" width="13.50" height="43.74" fill="#4C78A8"/>
<rect x="476.00" y="410.85" width="13.50" height="69.15" fill="#4C78A8"/>
<rect x="490.50" y="480.00" width="13.50" height="0.00" fill="#4C78A8"/>
<rect x="505.00" y="480.00" width="13.50" height="0.00" fill="#4C78A8"/>
<rect x="519.50" y="480.00" width="13.50" height="0.00" fill="#4C78A8"/>
<rect x="534.00" y="480.00" width="13.50" height="0.00" fill="#4C78A8"/>
<rect x="548.50" y="479.70" width="13.50" height="0.30" fill="#4C78A8"/>
<rect x="563.00" y="480.00" width="13.50" height="0.00" fill="#4C78A8"/>
<rect x="577.50" y="480.00" width="13.50" height="0.00" fill="#4C78A8"/>
<rect x="592.00" y="378.42" width="13.50" height="101.58" fill="#4C78A8"/>
<rect x="606.50" y="480.00" width="13.50" height="0.00" fill="#4C78A8"/>
<rect x="621.00" y="480.00" width="13.50" height="0.00" fill="#4C78A8"/>
<rect x="635.50" y="436.26" width="13.50" height="43.74" fill="#4C78A8"/>
<rect x="650.00" y="480.00" width="13.50" height="0.00" fill="#4C78A8"/>
<rect x="664.50" y="480.00" width="13.50" height="0.00" fill="#4C78A8"/>
<rect x="679.00" y="479.70" width="13.50" height="0.30" fill="#4C78A8"/>
<rect x="693.50" y="480.00" width="13.50" height="0.00" fill="#4C78A8"/>
<rect x="708.00" y="480.00" width="13.50" height="0.00" fill="#4C78A8"/>
<rect x="722.50" y="480.00" width="13.50" height="0.00" fill="#4C78A8"/>
<rect x="737.00" y="480.00" width="13.50" height="0.00" fill="#4C78A8"/>
<rect x="751.50" y="480.00" width="13.50" height="0.00" fill="#4C78A8"/>
<rect x="766.00" y="410.85" width="13.50" height="69.15" fill="#4C78A8"/>
<rect x="780.50" y="480.00" width="13.50" height="0.00" fill="#4C78A8"/>
<rect x="795.00" y="480.00" width="13.50" height="0.00" fill="#4C78A8"/>
<rect x="809.50" y="480.00" width="13.50" height="0.00" fill="#4C78A8"/>
<rect x="824.00" y="479.70" width="13.50" height="0.30" fill="#4C78A8"/>
<rect x="838.50" y="480.00" width="13.50" height="0.00" fill="#4C78A8"/>
<rect x="853.00" y="480.00" width="13.50" height="0.00" fill="#4C78A8"/>
<rect x="867.50" y="480.00" width="13.50" height="0.00" fill="#4C78A8"/>
<rect x="882.00" y="480.00" width="13.50" height="0.00" fill="#4C78A8"/>
<rect x="896.50" y="480.00" width="13.50" height="0.00" fill="#4C78A8"/>
<rect x="911.00" y="480.00" width="13.50" height="0.00" fill="#4C78A8"/>
<rect x="925.50" y="410.85" width="13.50" height="69.15" fill="#4C78A8"/>
<text x="480.00" y="28" text-anchor="middle" font-family="system-ui, -apple-system, Segoe UI, Roboto, Helvetica, Arial, sans-serif" font-size="18" fill="#222222">propagation lag_days histogram (hop=12, n=2509)</text>
<text x="480.00" y="48" text-anchor="middle" font-family="system-ui, -apple-system, Segoe UI, Roboto, Helvetica, Arial, sans-serif" font-size="12" fill="#222222">bins=60, x_max=699, y_scale=log10</text>
<text x="480.00" y="520.00" text-anchor="middle" font-family="system-ui, -apple-system, Segoe UI, Roboto, Helvetica, Arial, sans-serif" font-size="14" fill="#222222">lag_days</text>
<text x="18" y="270.00" text-anchor="middle" font-family="system-ui, -apple-system, Segoe UI, Roboto, Helvetica, Arial, sans-serif" font-size="14" fill="#222222" transform="rotate(-90 18 270.00)">count (log10)</text>
</svg>