<svg xmlns="http://www.w3.org/2000/svg" width="960" height="540" viewBox="0 0 960 540">
<rect x="0" y="0" width="960" height="540" fill="white"/>
<line x1="70.00" y1="480.00" x2="940.00" y2="480.00" stroke="#E6E6E6" stroke-width="1"/>
<text x="60.00" y="484.00" text-anchor="end" font-family="system-ui, -apple-system, Segoe UI, Roboto, Helvetica, Arial, sans-serif" font-size="12" fill="#222222">0</text>
<line x1="70.00" y1="389.89" x2="940.00" y2="389.89" stroke="#E6E6E6" stroke-width="1"/>
<text x="60.00" y="393.89" text-anchor="end" font-family="system-ui, -apple-system, Segoe UI, Roboto, Helvetica, Arial, sans-serif" font-size="12" fill="#222222">1</text>
<line x1="70.00" y1="299.78" x2="940.00" y2="299.78" stroke="#E6E6E6" stroke-width="1"/>
<text x="60.00" y="303.78" text-anchor="end" font-family="system-ui, -apple-system, Segoe UI, Roboto, Helvetica, Arial, sans-serif" font-size="12" fill="#222222">2</text>
<line x1="70.00" y1="209.67" x2="940.00" y2="209.67" stroke="#E6E6E6" stroke-width="1"/>
<text x="60.00" y="213.67" text-anchor="end" font-family="system-ui, -apple-system, Segoe UI, Roboto, Helvetica, Arial, sans-serif" font-size="12" fill="#222222">3</text>
<line x1="70.00" y1="119.56" x2="940.00" y2="119.56" stroke="#E6E6E6" stroke-width="1"/>
<text x="60.00" y="123.56" text-anchor="end" font-family="system-ui, -apple-system, Segoe UI, Roboto, Helvetica, Arial, sans-serif" font-size="12" fill="#222222">4</text>
<line x1="70.00" y1="29.45" x2="940.00" y2="29.45" stroke="#E6E6E6" stroke-width="1"/>
<text x="60.00" y="33.45" text-anchor="end" font-family="system-ui, -apple-system, Segoe UI, Roboto, Helvetica, Arial, sans-serif" font-size="12" fill="#222222">5</text>
<line x1="70.00" y1="-60.66" x2="940.00" y2="-60.66" stroke="#E6E6E6" stroke-width="1"/>
<text x="60.00" y="-56.66" text-anchor="end" font-family="system-ui, -apple-system, Segoe UI, Roboto, Helvetica, Arial, sans-serif" font-size="12" fill="#222222">6</text>
<line x1="70.00" y1="20.00" x2="70.00" y2="480.00" stroke="#E6E6E6" stroke-width="1"/>
<text x="70.00" y="500.00" text-anchor="middle" font-family="system-ui, -apple-system, Segoe UI, Roboto, Helvetica, Arial, sans-serif" font-size="12" fill="#222222">0</text>
<line x1="215.00" y1="20.00" x2="215.00" y2="480.00" stroke="#E6E6E6" stroke-width="1"/>
<text x="215.00" y="500.00" text-anchor="middle" font-family="system-ui, -apple-system, Segoe UI, Roboto, Helvetica, Arial, sans-serif" font-size="12" fill="#222222">371</text>
<line x1="360.00" y1="20.00" x2="360.00" y2="480.00" stroke="#E6E6E6" stroke-width="1"/>
<text x="360.00" y="500.00" text-anchor="middle" font-family="system-ui, -apple-system, Segoe UI, Roboto, Helvetica, Arial, sans-serif" font-size="12" fill="#222222">743</text>
<line x1="505.00" y1="20.00" x2="505.00" y2="480.00" stroke="#E6E6E6" stroke-width="1"/>
<text x="505.00" y="500.00" text-anchor="middle" font-family="system-ui, -apple-system, Segoe UI, Roboto, Helvetica, Arial, sans-serif" font-size="12" fill="#222222">1115</text>
<line x1="650.00" y1="20.00" x2="650.00" y2="480.00" stroke="#E6E6E6" stroke-width="1"/>
<text x="650.00" y="500.00" text-anchor="middle" font-family="system-ui, -apple-system, Segoe UI, Roboto, Helvetica, Arial, sans-serif" font-size="12" fill="#222222">1487</text>
<line x1="795.00" y1="20.00" x2="795.00" y2="480.00" stroke="#E6E6E6" stroke-width="1"/>
<text x="795.00" y="500.00" text-anchor="middle" font-family="system-ui, -apple-system, Segoe UI, Roboto, Helvetica, Arial, sans-serif" font-size="12" fill="#222222">1859</text>
<line x1="940.00" y1="20.00" x2="940.00" y2="480.00" stroke="#E6E6E6" stroke-width="1"/>
<text x="940.00" y="500.00" text-anchor="middle" font-family="system-ui, -apple-system, Segoe UI, Roboto, Helvetica, Arial, sans-serif" font-size="12" fill="#222222">2231</text>
<line x1="70.00" y1="480.00" x2="940.00" y2="480.00" stroke="#222222" stroke-width="1.5"/>
<line x1="70.00" y1="20.00" x2="70.00" y2="480.00" stroke="#222222" stroke-width="1.5"/>
<rect x="70.00" y="20.00" width="13.50" height="460.00" fill="#4C78A8"/>
<rect x="84.50" y="109.09" width="13.50" height="370.91" fill="#4C78A8"/>
<rect x="99.00" y="116.34" width="13.50" height="363.66" fill="#4C78A8"/>
<rect x="113.50" y="127.82" width="13.50" height="352.18" fill="#4C78A8"/>
<rect x="128.00" y="142.36" width="13.50" height="337.64" fill="#4C78A8"/>
<rect x="142.50" y="149.67" width="13.50" height="330.33" fill="#4C78A8"/>
<rect x="157.00" y="163.29" width="13.50" height="316.71" fill="#4C78A8"/>
<rect x="171.50" y="150.86" width="13.50" height="329.14" fill="#4C78A8"/>
<rect x="186.00" y="166.82" width="13.50" height="313.18" fill="#4C78A8"/>
<rect x="200.50" y="169.52" width="13.50" height="310.48" fill="#4C78A8"/>
<rect x="215.00" y="185.68" width="13.50" height="294.32" fill="#4C78A8"/>
<rect x="229.50" y="183.73" width="13.50" height="296.27" fill="#4C78A8"/>
<rect x="244.00" y="201.69" width="13.50" height="278.31" fill="#4C78A8"/>
<rect x="258.50" y="204.25" width="13.50" height="275.75" fill="#4C78A8"/>
<rect x="273.00" y="209.70" width="13.50" height="270.30" fill="#4C78A8"/>
<rect x="287.50" y="211.48" width="13.50" height="268.52" fill="#4C78A8"/>
<rect x="302.00" y="201.52" width="13.50" height="278.48" fill="#4C78A8"/>
<rect x="316.50" y="226.84" width="13.50" height="253.16" fill="#4C78A8"/>
<rect x="331.00" y="224.40" width="13.50" height="255.60" fill="#4C78A8"/>
<rect x="345.50" y="236.72" width="13.50" height="243.28" fill="#4C78A8"/>
<rect x="360.00" y="239.18" width="13.50" height="240.82" fill="#4C78A8"/>
<rect x="374.50" y="248.49" width="13.50" height="231.51" fill="#4C78A8"/>
<rect x="389.00" y="253.80" width="13.50" height="226.20" fill="#4C78A8"/>
<rect x="403.50" y="264.94" width="13.50" height="215.06" fill="#4C78A8"/>
<rect x="418.00" y="268.67" width="13.50" height="211.33" fill="#4C78A8"/>
<rect x="432.50" y="277.41" width="13.50" height="202.59" fill="#4C78A8"/>
<rect x="447.00" y="272.80" width="13.50" height="207.20" fill="#4C78A8"/>
<rect x="461.50" y="278.65" width="13.50" height="201.35" fill="#4C78A8"/>
<rect x="476.00" y="302.16" width="13.50" height="177.84" fill="#4C78A8"/>
<rect x="490.50" y="293.89" width="13.50" height="186.11" fill="#4C78A8"/>
<rect x="505.00" y="295.80" width="13.50" height="184.20" fill="#4C78A8"/>
<rect x="519.50" y="304.53" width="13.50" height="175.47" fill="#4C78A8"/>
<rect x="534.00" y="307.06" width="13.50" height="172.94" fill="#4C78A8"/>
<rect x="548.50" y="308.39" width="13.50" height="171.61" fill="#4C78A8"/>
<rect x="563.00" y="322.93" width="13.50" height="157.07" fill="#4C78A8"/>
<rect x="577.50" y="324.93" width="13.50" height="155.07" fill="#4C78A8"/>
<rect x="592.00" y="350.05" width="13.50" height="129.95" fill="#4C78A8"/>
<rect x="606.50" y="327.05" width="13.50" height="152.95" fill="#4C78A8"/>
<rect x="621.00" y="364.01" width="13.50" height="115.99" fill="#4C78A8"/>
<rect x="635.50" y="385.91" width="13.50" height="94.09" fill="#4C78A8"/>
<rect x="650.00" y="358.78" width="13.50" height="121.22" fill="#4C78A8"/>
<rect x="664.50" y="385.91" width="13.50" height="94.09" fill="#4C78A8"/>
<rect x="679.00" y="377.18" width="13.50" height="102.82" fill="#4C78A8"/>
<rect x="693.50" y="370.04" width="13.50" height="109.96" fill="#4C78A8"/>
<rect x="708.00" y="364.01" width="13.50" height="115.99" fill="#4C78A8"/>
<rect x="722.50" y="377.18" width="13.50" height="102.82" fill="#4C78A8"/>
<rect x="737.00" y="370.04" width="13.50" height="109.96" fill="#4C78A8"/>
<rect x="751.50" y="413.04" width="13.50" height="66.96" fill="#4C78A8"/>
<rect x="766.00" y="377.18" width="13.50" height="102.82" fill="#4C78A8"/>
<rect x="780.50" y="413.04" width="13.50" height="66.96" fill="#4C78A8"/>
<rect x="795.00" y="440.16" width="13.50" height="39.84" fill="#4C78A8"/>
<rect x="809.50" y="413.04" width="13.50" height="66.96" fill="#4C78A8"/>
<rect x="824.00" y="440.16" width="13.50" height="39.84" fill="#4C78A8"/>
<rect x="838.50" y="440.16" width="13.50" height="39.84" fill="#4C78A8"/>
<rect x="853.00" y="413.04" width="13.50" height="66.96" fill="#4C78A8"/>
<rect x="867.50" y="440.16" width="13.50" height="39.84" fill="#4C78A8"/>
<rect x="882.00" y="480.00" width="13.50" height="0.00" fill="#4C78A8"/>
<rect x="896.50" y="480.00" width="13.50" height="0.00" fill="#4C78A8"/>
<rect x="911.00" y="440.16" width="13.50" height="39.84" fill="#4C78A8"/>
<rect x="925.50" y="440.16" width="13.50" height="39.84" fill="#4C78A8"/>
<text x="480.00" y="28" text-anchor="middle" font-family="system-ui, -apple-system, Segoe UI, Roboto, Helvetica, Arial, sans-serif" font-size="18" fill="#222222">propagation lag_days histogram (hop=4, n=195250)</text>
<text x="480.00" y="48" text-anchor="middle" font-family="system-ui, -apple-system, Segoe UI, Roboto, Helvetica, Arial, sans-serif" font-size="12" fill="#222222">bins=60, x_max=2231, y_scale=log10</text>
<text x="480.00" y="520.00" text-anchor="middle" font-family="system-ui, -apple-system, Segoe UI, Roboto, Helvetica, Arial, sans-serif" font-size="14" fill="#222222">lag_days</text>
<text x="18" y="270.00" text-anchor="middle" font-family="system-ui, -apple-system, Segoe UI, Roboto, Helvetica, Arial, sans-serif" font-size="14" fill="#222222" transform="rotate(-90 18 270.00)">count (log10)</text>
</svg>