<svg xmlns="http://www.w3.org/2000/svg" width="960" height="540" viewBox="0 0 960 540">
<rect x="0" y="0" width="960" height="540" fill="white"/>
<line x1="70.00" y1="480.00" x2="940.00" y2="480.00" stroke="#E6E6E6" stroke-width="1"/>
<text x="60.00" y="484.00" text-anchor="end" font-family="system-ui, -apple-system, Segoe UI, Roboto, Helvetica, Arial, sans-serif" font-size="12" fill="#222222">0</text>
<line x1="70.00" y1="353.82" x2="940.00" y2="353.82" stroke="#E6E6E6" stroke-width="1"/>
<text x="60.00" y="357.82" text-anchor="end" font-family="system-ui, -apple-system, Segoe UI, Roboto, Helvetica, Arial, sans-serif" font-size="12" fill="#222222">1</text>
<line x1="70.00" y1="227.64" x2="940.00" y2="227.64" stroke="#E6E6E6" stroke-width="1"/>
<text x="60.00" y="231.64" text-anchor="end" font-family="system-ui, -apple-system, Segoe UI, Roboto, Helvetica, Arial, sans-serif" font-size="12" fill="#222222">2</text>
<line x1="70.00" y1="101.45" x2="940.00" y2="101.45" stroke="#E6E6E6" stroke-width="1"/>
<text x="60.00" y="105.45" text-anchor="end" font-family="system-ui, -apple-system, Segoe UI, Roboto, Helvetica, Arial, sans-serif" font-size="12" fill="#222222">3</text>
<line x1="70.00" y1="-24.73" x2="940.00" y2="-24.73" stroke="#E6E6E6" stroke-width="1"/>
<text x="60.00" y="-20.73" text-anchor="end" font-family="system-ui, -apple-system, Segoe UI, Roboto, Helvetica, Arial, sans-serif" font-size="12" fill="#222222">4</text>
<line x1="70.00" y1="20.00" x2="70.00" y2="480.00" stroke="#E6E6E6" stroke-width="1"/>
<text x="70.00" y="500.00" text-anchor="middle" font-family="system-ui, -apple-system, Segoe UI, Roboto, Helvetica, Arial, sans-serif" font-size="12" fill="#222222">0</text>
<line x1="215.00" y1="20.00" x2="215.00" y2="480.00" stroke="#E6E6E6" stroke-width="1"/>
<text x="215.00" y="500.00" text-anchor="middle" font-family="system-ui, -apple-system, Segoe UI, Roboto, Helvetica, Arial, sans-serif" font-size="12" fill="#222222">261</text>
<line x1="360.00" y1="20.00" x2="360.00" y2="480.00" stroke="#E6E6E6" stroke-width="1"/>
<text x="360.00" y="500.00" text-anchor="middle" font-family="system-ui, -apple-system, Segoe UI, Roboto, Helvetica, Arial, sans-serif" font-size="12" fill="#222222">523</text>
<line x1="505.00" y1="20.00" x2="505.00" y2="480.00" stroke="#E6E6E6" stroke-width="1"/>
<text x="505.00" y="500.00" text-anchor="middle" font-family="system-ui, -apple-system, Segoe UI, Roboto, Helvetica, Arial, sans-serif" font-size="12" fill="#222222">785</text>
<line x1="650.00" y1="20.00" x2="650.00" y2="480.00" stroke="#E6E6E6" stroke-width="1"/>
<text x="650.00" y="500.00" text-anchor="middle" font-family="system-ui, -apple-system, Segoe UI, Roboto, Helvetica, Arial, sans-serif" font-size="12" fill="#222222">1046</text>
<line x1="795.00" y1="20.00" x2="795.00" y2="480.00" stroke="#E6E6E6" stroke-width="1"/>
<text x="795.00" y="500.00" text-anchor="middle" font-family="system-ui, -apple-system, Segoe UI, Roboto, Helvetica, Arial, sans-serif" font-size="12" fill="#222222">1308</text>
<line x1="940.00" y1="20.00" x2="940.00" y2="480.00" stroke="#E6E6E6" stroke-width="1"/>
<text x="940.00" y="500.00" text-anchor="middle" font-family="system-ui, -apple-system, Segoe UI, Roboto, Helvetica, Arial, sans-serif" font-size="12" fill="#222222">1570</text>
<line x1="70.00" y1="480.00" x2="940.00" y2="480.00" stroke="#222222" stroke-width="1.5"/>
<line x1="70.00" y1="20.00" x2="70.00" y2="480.00" stroke="#222222" stroke-width="1.5"/>
<rect x="70.00" y="20.00" width="13.50" height="460.00" fill="#4C78A8"/>
<rect x="84.50" y="209.45" width="13.50" height="270.55" fill="#4C78A8"/>
<rect x="99.00" y="220.42" width="13.50" height="259.58" fill="#4C78A8"/>
<rect x="113.50" y="252.41" width="13.50" height="227.59" fill="#4C78A8"/>
<rect x="128.00" y="254.18" width="13.50" height="225.82" fill="#4C78A8"/>
<rect x="142.50" y="257.89" width="13.50" height="222.11" fill="#4C78A8"/>
<rect x="157.00" y="270.84" width="13.50" height="209.16" fill="#4C78A8"/>
<rect x="171.50" y="277.35" width="13.50" height="202.65" fill="#4C78A8"/>
<rect x="186.00" y="287.81" width="13.50" height="192.19" fill="#4C78A8"/>
<rect x="200.50" y="330.93" width="13.50" height="149.07" fill="#4C78A8"/>
<rect x="215.00" y="324.09" width="13.50" height="155.91" fill="#4C78A8"/>
<rect x="229.50" y="338.74" width="13.50" height="141.26" fill="#4C78A8"/>
<rect x="244.00" y="347.86" width="13.50" height="132.14" fill="#4C78A8"/>
<rect x="258.50" y="343.33" width="13.50" height="136.67" fill="#4C78A8"/>
<rect x="273.00" y="353.32" width="13.50" height="126.68" fill="#4C78A8"/>
<rect x="287.50" y="381.31" width="13.50" height="98.69" fill="#4C78A8"/>
<rect x="302.00" y="358.80" width="13.50" height="121.20" fill="#4C78A8"/>
<rect x="316.50" y="358.80" width="13.50" height="121.20" fill="#4C78A8"/>
<rect x="331.00" y="365.55" width="13.50" height="114.45" fill="#4C78A8"/>
<rect x="345.50" y="418.43" width="13.50" height="61.57" fill="#4C78A8"/>
<rect x="360.00" y="441.52" width="13.50" height="38.48" fill="#4C78A8"/>
<rect x="374.50" y="418.43" width="13.50" height="61.57" fill="#4C78A8"/>
<rect x="389.00" y="403.53" width="13.50" height="76.47" fill="#4C78A8"/>
<rect x="403.50" y="441.52" width="13.50" height="38.48" fill="#4C78A8"/>
<rect x="418.00" y="476.95" width="13.50" height="3.05" fill="#4C78A8"/>
<rect x="432.50" y="390.78" width="13.50" height="89.22" fill="#4C78A8"/>
<rect x="447.00" y="441.52" width="13.50" height="38.48" fill="#4C78A8"/>
<rect x="461.50" y="476.95" width="13.50" height="3.05" fill="#4C78A8"/>
<rect x="476.00" y="403.53" width="13.50" height="76.47" fill="#4C78A8"/>
<rect x="490.50" y="480.00" width="13.50" height="0.00" fill="#4C78A8"/>
<rect x="505.00" y="403.53" width="13.50" height="76.47" fill="#4C78A8"/>
<rect x="519.50" y="480.00" width="13.50" height="0.00" fill="#4C78A8"/>
<rect x="534.00" y="476.95" width="13.50" height="3.05" fill="#4C78A8"/>
<rect x="548.50" y="480.00" width="13.50" height="0.00" fill="#4C78A8"/>
<rect x="563.00" y="418.43" width="13.50" height="61.57" fill="#4C78A8"/>
<rect x="577.50" y="480.00" width="13.50" height="0.00" fill="#4C78A8"/>
<rect x="592.00" y="441.52" width="13.50" height="38.48" fill="#4C78A8"/>
<rect x="606.50" y="480.00" width="13.50" height="0.00" fill="#4C78A8"/>
<rect x="621.00" y="480.00" width="13.50" height="0.00" fill="#4C78A8"/>
<rect x="635.50" y="480.00" width="13.50" height="0.00" fill="#4C78A8"/>
<rect x="650.00" y="480.00" width="13.50" height="0.00" fill="#4C78A8"/>
<rect x="664.50" y="441.52" width="13.50" height="38.48" fill="#4C78A8"/>
<rect x="679.00" y="476.95" width="13.50" height="3.05" fill="#4C78A8"/>
<rect x="693.50" y="480.00" width="13.50" height="0.00" fill="#4C78A8"/>
<rect x="708.00" y="476.95" width="13.50" height="3.05" fill="#4C78A8"/>
<rect x="722.50" y="476.95" width="13.50" height="3.05" fill="#4C78A8"/>
<rect x="737.00" y="480.00" width="13.50" height="0.00" fill="#4C78A8"/>
<rect x="751.50" y="480.00" width="13.50" height="0.00" fill="#4C78A8"/>
<rect x="766.00" y="480.00" width="13.50" height="0.00" fill="#4C78A8"/>
<rect x="780.50" y="480.00" width="13.50" height="0.00" fill="#4C78A8"/>
<rect x="795.00" y="476.95" width="13.50" height="3.05" fill="#4C78A8"/>
<rect x="809.50" y="480.00" width="13.50" height="0.00" fill="#4C78A8"/>
<rect x="824.00" y="480.00" width="13.50" height="0.00" fill="#4C78A8"/>
<rect x="838.50" y="480.00" width="13.50" height="0.00" fill="#4C78A8"/>
<rect x="853.00" y="480.00" width="13.50" height="0.00" fill="#4C78A8"/>
<rect x="867.50" y="480.00" width="13.50" height="0.00" fill="#4C78A8"/>
<rect x="882.00" y="480.00" width="13.50" height="0.00" fill="#4C78A8"/>
<rect x="896.50" y="480.00" width="13.50" height="0.00" fill="#4C78A8"/>
<rect x="911.00" y="480.00" width="13.50" height="0.00" fill="#4C78A8"/>
<rect x="925.50" y="476.95" width="13.50" height="3.05" fill="#4C78A8"/>
<text x="480.00" y="28" text-anchor="middle" font-family="system-ui, -apple-system, Segoe UI, Roboto, Helvetica, Arial, sans-serif" font-size="18" fill="#222222">propagation lag_days histogram (hop=11, n=5083)</text>
<text x="480.00" y="48" text-anchor="middle" font-family="system-ui, -apple-system, Segoe UI, Roboto, Helvetica, Arial, sans-serif" font-size="12" fill="#222222">bins=60, x_max=1570, y_scale=log10</text>
<text x="480.00" y="520.00" text-anchor="middle" font-family="system-ui, -apple-system, Segoe UI, Roboto, Helvetica, Arial, sans-serif" font-size="14" fill="#222222">lag_days</text>
<text x="18" y="270.00" text-anchor="middle" font-family="system-ui, -apple-system, Segoe UI, Roboto, Helvetica, Arial, sans-serif" font-size="14" fill="#222222" transform="rotate(-90 18 270.00)">count (log10)</text>
</svg>