<svg xmlns="http://www.w3.org/2000/svg" width="960" height="540" viewBox="0 0 960 540">
<rect x="0" y="0" width="960" height="540" fill="white"/>
<line x1="70.00" y1="480.00" x2="940.00" y2="480.00" stroke="#E6E6E6" stroke-width="1"/>
<text x="60.00" y="484.00" text-anchor="end" font-family="system-ui, -apple-system, Segoe UI, Roboto, Helvetica, Arial, sans-serif" font-size="12" fill="#222222">0</text>
<line x1="70.00" y1="382.64" x2="940.00" y2="382.64" stroke="#E6E6E6" stroke-width="1"/>
<text x="60.00" y="386.64" text-anchor="end" font-family="system-ui, -apple-system, Segoe UI, Roboto, Helvetica, Arial, sans-serif" font-size="12" fill="#222222">1</text>
<line x1="70.00" y1="285.29" x2="940.00" y2="285.29" stroke="#E6E6E6" stroke-width="1"/>
<text x="60.00" y="289.29" text-anchor="end" font-family="system-ui, -apple-system, Segoe UI, Roboto, Helvetica, Arial, sans-serif" font-size="12" fill="#222222">2</text>
<line x1="70.00" y1="187.93" x2="940.00" y2="187.93" stroke="#E6E6E6" stroke-width="1"/>
<text x="60.00" y="191.93" text-anchor="end" font-family="system-ui, -apple-system, Segoe UI, Roboto, Helvetica, Arial, sans-serif" font-size="12" fill="#222222">3</text>
<line x1="70.00" y1="90.58" x2="940.00" y2="90.58" stroke="#E6E6E6" stroke-width="1"/>
<text x="60.00" y="94.58" text-anchor="end" font-family="system-ui, -apple-system, Segoe UI, Roboto, Helvetica, Arial, sans-serif" font-size="12" fill="#222222">4</text>
<line x1="70.00" y1="-6.78" x2="940.00" y2="-6.78" stroke="#E6E6E6" stroke-width="1"/>
<text x="60.00" y="-2.78" text-anchor="end" font-family="system-ui, -apple-system, Segoe UI, Roboto, Helvetica, Arial, sans-serif" font-size="12" fill="#222222">5</text>
<line x1="70.00" y1="20.00" x2="70.00" y2="480.00" stroke="#E6E6E6" stroke-width="1"/>
<text x="70.00" y="500.00" text-anchor="middle" font-family="system-ui, -apple-system, Segoe UI, Roboto, Helvetica, Arial, sans-serif" font-size="12" fill="#222222">0</text>
<line x1="215.00" y1="20.00" x2="215.00" y2="480.00" stroke="#E6E6E6" stroke-width="1"/>
<text x="215.00" y="500.00" text-anchor="middle" font-family="system-ui, -apple-system, Segoe UI, Roboto, Helvetica, Arial, sans-serif" font-size="12" fill="#222222">393</text>
<line x1="360.00" y1="20.00" x2="360.00" y2="480.00" stroke="#E6E6E6" stroke-width="1"/>
<text x="360.00" y="500.00" text-anchor="middle" font-family="system-ui, -apple-system, Segoe UI, Roboto, Helvetica, Arial, sans-serif" font-size="12" fill="#222222">787</text>
<line x1="505.00" y1="20.00" x2="505.00" y2="480.00" stroke="#E6E6E6" stroke-width="1"/>
<text x="505.00" y="500.00" text-anchor="middle" font-family="system-ui, -apple-system, Segoe UI, Roboto, Helvetica, Arial, sans-serif" font-size="12" fill="#222222">1180</text>
<line x1="650.00" y1="20.00" x2="650.00" y2="480.00" stroke="#E6E6E6" stroke-width="1"/>
<text x="650.00" y="500.00" text-anchor="middle" font-family="system-ui, -apple-system, Segoe UI, Roboto, Helvetica, Arial, sans-serif" font-size="12" fill="#222222">1574</text>
<line x1="795.00" y1="20.00" x2="795.00" y2="480.00" stroke="#E6E6E6" stroke-width="1"/>
<text x="795.00" y="500.00" text-anchor="middle" font-family="system-ui, -apple-system, Segoe UI, Roboto, Helvetica, Arial, sans-serif" font-size="12" fill="#222222">1967</text>
<line x1="940.00" y1="20.00" x2="940.00" y2="480.00" stroke="#E6E6E6" stroke-width="1"/>
<text x="940.00" y="500.00" text-anchor="middle" font-family="system-ui, -apple-system, Segoe UI, Roboto, Helvetica, Arial, sans-serif" font-size="12" fill="#222222">2361</text>
<line x1="70.00" y1="480.00" x2="940.00" y2="480.00" stroke="#222222" stroke-width="1.5"/>
<line x1="70.00" y1="20.00" x2="70.00" y2="480.00" stroke="#222222" stroke-width="1.5"/>
<rect x="70.00" y="20.00" width="13.50" height="460.00" fill="#4C78A8"/>
<rect x="84.50" y="99.08" width="13.50" height="380.92" fill="#4C78A8"/>
<rect x="99.00" y="98.03" width="13.50" height="381.97" fill="#4C78A8"/>
<rect x="113.50" y="102.05" width="13.50" height="377.95" fill="#4C78A8"/>
<rect x="128.00" y="133.96" width="13.50" height="346.04" fill="#4C78A8"/>
<rect x="142.50" y="137.45" width="13.50" height="342.55" fill="#4C78A8"/>
<rect x="157.00" y="146.50" width="13.50" height="333.50" fill="#4C78A8"/>
<rect x="171.50" y="125.61" width="13.50" height="354.39" fill="#4C78A8"/>
<rect x="186.00" y="152.74" width="13.50" height="327.26" fill="#4C78A8"/>
<rect x="200.50" y="166.52" width="13.50" height="313.48" fill="#4C78A8"/>
<rect x="215.00" y="180.51" width="13.50" height="299.49" fill="#4C78A8"/>
<rect x="229.50" y="149.40" width="13.50" height="330.60" fill="#4C78A8"/>
<rect x="244.00" y="160.07" width="13.50" height="319.93" fill="#4C78A8"/>
<rect x="258.50" y="204.69" width="13.50" height="275.31" fill="#4C78A8"/>
<rect x="273.00" y="182.22" width="13.50" height="297.78" fill="#4C78A8"/>
<rect x="287.50" y="205.57" width="13.50" height="274.43" fill="#4C78A8"/>
<rect x="302.00" y="204.40" width="13.50" height="275.60" fill="#4C78A8"/>
<rect x="316.50" y="203.34" width="13.50" height="276.66" fill="#4C78A8"/>
<rect x="331.00" y="218.86" width="13.50" height="261.14" fill="#4C78A8"/>
<rect x="345.50" y="226.75" width="13.50" height="253.25" fill="#4C78A8"/>
<rect x="360.00" y="224.26" width="13.50" height="255.74" fill="#4C78A8"/>
<rect x="374.50" y="227.99" width="13.50" height="252.01" fill="#4C78A8"/>
<rect x="389.00" y="241.69" width="13.50" height="238.31" fill="#4C78A8"/>
<rect x="403.50" y="243.47" width="13.50" height="236.53" fill="#4C78A8"/>
<rect x="418.00" y="247.07" width="13.50" height="232.93" fill="#4C78A8"/>
<rect x="432.50" y="257.81" width="13.50" height="222.19" fill="#4C78A8"/>
<rect x="447.00" y="267.82" width="13.50" height="212.18" fill="#4C78A8"/>
<rect x="461.50" y="272.96" width="13.50" height="207.04" fill="#4C78A8"/>
<rect x="476.00" y="268.14" width="13.50" height="211.86" fill="#4C78A8"/>
<rect x="490.50" y="268.47" width="13.50" height="211.53" fill="#4C78A8"/>
<rect x="505.00" y="283.69" width="13.50" height="196.31" fill="#4C78A8"/>
<rect x="519.50" y="283.22" width="13.50" height="196.78" fill="#4C78A8"/>
<rect x="534.00" y="289.74" width="13.50" height="190.26" fill="#4C78A8"/>
<rect x="548.50" y="297.45" width="13.50" height="182.55" fill="#4C78A8"/>
<rect x="563.00" y="244.02" width="13.50" height="235.98" fill="#4C78A8"/>
<rect x="577.50" y="267.82" width="13.50" height="212.18" fill="#4C78A8"/>
<rect x="592.00" y="317.98" width="13.50" height="162.02" fill="#4C78A8"/>
<rect x="606.50" y="323.62" width="13.50" height="156.38" fill="#4C78A8"/>
<rect x="621.00" y="208.33" width="13.50" height="271.67" fill="#4C78A8"/>
<rect x="635.50" y="337.85" width="13.50" height="142.15" fill="#4C78A8"/>
<rect x="650.00" y="334.59" width="13.50" height="145.41" fill="#4C78A8"/>
<rect x="664.50" y="339.57" width="13.50" height="140.43" fill="#4C78A8"/>
<rect x="679.00" y="333.06" width="13.50" height="146.94" fill="#4C78A8"/>
<rect x="693.50" y="339.57" width="13.50" height="140.43" fill="#4C78A8"/>
<rect x="708.00" y="351.74" width="13.50" height="128.26" fill="#4C78A8"/>
<rect x="722.50" y="347.28" width="13.50" height="132.72" fill="#4C78A8"/>
<rect x="737.00" y="345.22" width="13.50" height="134.78" fill="#4C78A8"/>
<rect x="751.50" y="376.59" width="13.50" height="103.41" fill="#4C78A8"/>
<rect x="766.00" y="372.56" width="13.50" height="107.44" fill="#4C78A8"/>
<rect x="780.50" y="359.45" width="13.50" height="120.55" fill="#4C78A8"/>
<rect x="795.00" y="359.45" width="13.50" height="120.55" fill="#4C78A8"/>
<rect x="809.50" y="391.67" width="13.50" height="88.33" fill="#4C78A8"/>
<rect x="824.00" y="391.67" width="13.50" height="88.33" fill="#4C78A8"/>
<rect x="838.50" y="444.64" width="13.50" height="35.36" fill="#4C78A8"/>
<rect x="853.00" y="391.67" width="13.50" height="88.33" fill="#4C78A8"/>
<rect x="867.50" y="444.64" width="13.50" height="35.36" fill="#4C78A8"/>
<rect x="882.00" y="444.64" width="13.50" height="35.36" fill="#4C78A8"/>
<rect x="896.50" y="473.95" width="13.50" height="6.05" fill="#4C78A8"/>
<rect x="911.00" y="480.00" width="13.50" height="0.00" fill="#4C78A8"/>
<rect x="925.50" y="415.33" width="13.50" height="64.67" fill="#4C78A8"/>
<text x="480.00" y="28" text-anchor="middle" font-family="system-ui, -apple-system, Segoe UI, Roboto, Helvetica, Arial, sans-serif" font-size="18" fill="#222222">propagation lag_days histogram (hop=2, n=108418)</text>
<text x="480.00" y="48" text-anchor="middle" font-family="system-ui, -apple-system, Segoe UI, Roboto, Helvetica, Arial, sans-serif" font-size="12" fill="#222222">bins=60, x_max=2361, y_scale=log10</text>
<text x="480.00" y="520.00" text-anchor="middle" font-family="system-ui, -apple-system, Segoe UI, Roboto, Helvetica, Arial, sans-serif" font-size="14" fill="#222222">lag_days</text>
<text x="18" y="270.00" text-anchor="middle" font-family="system-ui, -apple-system, Segoe UI, Roboto, Helvetica, Arial, sans-serif" font-size="14" fill="#222222" transform="rotate(-90 18 270.00)">count (log10)</text>
</svg>