<svg xmlns="http://www.w3.org/2000/svg" width="960" height="540" viewBox="0 0 960 540">
<rect x="0" y="0" width="960" height="540" fill="white"/>
<line x1="70.00" y1="480.00" x2="940.00" y2="480.00" stroke="#E6E6E6" stroke-width="1"/>
<text x="60.00" y="484.00" text-anchor="end" font-family="system-ui, -apple-system, Segoe UI, Roboto, Helvetica, Arial, sans-serif" font-size="12" fill="#222222">0</text>
<line x1="70.00" y1="326.01" x2="940.00" y2="326.01" stroke="#E6E6E6" stroke-width="1"/>
<text x="60.00" y="330.01" text-anchor="end" font-family="system-ui, -apple-system, Segoe UI, Roboto, Helvetica, Arial, sans-serif" font-size="12" fill="#222222">1</text>
<line x1="70.00" y1="172.03" x2="940.00" y2="172.03" stroke="#E6E6E6" stroke-width="1"/>
<text x="60.00" y="176.03" text-anchor="end" font-family="system-ui, -apple-system, Segoe UI, Roboto, Helvetica, Arial, sans-serif" font-size="12" fill="#222222">2</text>
<line x1="70.00" y1="18.04" x2="940.00" y2="18.04" stroke="#E6E6E6" stroke-width="1"/>
<text x="60.00" y="22.04" text-anchor="end" font-family="system-ui, -apple-system, Segoe UI, Roboto, Helvetica, Arial, sans-serif" font-size="12" fill="#222222">3</text>
<line x1="70.00" y1="20.00" x2="70.00" y2="480.00" stroke="#E6E6E6" stroke-width="1"/>
<text x="70.00" y="500.00" text-anchor="middle" font-family="system-ui, -apple-system, Segoe UI, Roboto, Helvetica, Arial, sans-serif" font-size="12" fill="#222222">0</text>
<line x1="215.00" y1="20.00" x2="215.00" y2="480.00" stroke="#E6E6E6" stroke-width="1"/>
<text x="215.00" y="500.00" text-anchor="middle" font-family="system-ui, -apple-system, Segoe UI, Roboto, Helvetica, Arial, sans-serif" font-size="12" fill="#222222">123</text>
<line x1="360.00" y1="20.00" x2="360.00" y2="480.00" stroke="#E6E6E6" stroke-width="1"/>
<text x="360.00" y="500.00" text-anchor="middle" font-family="system-ui, -apple-system, Segoe UI, Roboto, Helvetica, Arial, sans-serif" font-size="12" fill="#222222">247</text>
<line x1="505.00" y1="20.00" x2="505.00" y2="480.00" stroke="#E6E6E6" stroke-width="1"/>
<text x="505.00" y="500.00" text-anchor="middle" font-family="system-ui, -apple-system, Segoe UI, Roboto, Helvetica, Arial, sans-serif" font-size="12" fill="#222222">370</text>
<line x1="650.00" y1="20.00" x2="650.00" y2="480.00" stroke="#E6E6E6" stroke-width="1"/>
<text x="650.00" y="500.00" text-anchor="middle" font-family="system-ui, -apple-system, Segoe UI, Roboto, Helvetica, Arial, sans-serif" font-size="12" fill="#222222">494</text>
<line x1="795.00" y1="20.00" x2="795.00" y2="480.00" stroke="#E6E6E6" stroke-width="1"/>
<text x="795.00" y="500.00" text-anchor="middle" font-family="system-ui, -apple-system, Segoe UI, Roboto, Helvetica, Arial, sans-serif" font-size="12" fill="#222222">617</text>
<line x1="940.00" y1="20.00" x2="940.00" y2="480.00" stroke="#E6E6E6" stroke-width="1"/>
<text x="940.00" y="500.00" text-anchor="middle" font-family="system-ui, -apple-system, Segoe UI, Roboto, Helvetica, Arial, sans-serif" font-size="12" fill="#222222">741</text>
<line x1="70.00" y1="480.00" x2="940.00" y2="480.00" stroke="#222222" stroke-width="1.5"/>
<line x1="70.00" y1="20.00" x2="70.00" y2="480.00" stroke="#222222" stroke-width="1.5"/>
<rect x="70.00" y="20.00" width="13.50" height="460.00" fill="#4C78A8"/>
<rect x="84.50" y="239.77" width="13.50" height="240.23" fill="#4C78A8"/>
<rect x="99.00" y="239.77" width="13.50" height="240.23" fill="#4C78A8"/>
<rect x="113.50" y="232.73" width="13.50" height="247.27" fill="#4C78A8"/>
<rect x="128.00" y="294.04" width="13.50" height="185.96" fill="#4C78A8"/>
<rect x="142.50" y="298.29" width="13.50" height="181.71" fill="#4C78A8"/>
<rect x="157.00" y="349.38" width="13.50" height="130.62" fill="#4C78A8"/>
<rect x="171.50" y="289.97" width="13.50" height="190.03" fill="#4C78A8"/>
<rect x="186.00" y="319.13" width="13.50" height="160.87" fill="#4C78A8"/>
<rect x="200.50" y="340.40" width="13.50" height="139.60" fill="#4C78A8"/>
<rect x="215.00" y="349.38" width="13.50" height="130.62" fill="#4C78A8"/>
<rect x="229.50" y="359.52" width="13.50" height="120.48" fill="#4C78A8"/>
<rect x="244.00" y="432.76" width="13.50" height="47.24" fill="#4C78A8"/>
<rect x="258.50" y="359.52" width="13.50" height="120.48" fill="#4C78A8"/>
<rect x="273.00" y="479.11" width="13.50" height="0.89" fill="#4C78A8"/>
<rect x="287.50" y="325.41" width="13.50" height="154.59" fill="#4C78A8"/>
<rect x="302.00" y="332.48" width="13.50" height="147.52" fill="#4C78A8"/>
<rect x="316.50" y="325.41" width="13.50" height="154.59" fill="#4C78A8"/>
<rect x="331.00" y="479.11" width="13.50" height="0.89" fill="#4C78A8"/>
<rect x="345.50" y="406.11" width="13.50" height="73.89" fill="#4C78A8"/>
<rect x="360.00" y="479.11" width="13.50" height="0.89" fill="#4C78A8"/>
<rect x="374.50" y="479.11" width="13.50" height="0.89" fill="#4C78A8"/>
<rect x="389.00" y="432.76" width="13.50" height="47.24" fill="#4C78A8"/>
<rect x="403.50" y="479.11" width="13.50" height="0.89" fill="#4C78A8"/>
<rect x="418.00" y="479.11" width="13.50" height="0.89" fill="#4C78A8"/>
<rect x="432.50" y="479.11" width="13.50" height="0.89" fill="#4C78A8"/>
<rect x="447.00" y="480.00" width="13.50" height="0.00" fill="#4C78A8"/>
<rect x="461.50" y="432.76" width="13.50" height="47.24" fill="#4C78A8"/>
<rect x="476.00" y="480.00" width="13.50" height="0.00" fill="#4C78A8"/>
<rect x="490.50" y="480.00" width="13.50" height="0.00" fill="#4C78A8"/>
<rect x="505.00" y="479.11" width="13.50" height="0.89" fill="#4C78A8"/>
<rect x="519.50" y="480.00" width="13.50" height="0.00" fill="#4C78A8"/>
<rect x="534.00" y="479.11" width="13.50" height="0.89" fill="#4C78A8"/>
<rect x="548.50" y="480.00" width="13.50" height="0.00" fill="#4C78A8"/>
<rect x="563.00" y="479.11" width="13.50" height="0.89" fill="#4C78A8"/>
<rect x="577.50" y="480.00" width="13.50" height="0.00" fill="#4C78A8"/>
<rect x="592.00" y="480.00" width="13.50" height="0.00" fill="#4C78A8"/>
<rect x="606.50" y="480.00" width="13.50" height="0.00" fill="#4C78A8"/>
<rect x="621.00" y="480.00" width="13.50" height="0.00" fill="#4C78A8"/>
<rect x="635.50" y="479.11" width="13.50" height="0.89" fill="#4C78A8"/>
<rect x="650.00" y="480.00" width="13.50" height="0.00" fill="#4C78A8"/>
<rect x="664.50" y="480.00" width="13.50" height="0.00" fill="#4C78A8"/>
<rect x="679.00" y="480.00" width="13.50" height="0.00" fill="#4C78A8"/>
<rect x="693.50" y="480.00" width="13.50" height="0.00" fill="#4C78A8"/>
<rect x="708.00" y="480.00" width="13.50" height="0.00" fill="#4C78A8"/>
<rect x="722.50" y="432.76" width="13.50" height="47.24" fill="#4C78A8"/>
<rect x="737.00" y="480.00" width="13.50" height="0.00" fill="#4C78A8"/>
<rect x="751.50" y="480.00" width="13.50" height="0.00" fill="#4C78A8"/>
<rect x="766.00" y="480.00" width="13.50" height="0.00" fill="#4C78A8"/>
<rect x="780.50" y="480.00" width="13.50" height="0.00" fill="#4C78A8"/>
<rect x="795.00" y="480.00" width="13.50" height="0.00" fill="#4C78A8"/>
<rect x="809.50" y="480.00" width="13.50" height="0.00" fill="#4C78A8"/>
<rect x="824.00" y="480.00" width="13.50" height="0.00" fill="#4C78A8"/>
<rect x="838.50" y="480.00" width="13.50" height="0.00" fill="#4C78A8"/>
<rect x="853.00" y="480.00" width="13.50" height="0.00" fill="#4C78A8"/>
<rect x="867.50" y="480.00" width="13.50" height="0.00" fill="#4C78A8"/>
<rect x="882.00" y="479.11" width="13.50" height="0.89" fill="#4C78A8"/>
<rect x="896.50" y="480.00" width="13.50" height="0.00" fill="#4C78A8"/>
<rect x="911.00" y="480.00" width="13.50" height="0.00" fill="#4C78A8"/>
<rect x="925.50" y="479.11" width="13.50" height="0.89" fill="#4C78A8"/>
<text x="480.00" y="28" text-anchor="middle" font-family="system-ui, -apple-system, Segoe UI, Roboto, Helvetica, Arial, sans-serif" font-size="18" fill="#222222">propagation lag_days histogram (hop=13, n=1221)</text>
<text x="480.00" y="48" text-anchor="middle" font-family="system-ui, -apple-system, Segoe UI, Roboto, Helvetica, Arial, sans-serif" font-size="12" fill="#222222">bins=60, x_max=741, y_scale=log10</text>
<text x="480.00" y="520.00" text-anchor="middle" font-family="system-ui, -apple-system, Segoe UI, Roboto, Helvetica, Arial, sans-serif" font-size="14" fill="#222222">lag_days</text>
<text x="18" y="270.00" text-anchor="middle" font-family="system-ui, -apple-system, Segoe UI, Roboto, Helvetica, Arial, sans-serif" font-size="14" fill="#222222" transform="rotate(-90 18 270.00)">count (log10)</text>
</svg>