<svg xmlns="http://www.w3.org/2000/svg" width="960" height="540" viewBox="0 0 960 540">
<rect x="0" y="0" width="960" height="540" fill="white"/>
<line x1="70.00" y1="480.00" x2="940.00" y2="480.00" stroke="#E6E6E6" stroke-width="1"/>
<text x="60.00" y="484.00" text-anchor="end" font-family="system-ui, -apple-system, Segoe UI, Roboto, Helvetica, Arial, sans-serif" font-size="12" fill="#222222">0</text>
<line x1="70.00" y1="389.54" x2="940.00" y2="389.54" stroke="#E6E6E6" stroke-width="1"/>
<text x="60.00" y="393.54" text-anchor="end" font-family="system-ui, -apple-system, Segoe UI, Roboto, Helvetica, Arial, sans-serif" font-size="12" fill="#222222">1</text>
<line x1="70.00" y1="299.07" x2="940.00" y2="299.07" stroke="#E6E6E6" stroke-width="1"/>
<text x="60.00" y="303.07" text-anchor="end" font-family="system-ui, -apple-system, Segoe UI, Roboto, Helvetica, Arial, sans-serif" font-size="12" fill="#222222">2</text>
<line x1="70.00" y1="208.61" x2="940.00" y2="208.61" stroke="#E6E6E6" stroke-width="1"/>
<text x="60.00" y="212.61" text-anchor="end" font-family="system-ui, -apple-system, Segoe UI, Roboto, Helvetica, Arial, sans-serif" font-size="12" fill="#222222">3</text>
<line x1="70.00" y1="118.14" x2="940.00" y2="118.14" stroke="#E6E6E6" stroke-width="1"/>
<text x="60.00" y="122.14" text-anchor="end" font-family="system-ui, -apple-system, Segoe UI, Roboto, Helvetica, Arial, sans-serif" font-size="12" fill="#222222">4</text>
<line x1="70.00" y1="27.68" x2="940.00" y2="27.68" stroke="#E6E6E6" stroke-width="1"/>
<text x="60.00" y="31.68" text-anchor="end" font-family="system-ui, -apple-system, Segoe UI, Roboto, Helvetica, Arial, sans-serif" font-size="12" fill="#222222">5</text>
<line x1="70.00" y1="-62.78" x2="940.00" y2="-62.78" stroke="#E6E6E6" stroke-width="1"/>
<text x="60.00" y="-58.78" text-anchor="end" font-family="system-ui, -apple-system, Segoe UI, Roboto, Helvetica, Arial, sans-serif" font-size="12" fill="#222222">6</text>
<line x1="70.00" y1="20.00" x2="70.00" y2="480.00" stroke="#E6E6E6" stroke-width="1"/>
<text x="70.00" y="500.00" text-anchor="middle" font-family="system-ui, -apple-system, Segoe UI, Roboto, Helvetica, Arial, sans-serif" font-size="12" fill="#222222">0</text>
<line x1="215.00" y1="20.00" x2="215.00" y2="480.00" stroke="#E6E6E6" stroke-width="1"/>
<text x="215.00" y="500.00" text-anchor="middle" font-family="system-ui, -apple-system, Segoe UI, Roboto, Helvetica, Arial, sans-serif" font-size="12" fill="#222222">343</text>
<line x1="360.00" y1="20.00" x2="360.00" y2="480.00" stroke="#E6E6E6" stroke-width="1"/>
<text x="360.00" y="500.00" text-anchor="middle" font-family="system-ui, -apple-system, Segoe UI, Roboto, Helvetica, Arial, sans-serif" font-size="12" fill="#222222">686</text>
<line x1="505.00" y1="20.00" x2="505.00" y2="480.00" stroke="#E6E6E6" stroke-width="1"/>
<text x="505.00" y="500.00" text-anchor="middle" font-family="system-ui, -apple-system, Segoe UI, Roboto, Helvetica, Arial, sans-serif" font-size="12" fill="#222222">1029</text>
<line x1="650.00" y1="20.00" x2="650.00" y2="480.00" stroke="#E6E6E6" stroke-width="1"/>
<text x="650.00" y="500.00" text-anchor="middle" font-family="system-ui, -apple-system, Segoe UI, Roboto, Helvetica, Arial, sans-serif" font-size="12" fill="#222222">1372</text>
<line x1="795.00" y1="20.00" x2="795.00" y2="480.00" stroke="#E6E6E6" stroke-width="1"/>
<text x="795.00" y="500.00" text-anchor="middle" font-family="system-ui, -apple-system, Segoe UI, Roboto, Helvetica, Arial, sans-serif" font-size="12" fill="#222222">1715</text>
<line x1="940.00" y1="20.00" x2="940.00" y2="480.00" stroke="#E6E6E6" stroke-width="1"/>
<text x="940.00" y="500.00" text-anchor="middle" font-family="system-ui, -apple-system, Segoe UI, Roboto, Helvetica, Arial, sans-serif" font-size="12" fill="#222222">2059</text>
<line x1="70.00" y1="480.00" x2="940.00" y2="480.00" stroke="#222222" stroke-width="1.5"/>
<line x1="70.00" y1="20.00" x2="70.00" y2="480.00" stroke="#222222" stroke-width="1.5"/>
<rect x="70.00" y="20.00" width="13.50" height="460.00" fill="#4C78A8"/>
<rect x="84.50" y="115.76" width="13.50" height="364.24" fill="#4C78A8"/>
<rect x="99.00" y="132.85" width="13.50" height="347.15" fill="#4C78A8"/>
<rect x="113.50" y="137.02" width="13.50" height="342.98" fill="#4C78A8"/>
<rect x="128.00" y="152.70" width="13.50" height="327.30" fill="#4C78A8"/>
<rect x="142.50" y="168.69" width="13.50" height="311.31" fill="#4C78A8"/>
<rect x="157.00" y="174.38" width="13.50" height="305.62" fill="#4C78A8"/>
<rect x="171.50" y="183.05" width="13.50" height="296.95" fill="#4C78A8"/>
<rect x="186.00" y="180.48" width="13.50" height="299.52" fill="#4C78A8"/>
<rect x="200.50" y="175.09" width="13.50" height="304.91" fill="#4C78A8"/>
<rect x="215.00" y="201.53" width="13.50" height="278.47" fill="#4C78A8"/>
<rect x="229.50" y="209.48" width="13.50" height="270.52" fill="#4C78A8"/>
<rect x="244.00" y="219.33" width="13.50" height="260.67" fill="#4C78A8"/>
<rect x="258.50" y="230.27" width="13.50" height="249.73" fill="#4C78A8"/>
<rect x="273.00" y="235.26" width="13.50" height="244.74" fill="#4C78A8"/>
<rect x="287.50" y="241.69" width="13.50" height="238.31" fill="#4C78A8"/>
<rect x="302.00" y="243.16" width="13.50" height="236.84" fill="#4C78A8"/>
<rect x="316.50" y="254.05" width="13.50" height="225.95" fill="#4C78A8"/>
<rect x="331.00" y="262.49" width="13.50" height="217.51" fill="#4C78A8"/>
<rect x="345.50" y="271.15" width="13.50" height="208.85" fill="#4C78A8"/>
<rect x="360.00" y="276.04" width="13.50" height="203.96" fill="#4C78A8"/>
<rect x="374.50" y="280.95" width="13.50" height="199.05" fill="#4C78A8"/>
<rect x="389.00" y="279.04" width="13.50" height="200.96" fill="#4C78A8"/>
<rect x="403.50" y="297.88" width="13.50" height="182.12" fill="#4C78A8"/>
<rect x="418.00" y="310.90" width="13.50" height="169.10" fill="#4C78A8"/>
<rect x="432.50" y="310.90" width="13.50" height="169.10" fill="#4C78A8"/>
<rect x="447.00" y="326.13" width="13.50" height="153.87" fill="#4C78A8"/>
<rect x="461.50" y="332.88" width="13.50" height="147.12" fill="#4C78A8"/>
<rect x="476.00" y="330.50" width="13.50" height="149.50" fill="#4C78A8"/>
<rect x="490.50" y="338.13" width="13.50" height="141.87" fill="#4C78A8"/>
<rect x="505.00" y="338.13" width="13.50" height="141.87" fill="#4C78A8"/>
<rect x="519.50" y="351.35" width="13.50" height="128.65" fill="#4C78A8"/>
<rect x="534.00" y="341.04" width="13.50" height="138.96" fill="#4C78A8"/>
<rect x="548.50" y="347.60" width="13.50" height="132.40" fill="#4C78A8"/>
<rect x="563.00" y="344.18" width="13.50" height="135.82" fill="#4C78A8"/>
<rect x="577.50" y="371.42" width="13.50" height="108.58" fill="#4C78A8"/>
<rect x="592.00" y="371.42" width="13.50" height="108.58" fill="#4C78A8"/>
<rect x="606.50" y="378.58" width="13.50" height="101.42" fill="#4C78A8"/>
<rect x="621.00" y="398.65" width="13.50" height="81.35" fill="#4C78A8"/>
<rect x="635.50" y="441.81" width="13.50" height="38.19" fill="#4C78A8"/>
<rect x="650.00" y="371.42" width="13.50" height="108.58" fill="#4C78A8"/>
<rect x="664.50" y="414.58" width="13.50" height="65.42" fill="#4C78A8"/>
<rect x="679.00" y="360.11" width="13.50" height="119.89" fill="#4C78A8"/>
<rect x="693.50" y="398.65" width="13.50" height="81.35" fill="#4C78A8"/>
<rect x="708.00" y="398.65" width="13.50" height="81.35" fill="#4C78A8"/>
<rect x="722.50" y="414.58" width="13.50" height="65.42" fill="#4C78A8"/>
<rect x="737.00" y="441.81" width="13.50" height="38.19" fill="#4C78A8"/>
<rect x="751.50" y="398.65" width="13.50" height="81.35" fill="#4C78A8"/>
<rect x="766.00" y="414.58" width="13.50" height="65.42" fill="#4C78A8"/>
<rect x="780.50" y="441.81" width="13.50" height="38.19" fill="#4C78A8"/>
<rect x="795.00" y="414.58" width="13.50" height="65.42" fill="#4C78A8"/>
<rect x="809.50" y="441.81" width="13.50" height="38.19" fill="#4C78A8"/>
<rect x="824.00" y="441.81" width="13.50" height="38.19" fill="#4C78A8"/>
<rect x="838.50" y="480.00" width="13.50" height="0.00" fill="#4C78A8"/>
<rect x="853.00" y="480.00" width="13.50" height="0.00" fill="#4C78A8"/>
<rect x="867.50" y="480.00" width="13.50" height="0.00" fill="#4C78A8"/>
<rect x="882.00" y="480.00" width="13.50" height="0.00" fill="#4C78A8"/>
<rect x="896.50" y="480.00" width="13.50" height="0.00" fill="#4C78A8"/>
<rect x="911.00" y="480.00" width="13.50" height="0.00" fill="#4C78A8"/>
<rect x="925.50" y="441.81" width="13.50" height="38.19" fill="#4C78A8"/>
<text x="480.00" y="28" text-anchor="middle" font-family="system-ui, -apple-system, Segoe UI, Roboto, Helvetica, Arial, sans-serif" font-size="18" fill="#222222">propagation lag_days histogram (hop=6, n=166017)</text>
<text x="480.00" y="48" text-anchor="middle" font-family="system-ui, -apple-system, Segoe UI, Roboto, Helvetica, Arial, sans-serif" font-size="12" fill="#222222">bins=60, x_max=2059, y_scale=log10</text>
<text x="480.00" y="520.00" text-anchor="middle" font-family="system-ui, -apple-system, Segoe UI, Roboto, Helvetica, Arial, sans-serif" font-size="14" fill="#222222">lag_days</text>
<text x="18" y="270.00" text-anchor="middle" font-family="system-ui, -apple-system, Segoe UI, Roboto, Helvetica, Arial, sans-serif" font-size="14" fill="#222222" transform="rotate(-90 18 270.00)">count (log10)</text>
</svg>