<svg xmlns="http://www.w3.org/2000/svg" width="960" height="540" viewBox="0 0 960 540">
<rect x="0" y="0" width="960" height="540" fill="white"/>
<line x1="70.00" y1="480.00" x2="940.00" y2="480.00" stroke="#E6E6E6" stroke-width="1"/>
<text x="60.00" y="484.00" text-anchor="end" font-family="system-ui, -apple-system, Segoe UI, Roboto, Helvetica, Arial, sans-serif" font-size="12" fill="#222222">0</text>
<line x1="70.00" y1="375.42" x2="940.00" y2="375.42" stroke="#E6E6E6" stroke-width="1"/>
<text x="60.00" y="379.42" text-anchor="end" font-family="system-ui, -apple-system, Segoe UI, Roboto, Helvetica, Arial, sans-serif" font-size="12" fill="#222222">1</text>
<line x1="70.00" y1="270.84" x2="940.00" y2="270.84" stroke="#E6E6E6" stroke-width="1"/>
<text x="60.00" y="274.84" text-anchor="end" font-family="system-ui, -apple-system, Segoe UI, Roboto, Helvetica, Arial, sans-serif" font-size="12" fill="#222222">2</text>
<line x1="70.00" y1="166.26" x2="940.00" y2="166.26" stroke="#E6E6E6" stroke-width="1"/>
<text x="60.00" y="170.26" text-anchor="end" font-family="system-ui, -apple-system, Segoe UI, Roboto, Helvetica, Arial, sans-serif" font-size="12" fill="#222222">3</text>
<line x1="70.00" y1="61.68" x2="940.00" y2="61.68" stroke="#E6E6E6" stroke-width="1"/>
<text x="60.00" y="65.68" text-anchor="end" font-family="system-ui, -apple-system, Segoe UI, Roboto, Helvetica, Arial, sans-serif" font-size="12" fill="#222222">4</text>
<line x1="70.00" y1="-42.91" x2="940.00" y2="-42.91" stroke="#E6E6E6" stroke-width="1"/>
<text x="60.00" y="-38.91" text-anchor="end" font-family="system-ui, -apple-system, Segoe UI, Roboto, Helvetica, Arial, sans-serif" font-size="12" fill="#222222">5</text>
<line x1="70.00" y1="20.00" x2="70.00" y2="480.00" stroke="#E6E6E6" stroke-width="1"/>
<text x="70.00" y="500.00" text-anchor="middle" font-family="system-ui, -apple-system, Segoe UI, Roboto, Helvetica, Arial, sans-serif" font-size="12" fill="#222222">0</text>
<line x1="215.00" y1="20.00" x2="215.00" y2="480.00" stroke="#E6E6E6" stroke-width="1"/>
<text x="215.00" y="500.00" text-anchor="middle" font-family="system-ui, -apple-system, Segoe UI, Roboto, Helvetica, Arial, sans-serif" font-size="12" fill="#222222">299</text>
<line x1="360.00" y1="20.00" x2="360.00" y2="480.00" stroke="#E6E6E6" stroke-width="1"/>
<text x="360.00" y="500.00" text-anchor="middle" font-family="system-ui, -apple-system, Segoe UI, Roboto, Helvetica, Arial, sans-serif" font-size="12" fill="#222222">599</text>
<line x1="505.00" y1="20.00" x2="505.00" y2="480.00" stroke="#E6E6E6" stroke-width="1"/>
<text x="505.00" y="500.00" text-anchor="middle" font-family="system-ui, -apple-system, Segoe UI, Roboto, Helvetica, Arial, sans-serif" font-size="12" fill="#222222">898</text>
<line x1="650.00" y1="20.00" x2="650.00" y2="480.00" stroke="#E6E6E6" stroke-width="1"/>
<text x="650.00" y="500.00" text-anchor="middle" font-family="system-ui, -apple-system, Segoe UI, Roboto, Helvetica, Arial, sans-serif" font-size="12" fill="#222222">1198</text>
<line x1="795.00" y1="20.00" x2="795.00" y2="480.00" stroke="#E6E6E6" stroke-width="1"/>
<text x="795.00" y="500.00" text-anchor="middle" font-family="system-ui, -apple-system, Segoe UI, Roboto, Helvetica, Arial, sans-serif" font-size="12" fill="#222222">1497</text>
<line x1="940.00" y1="20.00" x2="940.00" y2="480.00" stroke="#E6E6E6" stroke-width="1"/>
<text x="940.00" y="500.00" text-anchor="middle" font-family="system-ui, -apple-system, Segoe UI, Roboto, Helvetica, Arial, sans-serif" font-size="12" fill="#222222">1797</text>
<line x1="70.00" y1="480.00" x2="940.00" y2="480.00" stroke="#222222" stroke-width="1.5"/>
<line x1="70.00" y1="20.00" x2="70.00" y2="480.00" stroke="#222222" stroke-width="1.5"/>
<rect x="70.00" y="20.00" width="13.50" height="460.00" fill="#4C78A8"/>
<rect x="84.50" y="138.04" width="13.50" height="341.96" fill="#4C78A8"/>
<rect x="99.00" y="160.87" width="13.50" height="319.13" fill="#4C78A8"/>
<rect x="113.50" y="162.07" width="13.50" height="317.93" fill="#4C78A8"/>
<rect x="128.00" y="199.03" width="13.50" height="280.97" fill="#4C78A8"/>
<rect x="142.50" y="171.56" width="13.50" height="308.44" fill="#4C78A8"/>
<rect x="157.00" y="212.49" width="13.50" height="267.51" fill="#4C78A8"/>
<rect x="171.50" y="233.84" width="13.50" height="246.16" fill="#4C78A8"/>
<rect x="186.00" y="247.38" width="13.50" height="232.62" fill="#4C78A8"/>
<rect x="200.50" y="257.41" width="13.50" height="222.59" fill="#4C78A8"/>
<rect x="215.00" y="257.77" width="13.50" height="222.23" fill="#4C78A8"/>
<rect x="229.50" y="268.14" width="13.50" height="211.86" fill="#4C78A8"/>
<rect x="244.00" y="264.13" width="13.50" height="215.87" fill="#4C78A8"/>
<rect x="258.50" y="271.78" width="13.50" height="208.22" fill="#4C78A8"/>
<rect x="273.00" y="291.34" width="13.50" height="188.66" fill="#4C78A8"/>
<rect x="287.50" y="282.23" width="13.50" height="197.77" fill="#4C78A8"/>
<rect x="302.00" y="296.69" width="13.50" height="183.31" fill="#4C78A8"/>
<rect x="316.50" y="338.97" width="13.50" height="141.03" fill="#4C78A8"/>
<rect x="331.00" y="333.74" width="13.50" height="146.26" fill="#4C78A8"/>
<rect x="345.50" y="318.04" width="13.50" height="161.96" fill="#4C78A8"/>
<rect x="360.00" y="329.96" width="13.50" height="150.04" fill="#4C78A8"/>
<rect x="374.50" y="363.29" width="13.50" height="116.71" fill="#4C78A8"/>
<rect x="389.00" y="346.16" width="13.50" height="133.84" fill="#4C78A8"/>
<rect x="403.50" y="348.83" width="13.50" height="131.17" fill="#4C78A8"/>
<rect x="418.00" y="378.95" width="13.50" height="101.05" fill="#4C78A8"/>
<rect x="432.50" y="384.64" width="13.50" height="95.36" fill="#4C78A8"/>
<rect x="447.00" y="391.14" width="13.50" height="88.86" fill="#4C78A8"/>
<rect x="461.50" y="419.26" width="13.50" height="60.74" fill="#4C78A8"/>
<rect x="476.00" y="426.26" width="13.50" height="53.74" fill="#4C78A8"/>
<rect x="490.50" y="426.26" width="13.50" height="53.74" fill="#4C78A8"/>
<rect x="505.00" y="426.26" width="13.50" height="53.74" fill="#4C78A8"/>
<rect x="519.50" y="476.15" width="13.50" height="3.85" fill="#4C78A8"/>
<rect x="534.00" y="444.67" width="13.50" height="35.33" fill="#4C78A8"/>
<rect x="548.50" y="476.15" width="13.50" height="3.85" fill="#4C78A8"/>
<rect x="563.00" y="419.26" width="13.50" height="60.74" fill="#4C78A8"/>
<rect x="577.50" y="371.57" width="13.50" height="108.43" fill="#4C78A8"/>
<rect x="592.00" y="378.95" width="13.50" height="101.05" fill="#4C78A8"/>
<rect x="606.50" y="419.26" width="13.50" height="60.74" fill="#4C78A8"/>
<rect x="621.00" y="391.14" width="13.50" height="88.86" fill="#4C78A8"/>
<rect x="635.50" y="407.84" width="13.50" height="72.16" fill="#4C78A8"/>
<rect x="650.00" y="398.73" width="13.50" height="81.27" fill="#4C78A8"/>
<rect x="664.50" y="444.67" width="13.50" height="35.33" fill="#4C78A8"/>
<rect x="679.00" y="426.26" width="13.50" height="53.74" fill="#4C78A8"/>
<rect x="693.50" y="444.67" width="13.50" height="35.33" fill="#4C78A8"/>
<rect x="708.00" y="476.15" width="13.50" height="3.85" fill="#4C78A8"/>
<rect x="722.50" y="444.67" width="13.50" height="35.33" fill="#4C78A8"/>
<rect x="737.00" y="426.26" width="13.50" height="53.74" fill="#4C78A8"/>
<rect x="751.50" y="426.26" width="13.50" height="53.74" fill="#4C78A8"/>
<rect x="766.00" y="391.14" width="13.50" height="88.86" fill="#4C78A8"/>
<rect x="780.50" y="444.67" width="13.50" height="35.33" fill="#4C78A8"/>
<rect x="795.00" y="476.15" width="13.50" height="3.85" fill="#4C78A8"/>
<rect x="809.50" y="480.00" width="13.50" height="0.00" fill="#4C78A8"/>
<rect x="824.00" y="426.26" width="13.50" height="53.74" fill="#4C78A8"/>
<rect x="838.50" y="480.00" width="13.50" height="0.00" fill="#4C78A8"/>
<rect x="853.00" y="444.67" width="13.50" height="35.33" fill="#4C78A8"/>
<rect x="867.50" y="476.15" width="13.50" height="3.85" fill="#4C78A8"/>
<rect x="882.00" y="480.00" width="13.50" height="0.00" fill="#4C78A8"/>
<rect x="896.50" y="476.15" width="13.50" height="3.85" fill="#4C78A8"/>
<rect x="911.00" y="426.26" width="13.50" height="53.74" fill="#4C78A8"/>
<rect x="925.50" y="444.67" width="13.50" height="35.33" fill="#4C78A8"/>
<text x="480.00" y="28" text-anchor="middle" font-family="system-ui, -apple-system, Segoe UI, Roboto, Helvetica, Arial, sans-serif" font-size="18" fill="#222222">propagation lag_days histogram (hop=9, n=32038)</text>
<text x="480.00" y="48" text-anchor="middle" font-family="system-ui, -apple-system, Segoe UI, Roboto, Helvetica, Arial, sans-serif" font-size="12" fill="#222222">bins=60, x_max=1797, y_scale=log10</text>
<text x="480.00" y="520.00" text-anchor="middle" font-family="system-ui, -apple-system, Segoe UI, Roboto, Helvetica, Arial, sans-serif" font-size="14" fill="#222222">lag_days</text>
<text x="18" y="270.00" text-anchor="middle" font-family="system-ui, -apple-system, Segoe UI, Roboto, Helvetica, Arial, sans-serif" font-size="14" fill="#222222" transform="rotate(-90 18 270.00)">count (log10)</text>
</svg>