<svg xmlns="http://www.w3.org/2000/svg" width="960" height="540" viewBox="0 0 960 540">
<rect x="0" y="0" width="960" height="540" fill="white"/>
<line x1="70" y1="480.00" x2="940" y2="480.00" stroke="#E6E6E6" stroke-width="1"/>
<text x="60" y="484.00" text-anchor="end" font-family="system-ui, -apple-system, Segoe UI, Roboto, Helvetica, Arial, sans-serif" font-size="12" fill="#222222">0</text>
<line x1="70" y1="333.04" x2="940" y2="333.04" stroke="#E6E6E6" stroke-width="1"/>
<text x="60" y="337.04" text-anchor="end" font-family="system-ui, -apple-system, Segoe UI, Roboto, Helvetica, Arial, sans-serif" font-size="12" fill="#222222">200</text>
<line x1="70" y1="186.07" x2="940" y2="186.07" stroke="#E6E6E6" stroke-width="1"/>
<text x="60" y="190.07" text-anchor="end" font-family="system-ui, -apple-system, Segoe UI, Roboto, Helvetica, Arial, sans-serif" font-size="12" fill="#222222">400</text>
<line x1="70" y1="39.11" x2="940" y2="39.11" stroke="#E6E6E6" stroke-width="1"/>
<text x="60" y="43.11" text-anchor="end" font-family="system-ui, -apple-system, Segoe UI, Roboto, Helvetica, Arial, sans-serif" font-size="12" fill="#222222">600</text>
<line x1="70" y1="-107.86" x2="940" y2="-107.86" stroke="#E6E6E6" stroke-width="1"/>
<text x="60" y="-103.86" text-anchor="end" font-family="system-ui, -apple-system, Segoe UI, Roboto, Helvetica, Arial, sans-serif" font-size="12" fill="#222222">800</text>
<line x1="70.00" y1="20" x2="70.00" y2="480" stroke="#E6E6E6" stroke-width="1"/>
<text x="70.00" y="500" text-anchor="middle" font-family="system-ui, -apple-system, Segoe UI, Roboto, Helvetica, Arial, sans-serif" font-size="12" fill="#222222">0</text>
<line x1="343.50" y1="20" x2="343.50" y2="480" stroke="#E6E6E6" stroke-width="1"/>
<text x="343.50" y="500" text-anchor="middle" font-family="system-ui, -apple-system, Segoe UI, Roboto, Helvetica, Arial, sans-serif" font-size="12" fill="#222222">1000</text>
<line x1="617.00" y1="20" x2="617.00" y2="480" stroke="#E6E6E6" stroke-width="1"/>
<text x="617.00" y="500" text-anchor="middle" font-family="system-ui, -apple-system, Segoe UI, Roboto, Helvetica, Arial, sans-serif" font-size="12" fill="#222222">2000</text>
<line x1="890.50" y1="20" x2="890.50" y2="480" stroke="#E6E6E6" stroke-width="1"/>
<text x="890.50" y="500" text-anchor="middle" font-family="system-ui, -apple-system, Segoe UI, Roboto, Helvetica, Arial, sans-serif" font-size="12" fill="#222222">3000</text>
<line x1="1164.00" y1="20" x2="1164.00" y2="480" stroke="#E6E6E6" stroke-width="1"/>
<text x="1164.00" y="500" text-anchor="middle" font-family="system-ui, -apple-system, Segoe UI, Roboto, Helvetica, Arial, sans-serif" font-size="12" fill="#222222">4000</text>
<line x1="70" y1="480" x2="940" y2="480" stroke="#222222" stroke-width="1.5"/>
<line x1="70" y1="20" x2="70" y2="480" stroke="#222222" stroke-width="1.5"/>
<rect x="70.00" y="296.29" width="13.50" height="183.71" fill="#4C78A8"/>
<rect x="84.50" y="354.35" width="13.50" height="125.65" fill="#4C78A8"/>
<rect x="99.00" y="373.45" width="13.50" height="106.55" fill="#4C78A8"/>
<rect x="113.50" y="371.98" width="13.50" height="108.02" fill="#4C78A8"/>
<rect x="128.00" y="410.93" width="13.50" height="69.07" fill="#4C78A8"/>
<rect x="142.50" y="400.64" width="13.50" height="79.36" fill="#4C78A8"/>
<rect x="157.00" y="427.09" width="13.50" height="52.91" fill="#4C78A8"/>
<rect x="171.50" y="419.74" width="13.50" height="60.26" fill="#4C78A8"/>
<rect x="186.00" y="433.71" width="13.50" height="46.29" fill="#4C78A8"/>
<rect x="200.50" y="427.83" width="13.50" height="52.17" fill="#4C78A8"/>
<rect x="215.00" y="358.02" width="13.50" height="121.98" fill="#4C78A8"/>
<rect x="229.50" y="449.87" width="13.50" height="30.13" fill="#4C78A8"/>
<rect x="244.00" y="449.14" width="13.50" height="30.86" fill="#4C78A8"/>
<rect x="258.50" y="452.08" width="13.50" height="27.92" fill="#4C78A8"/>
<rect x="273.00" y="463.10" width="13.50" height="16.90" fill="#4C78A8"/>
<rect x="287.50" y="465.30" width="13.50" height="14.70" fill="#4C78A8"/>
<rect x="302.00" y="442.52" width="13.50" height="37.48" fill="#4C78A8"/>
<rect x="316.50" y="454.28" width="13.50" height="25.72" fill="#4C78A8"/>
<rect x="331.00" y="442.52" width="13.50" height="37.48" fill="#4C78A8"/>
<rect x="345.50" y="451.34" width="13.50" height="28.66" fill="#4C78A8"/>
<rect x="360.00" y="452.08" width="13.50" height="27.92" fill="#4C78A8"/>
<rect x="374.50" y="461.63" width="13.50" height="18.37" fill="#4C78A8"/>
<rect x="389.00" y="20.00" width="13.50" height="460.00" fill="#4C78A8"/>
<rect x="403.50" y="455.02" width="13.50" height="24.98" fill="#4C78A8"/>
<rect x="418.00" y="468.24" width="13.50" height="11.76" fill="#4C78A8"/>
<rect x="432.50" y="466.04" width="13.50" height="13.96" fill="#4C78A8"/>
<rect x="447.00" y="471.18" width="13.50" height="8.82" fill="#4C78A8"/>
<rect x="461.50" y="455.75" width="13.50" height="24.25" fill="#4C78A8"/>
<rect x="476.00" y="461.63" width="13.50" height="18.37" fill="#4C78A8"/>
<rect x="490.50" y="452.08" width="13.50" height="27.92" fill="#4C78A8"/>
<rect x="505.00" y="464.57" width="13.50" height="15.43" fill="#4C78A8"/>
<rect x="519.50" y="468.24" width="13.50" height="11.76" fill="#4C78A8"/>
<rect x="534.00" y="455.02" width="13.50" height="24.98" fill="#4C78A8"/>
<rect x="548.50" y="471.92" width="13.50" height="8.08" fill="#4C78A8"/>
<rect x="563.00" y="474.86" width="13.50" height="5.14" fill="#4C78A8"/>
<rect x="577.50" y="474.86" width="13.50" height="5.14" fill="#4C78A8"/>
<rect x="592.00" y="476.33" width="13.50" height="3.67" fill="#4C78A8"/>
<rect x="606.50" y="470.45" width="13.50" height="9.55" fill="#4C78A8"/>
<rect x="621.00" y="473.39" width="13.50" height="6.61" fill="#4C78A8"/>
<rect x="635.50" y="474.12" width="13.50" height="5.88" fill="#4C78A8"/>
<rect x="650.00" y="474.86" width="13.50" height="5.14" fill="#4C78A8"/>
<rect x="664.50" y="474.12" width="13.50" height="5.88" fill="#4C78A8"/>
<rect x="679.00" y="476.33" width="13.50" height="3.67" fill="#4C78A8"/>
<rect x="693.50" y="475.59" width="13.50" height="4.41" fill="#4C78A8"/>
<rect x="708.00" y="478.53" width="13.50" height="1.47" fill="#4C78A8"/>
<rect x="722.50" y="475.59" width="13.50" height="4.41" fill="#4C78A8"/>
<rect x="737.00" y="474.12" width="13.50" height="5.88" fill="#4C78A8"/>
<rect x="751.50" y="476.33" width="13.50" height="3.67" fill="#4C78A8"/>
<rect x="766.00" y="477.06" width="13.50" height="2.94" fill="#4C78A8"/>
<rect x="780.50" y="479.27" width="13.50" height="0.73" fill="#4C78A8"/>
<rect x="795.00" y="478.53" width="13.50" height="1.47" fill="#4C78A8"/>
<rect x="809.50" y="479.27" width="13.50" height="0.73" fill="#4C78A8"/>
<rect x="824.00" y="480.00" width="13.50" height="0.00" fill="#4C78A8"/>
<rect x="838.50" y="479.27" width="13.50" height="0.73" fill="#4C78A8"/>
<rect x="853.00" y="480.00" width="13.50" height="0.00" fill="#4C78A8"/>
<rect x="867.50" y="480.00" width="13.50" height="0.00" fill="#4C78A8"/>
<rect x="882.00" y="480.00" width="13.50" height="0.00" fill="#4C78A8"/>
<rect x="896.50" y="479.27" width="13.50" height="0.73" fill="#4C78A8"/>
<rect x="911.00" y="479.27" width="13.50" height="0.73" fill="#4C78A8"/>
<rect x="925.50" y="479.27" width="13.50" height="0.73" fill="#4C78A8"/>
<text x="480.00" y="28" text-anchor="middle" font-family="system-ui, -apple-system, Segoe UI, Roboto, Helvetica, Arial, sans-serif" font-size="18" fill="#222222">lag_days histogram (severity=CRITICAL, n=2784)</text>
<text x="480.00" y="48" text-anchor="middle" font-family="system-ui, -apple-system, Segoe UI, Roboto, Helvetica, Arial, sans-serif" font-size="12" fill="#222222">bins=60, x_max=3181, y_scale=linear</text>
<text x="480.00" y="520" text-anchor="middle" font-family="system-ui, -apple-system, Segoe UI, Roboto, Helvetica, Arial, sans-serif" font-size="14" fill="#222222">lag_days</text>
<text x="18" y="270.00" text-anchor="middle" font-family="system-ui, -apple-system, Segoe UI, Roboto, Helvetica, Arial, sans-serif" font-size="14" fill="#222222" transform="rotate(-90 18 270.00)">count</text>
</svg>
