<svg xmlns="http://www.w3.org/2000/svg" width="960" height="540" viewBox="0 0 960 540">
<rect x="0" y="0" width="960" height="540" fill="white"/>
<line x1="70" y1="480.00" x2="940" y2="480.00" stroke="#E6E6E6" stroke-width="1"/>
<text x="60" y="484.00" text-anchor="end" font-family="system-ui, -apple-system, Segoe UI, Roboto, Helvetica, Arial, sans-serif" font-size="12" fill="#222222">0</text>
<line x1="70" y1="307.91" x2="940" y2="307.91" stroke="#E6E6E6" stroke-width="1"/>
<text x="60" y="311.91" text-anchor="end" font-family="system-ui, -apple-system, Segoe UI, Roboto, Helvetica, Arial, sans-serif" font-size="12" fill="#222222">1000</text>
<line x1="70" y1="135.82" x2="940" y2="135.82" stroke="#E6E6E6" stroke-width="1"/>
<text x="60" y="139.82" text-anchor="end" font-family="system-ui, -apple-system, Segoe UI, Roboto, Helvetica, Arial, sans-serif" font-size="12" fill="#222222">2000</text>
<line x1="70" y1="-36.27" x2="940" y2="-36.27" stroke="#E6E6E6" stroke-width="1"/>
<text x="60" y="-32.27" text-anchor="end" font-family="system-ui, -apple-system, Segoe UI, Roboto, Helvetica, Arial, sans-serif" font-size="12" fill="#222222">3000</text>
<line x1="70.00" y1="20" x2="70.00" y2="480" stroke="#E6E6E6" stroke-width="1"/>
<text x="70.00" y="500" text-anchor="middle" font-family="system-ui, -apple-system, Segoe UI, Roboto, Helvetica, Arial, sans-serif" font-size="12" fill="#222222">0</text>
<line x1="343.50" y1="20" x2="343.50" y2="480" stroke="#E6E6E6" stroke-width="1"/>
<text x="343.50" y="500" text-anchor="middle" font-family="system-ui, -apple-system, Segoe UI, Roboto, Helvetica, Arial, sans-serif" font-size="12" fill="#222222">1000</text>
<line x1="617.00" y1="20" x2="617.00" y2="480" stroke="#E6E6E6" stroke-width="1"/>
<text x="617.00" y="500" text-anchor="middle" font-family="system-ui, -apple-system, Segoe UI, Roboto, Helvetica, Arial, sans-serif" font-size="12" fill="#222222">2000</text>
<line x1="890.50" y1="20" x2="890.50" y2="480" stroke="#E6E6E6" stroke-width="1"/>
<text x="890.50" y="500" text-anchor="middle" font-family="system-ui, -apple-system, Segoe UI, Roboto, Helvetica, Arial, sans-serif" font-size="12" fill="#222222">3000</text>
<line x1="1164.00" y1="20" x2="1164.00" y2="480" stroke="#E6E6E6" stroke-width="1"/>
<text x="1164.00" y="500" text-anchor="middle" font-family="system-ui, -apple-system, Segoe UI, Roboto, Helvetica, Arial, sans-serif" font-size="12" fill="#222222">4000</text>
<line x1="70" y1="480" x2="940" y2="480" stroke="#222222" stroke-width="1.5"/>
<line x1="70" y1="20" x2="70" y2="480" stroke="#222222" stroke-width="1.5"/>
<rect x="70.00" y="20.00" width="13.50" height="460.00" fill="#4C78A8"/>
<rect x="84.50" y="266.43" width="13.50" height="213.57" fill="#4C78A8"/>
<rect x="99.00" y="321.50" width="13.50" height="158.50" fill="#4C78A8"/>
<rect x="113.50" y="340.95" width="13.50" height="139.05" fill="#4C78A8"/>
<rect x="128.00" y="367.62" width="13.50" height="112.38" fill="#4C78A8"/>
<rect x="142.50" y="386.21" width="13.50" height="93.79" fill="#4C78A8"/>
<rect x="157.00" y="400.67" width="13.50" height="79.33" fill="#4C78A8"/>
<rect x="171.50" y="414.61" width="13.50" height="65.39" fill="#4C78A8"/>
<rect x="186.00" y="418.91" width="13.50" height="61.09" fill="#4C78A8"/>
<rect x="200.50" y="421.14" width="13.50" height="58.86" fill="#4C78A8"/>
<rect x="215.00" y="429.58" width="13.50" height="50.42" fill="#4C78A8"/>
<rect x="229.50" y="434.40" width="13.50" height="45.60" fill="#4C78A8"/>
<rect x="244.00" y="430.44" width="13.50" height="49.56" fill="#4C78A8"/>
<rect x="258.50" y="438.01" width="13.50" height="41.99" fill="#4C78A8"/>
<rect x="273.00" y="448.16" width="13.50" height="31.84" fill="#4C78A8"/>
<rect x="287.50" y="435.77" width="13.50" height="44.23" fill="#4C78A8"/>
<rect x="302.00" y="438.70" width="13.50" height="41.30" fill="#4C78A8"/>
<rect x="316.50" y="443.52" width="13.50" height="36.48" fill="#4C78A8"/>
<rect x="331.00" y="443.34" width="13.50" height="36.66" fill="#4C78A8"/>
<rect x="345.50" y="444.89" width="13.50" height="35.11" fill="#4C78A8"/>
<rect x="360.00" y="455.56" width="13.50" height="24.44" fill="#4C78A8"/>
<rect x="374.50" y="452.29" width="13.50" height="27.71" fill="#4C78A8"/>
<rect x="389.00" y="449.54" width="13.50" height="30.46" fill="#4C78A8"/>
<rect x="403.50" y="457.63" width="13.50" height="22.37" fill="#4C78A8"/>
<rect x="418.00" y="458.14" width="13.50" height="21.86" fill="#4C78A8"/>
<rect x="432.50" y="457.46" width="13.50" height="22.54" fill="#4C78A8"/>
<rect x="447.00" y="455.05" width="13.50" height="24.95" fill="#4C78A8"/>
<rect x="461.50" y="450.40" width="13.50" height="29.60" fill="#4C78A8"/>
<rect x="476.00" y="464.00" width="13.50" height="16.00" fill="#4C78A8"/>
<rect x="490.50" y="465.03" width="13.50" height="14.97" fill="#4C78A8"/>
<rect x="505.00" y="472.94" width="13.50" height="7.06" fill="#4C78A8"/>
<rect x="519.50" y="477.93" width="13.50" height="2.07" fill="#4C78A8"/>
<rect x="534.00" y="479.48" width="13.50" height="0.52" fill="#4C78A8"/>
<rect x="548.50" y="478.28" width="13.50" height="1.72" fill="#4C78A8"/>
<rect x="563.00" y="478.80" width="13.50" height="1.20" fill="#4C78A8"/>
<rect x="577.50" y="478.80" width="13.50" height="1.20" fill="#4C78A8"/>
<rect x="592.00" y="478.62" width="13.50" height="1.38" fill="#4C78A8"/>
<rect x="606.50" y="478.80" width="13.50" height="1.20" fill="#4C78A8"/>
<rect x="621.00" y="478.97" width="13.50" height="1.03" fill="#4C78A8"/>
<rect x="635.50" y="479.14" width="13.50" height="0.86" fill="#4C78A8"/>
<rect x="650.00" y="478.97" width="13.50" height="1.03" fill="#4C78A8"/>
<rect x="664.50" y="479.31" width="13.50" height="0.69" fill="#4C78A8"/>
<rect x="679.00" y="479.66" width="13.50" height="0.34" fill="#4C78A8"/>
<rect x="693.50" y="480.00" width="13.50" height="0.00" fill="#4C78A8"/>
<rect x="708.00" y="479.48" width="13.50" height="0.52" fill="#4C78A8"/>
<rect x="722.50" y="478.62" width="13.50" height="1.38" fill="#4C78A8"/>
<rect x="737.00" y="479.48" width="13.50" height="0.52" fill="#4C78A8"/>
<rect x="751.50" y="480.00" width="13.50" height="0.00" fill="#4C78A8"/>
<rect x="766.00" y="480.00" width="13.50" height="0.00" fill="#4C78A8"/>
<rect x="780.50" y="479.83" width="13.50" height="0.17" fill="#4C78A8"/>
<rect x="795.00" y="480.00" width="13.50" height="0.00" fill="#4C78A8"/>
<rect x="809.50" y="480.00" width="13.50" height="0.00" fill="#4C78A8"/>
<rect x="824.00" y="480.00" width="13.50" height="0.00" fill="#4C78A8"/>
<rect x="838.50" y="480.00" width="13.50" height="0.00" fill="#4C78A8"/>
<rect x="853.00" y="480.00" width="13.50" height="0.00" fill="#4C78A8"/>
<rect x="867.50" y="480.00" width="13.50" height="0.00" fill="#4C78A8"/>
<rect x="882.00" y="480.00" width="13.50" height="0.00" fill="#4C78A8"/>
<rect x="896.50" y="480.00" width="13.50" height="0.00" fill="#4C78A8"/>
<rect x="911.00" y="480.00" width="13.50" height="0.00" fill="#4C78A8"/>
<rect x="925.50" y="480.00" width="13.50" height="0.00" fill="#4C78A8"/>
<text x="480.00" y="28" text-anchor="middle" font-family="system-ui, -apple-system, Segoe UI, Roboto, Helvetica, Arial, sans-serif" font-size="18" fill="#222222">lag_days histogram (severity=UNKNOWN, n=12278)</text>
<text x="480.00" y="48" text-anchor="middle" font-family="system-ui, -apple-system, Segoe UI, Roboto, Helvetica, Arial, sans-serif" font-size="12" fill="#222222">bins=60, x_max=3181, y_scale=linear</text>
<text x="480.00" y="520" text-anchor="middle" font-family="system-ui, -apple-system, Segoe UI, Roboto, Helvetica, Arial, sans-serif" font-size="14" fill="#222222">lag_days</text>
<text x="18" y="270.00" text-anchor="middle" font-family="system-ui, -apple-system, Segoe UI, Roboto, Helvetica, Arial, sans-serif" font-size="14" fill="#222222" transform="rotate(-90 18 270.00)">count</text>
</svg>
