<svg xmlns="http://www.w3.org/2000/svg" width="960" height="540" viewBox="0 0 960 540">
<rect x="0" y="0" width="960" height="540" fill="white"/>
<line x1="70" y1="480.00" x2="940" y2="480.00" stroke="#E6E6E6" stroke-width="1"/>
<text x="60" y="484.00" text-anchor="end" font-family="system-ui, -apple-system, Segoe UI, Roboto, Helvetica, Arial, sans-serif" font-size="12" fill="#222222">0</text>
<line x1="70" y1="333.27" x2="940" y2="333.27" stroke="#E6E6E6" stroke-width="1"/>
<text x="60" y="337.27" text-anchor="end" font-family="system-ui, -apple-system, Segoe UI, Roboto, Helvetica, Arial, sans-serif" font-size="12" fill="#222222">200</text>
<line x1="70" y1="186.54" x2="940" y2="186.54" stroke="#E6E6E6" stroke-width="1"/>
<text x="60" y="190.54" text-anchor="end" font-family="system-ui, -apple-system, Segoe UI, Roboto, Helvetica, Arial, sans-serif" font-size="12" fill="#222222">400</text>
<line x1="70" y1="39.81" x2="940" y2="39.81" stroke="#E6E6E6" stroke-width="1"/>
<text x="60" y="43.81" text-anchor="end" font-family="system-ui, -apple-system, Segoe UI, Roboto, Helvetica, Arial, sans-serif" font-size="12" fill="#222222">600</text>
<line x1="70" y1="-106.92" x2="940" y2="-106.92" stroke="#E6E6E6" stroke-width="1"/>
<text x="60" y="-102.92" text-anchor="end" font-family="system-ui, -apple-system, Segoe UI, Roboto, Helvetica, Arial, sans-serif" font-size="12" fill="#222222">800</text>
<line x1="70.00" y1="20" x2="70.00" y2="480" stroke="#E6E6E6" stroke-width="1"/>
<text x="70.00" y="500" text-anchor="middle" font-family="system-ui, -apple-system, Segoe UI, Roboto, Helvetica, Arial, sans-serif" font-size="12" fill="#222222">0</text>
<line x1="343.50" y1="20" x2="343.50" y2="480" stroke="#E6E6E6" stroke-width="1"/>
<text x="343.50" y="500" text-anchor="middle" font-family="system-ui, -apple-system, Segoe UI, Roboto, Helvetica, Arial, sans-serif" font-size="12" fill="#222222">1000</text>
<line x1="617.00" y1="20" x2="617.00" y2="480" stroke="#E6E6E6" stroke-width="1"/>
<text x="617.00" y="500" text-anchor="middle" font-family="system-ui, -apple-system, Segoe UI, Roboto, Helvetica, Arial, sans-serif" font-size="12" fill="#222222">2000</text>
<line x1="890.50" y1="20" x2="890.50" y2="480" stroke="#E6E6E6" stroke-width="1"/>
<text x="890.50" y="500" text-anchor="middle" font-family="system-ui, -apple-system, Segoe UI, Roboto, Helvetica, Arial, sans-serif" font-size="12" fill="#222222">3000</text>
<line x1="1164.00" y1="20" x2="1164.00" y2="480" stroke="#E6E6E6" stroke-width="1"/>
<text x="1164.00" y="500" text-anchor="middle" font-family="system-ui, -apple-system, Segoe UI, Roboto, Helvetica, Arial, sans-serif" font-size="12" fill="#222222">4000</text>
<line x1="70" y1="480" x2="940" y2="480" stroke="#222222" stroke-width="1.5"/>
<line x1="70" y1="20" x2="70" y2="480" stroke="#222222" stroke-width="1.5"/>
<rect x="70.00" y="289.98" width="13.50" height="190.02" fill="#4C78A8"/>
<rect x="84.50" y="354.55" width="13.50" height="125.45" fill="#4C78A8"/>
<rect x="99.00" y="370.69" width="13.50" height="109.31" fill="#4C78A8"/>
<rect x="113.50" y="369.95" width="13.50" height="110.05" fill="#4C78A8"/>
<rect x="128.00" y="411.04" width="13.50" height="68.96" fill="#4C78A8"/>
<rect x="142.50" y="400.77" width="13.50" height="79.23" fill="#4C78A8"/>
<rect x="157.00" y="427.18" width="13.50" height="52.82" fill="#4C78A8"/>
<rect x="171.50" y="419.84" width="13.50" height="60.16" fill="#4C78A8"/>
<rect x="186.00" y="433.78" width="13.50" height="46.22" fill="#4C78A8"/>
<rect x="200.50" y="427.18" width="13.50" height="52.82" fill="#4C78A8"/>
<rect x="215.00" y="358.21" width="13.50" height="121.79" fill="#4C78A8"/>
<rect x="229.50" y="449.92" width="13.50" height="30.08" fill="#4C78A8"/>
<rect x="244.00" y="449.19" width="13.50" height="30.81" fill="#4C78A8"/>
<rect x="258.50" y="452.12" width="13.50" height="27.88" fill="#4C78A8"/>
<rect x="273.00" y="463.13" width="13.50" height="16.87" fill="#4C78A8"/>
<rect x="287.50" y="465.33" width="13.50" height="14.67" fill="#4C78A8"/>
<rect x="302.00" y="442.58" width="13.50" height="37.42" fill="#4C78A8"/>
<rect x="316.50" y="454.32" width="13.50" height="25.68" fill="#4C78A8"/>
<rect x="331.00" y="442.58" width="13.50" height="37.42" fill="#4C78A8"/>
<rect x="345.50" y="451.39" width="13.50" height="28.61" fill="#4C78A8"/>
<rect x="360.00" y="452.12" width="13.50" height="27.88" fill="#4C78A8"/>
<rect x="374.50" y="460.93" width="13.50" height="19.07" fill="#4C78A8"/>
<rect x="389.00" y="20.00" width="13.50" height="460.00" fill="#4C78A8"/>
<rect x="403.50" y="456.52" width="13.50" height="23.48" fill="#4C78A8"/>
<rect x="418.00" y="468.26" width="13.50" height="11.74" fill="#4C78A8"/>
<rect x="432.50" y="466.06" width="13.50" height="13.94" fill="#4C78A8"/>
<rect x="447.00" y="471.20" width="13.50" height="8.80" fill="#4C78A8"/>
<rect x="461.50" y="455.79" width="13.50" height="24.21" fill="#4C78A8"/>
<rect x="476.00" y="460.93" width="13.50" height="19.07" fill="#4C78A8"/>
<rect x="490.50" y="452.12" width="13.50" height="27.88" fill="#4C78A8"/>
<rect x="505.00" y="465.33" width="13.50" height="14.67" fill="#4C78A8"/>
<rect x="519.50" y="467.53" width="13.50" height="12.47" fill="#4C78A8"/>
<rect x="534.00" y="455.79" width="13.50" height="24.21" fill="#4C78A8"/>
<rect x="548.50" y="471.93" width="13.50" height="8.07" fill="#4C78A8"/>
<rect x="563.00" y="474.86" width="13.50" height="5.14" fill="#4C78A8"/>
<rect x="577.50" y="474.86" width="13.50" height="5.14" fill="#4C78A8"/>
<rect x="592.00" y="476.33" width="13.50" height="3.67" fill="#4C78A8"/>
<rect x="606.50" y="470.46" width="13.50" height="9.54" fill="#4C78A8"/>
<rect x="621.00" y="473.40" width="13.50" height="6.60" fill="#4C78A8"/>
<rect x="635.50" y="474.13" width="13.50" height="5.87" fill="#4C78A8"/>
<rect x="650.00" y="474.86" width="13.50" height="5.14" fill="#4C78A8"/>
<rect x="664.50" y="474.13" width="13.50" height="5.87" fill="#4C78A8"/>
<rect x="679.00" y="476.33" width="13.50" height="3.67" fill="#4C78A8"/>
<rect x="693.50" y="475.60" width="13.50" height="4.40" fill="#4C78A8"/>
<rect x="708.00" y="478.53" width="13.50" height="1.47" fill="#4C78A8"/>
<rect x="722.50" y="475.60" width="13.50" height="4.40" fill="#4C78A8"/>
<rect x="737.00" y="474.13" width="13.50" height="5.87" fill="#4C78A8"/>
<rect x="751.50" y="476.33" width="13.50" height="3.67" fill="#4C78A8"/>
<rect x="766.00" y="477.07" width="13.50" height="2.93" fill="#4C78A8"/>
<rect x="780.50" y="479.27" width="13.50" height="0.73" fill="#4C78A8"/>
<rect x="795.00" y="478.53" width="13.50" height="1.47" fill="#4C78A8"/>
<rect x="809.50" y="479.27" width="13.50" height="0.73" fill="#4C78A8"/>
<rect x="824.00" y="480.00" width="13.50" height="0.00" fill="#4C78A8"/>
<rect x="838.50" y="479.27" width="13.50" height="0.73" fill="#4C78A8"/>
<rect x="853.00" y="480.00" width="13.50" height="0.00" fill="#4C78A8"/>
<rect x="867.50" y="480.00" width="13.50" height="0.00" fill="#4C78A8"/>
<rect x="882.00" y="480.00" width="13.50" height="0.00" fill="#4C78A8"/>
<rect x="896.50" y="479.27" width="13.50" height="0.73" fill="#4C78A8"/>
<rect x="911.00" y="479.27" width="13.50" height="0.73" fill="#4C78A8"/>
<rect x="925.50" y="479.27" width="13.50" height="0.73" fill="#4C78A8"/>
<text x="480.00" y="28" text-anchor="middle" font-family="system-ui, -apple-system, Segoe UI, Roboto, Helvetica, Arial, sans-serif" font-size="18" fill="#222222">lag_days histogram (severity=CRITICAL, n=2782)</text>
<text x="480.00" y="48" text-anchor="middle" font-family="system-ui, -apple-system, Segoe UI, Roboto, Helvetica, Arial, sans-serif" font-size="12" fill="#222222">bins=60, x_max=3181, y_scale=linear</text>
<text x="480.00" y="520" text-anchor="middle" font-family="system-ui, -apple-system, Segoe UI, Roboto, Helvetica, Arial, sans-serif" font-size="14" fill="#222222">lag_days</text>
<text x="18" y="270.00" text-anchor="middle" font-family="system-ui, -apple-system, Segoe UI, Roboto, Helvetica, Arial, sans-serif" font-size="14" fill="#222222" transform="rotate(-90 18 270.00)">count</text>
</svg>
