<svg xmlns="http://www.w3.org/2000/svg" width="960" height="540" viewBox="0 0 960 540">
<rect x="0" y="0" width="960" height="540" fill="white"/>
<line x1="70" y1="480.00" x2="940" y2="480.00" stroke="#E6E6E6" stroke-width="1"/>
<text x="60" y="484.00" text-anchor="end" font-family="system-ui, -apple-system, Segoe UI, Roboto, Helvetica, Arial, sans-serif" font-size="12" fill="#222222">0</text>
<line x1="70" y1="326.97" x2="940" y2="326.97" stroke="#E6E6E6" stroke-width="1"/>
<text x="60" y="330.97" text-anchor="end" font-family="system-ui, -apple-system, Segoe UI, Roboto, Helvetica, Arial, sans-serif" font-size="12" fill="#222222">500</text>
<line x1="70" y1="173.95" x2="940" y2="173.95" stroke="#E6E6E6" stroke-width="1"/>
<text x="60" y="177.95" text-anchor="end" font-family="system-ui, -apple-system, Segoe UI, Roboto, Helvetica, Arial, sans-serif" font-size="12" fill="#222222">1000</text>
<line x1="70" y1="20.92" x2="940" y2="20.92" stroke="#E6E6E6" stroke-width="1"/>
<text x="60" y="24.92" text-anchor="end" font-family="system-ui, -apple-system, Segoe UI, Roboto, Helvetica, Arial, sans-serif" font-size="12" fill="#222222">1500</text>
<line x1="70" y1="-132.11" x2="940" y2="-132.11" stroke="#E6E6E6" stroke-width="1"/>
<text x="60" y="-128.11" text-anchor="end" font-family="system-ui, -apple-system, Segoe UI, Roboto, Helvetica, Arial, sans-serif" font-size="12" fill="#222222">2000</text>
<line x1="70.00" y1="20" x2="70.00" y2="480" stroke="#E6E6E6" stroke-width="1"/>
<text x="70.00" y="500" text-anchor="middle" font-family="system-ui, -apple-system, Segoe UI, Roboto, Helvetica, Arial, sans-serif" font-size="12" fill="#222222">0</text>
<line x1="343.50" y1="20" x2="343.50" y2="480" stroke="#E6E6E6" stroke-width="1"/>
<text x="343.50" y="500" text-anchor="middle" font-family="system-ui, -apple-system, Segoe UI, Roboto, Helvetica, Arial, sans-serif" font-size="12" fill="#222222">1000</text>
<line x1="617.00" y1="20" x2="617.00" y2="480" stroke="#E6E6E6" stroke-width="1"/>
<text x="617.00" y="500" text-anchor="middle" font-family="system-ui, -apple-system, Segoe UI, Roboto, Helvetica, Arial, sans-serif" font-size="12" fill="#222222">2000</text>
<line x1="890.50" y1="20" x2="890.50" y2="480" stroke="#E6E6E6" stroke-width="1"/>
<text x="890.50" y="500" text-anchor="middle" font-family="system-ui, -apple-system, Segoe UI, Roboto, Helvetica, Arial, sans-serif" font-size="12" fill="#222222">3000</text>
<line x1="1164.00" y1="20" x2="1164.00" y2="480" stroke="#E6E6E6" stroke-width="1"/>
<text x="1164.00" y="500" text-anchor="middle" font-family="system-ui, -apple-system, Segoe UI, Roboto, Helvetica, Arial, sans-serif" font-size="12" fill="#222222">4000</text>
<line x1="70" y1="480" x2="940" y2="480" stroke="#222222" stroke-width="1.5"/>
<line x1="70" y1="20" x2="70" y2="480" stroke="#222222" stroke-width="1.5"/>
<rect x="70.00" y="20.00" width="13.50" height="460.00" fill="#4C78A8"/>
<rect x="84.50" y="152.83" width="13.50" height="327.17" fill="#4C78A8"/>
<rect x="99.00" y="293.00" width="13.50" height="187.00" fill="#4C78A8"/>
<rect x="113.50" y="302.49" width="13.50" height="177.51" fill="#4C78A8"/>
<rect x="128.00" y="340.44" width="13.50" height="139.56" fill="#4C78A8"/>
<rect x="142.50" y="411.14" width="13.50" height="68.86" fill="#4C78A8"/>
<rect x="157.00" y="420.01" width="13.50" height="59.99" fill="#4C78A8"/>
<rect x="171.50" y="419.71" width="13.50" height="60.29" fill="#4C78A8"/>
<rect x="186.00" y="412.06" width="13.50" height="67.94" fill="#4C78A8"/>
<rect x="200.50" y="432.87" width="13.50" height="47.13" fill="#4C78A8"/>
<rect x="215.00" y="421.24" width="13.50" height="58.76" fill="#4C78A8"/>
<rect x="229.50" y="438.99" width="13.50" height="41.01" fill="#4C78A8"/>
<rect x="244.00" y="393.39" width="13.50" height="86.61" fill="#4C78A8"/>
<rect x="258.50" y="441.44" width="13.50" height="38.56" fill="#4C78A8"/>
<rect x="273.00" y="437.15" width="13.50" height="42.85" fill="#4C78A8"/>
<rect x="287.50" y="429.19" width="13.50" height="50.81" fill="#4C78A8"/>
<rect x="302.00" y="445.11" width="13.50" height="34.89" fill="#4C78A8"/>
<rect x="316.50" y="443.58" width="13.50" height="36.42" fill="#4C78A8"/>
<rect x="331.00" y="449.09" width="13.50" height="30.91" fill="#4C78A8"/>
<rect x="345.50" y="451.23" width="13.50" height="28.77" fill="#4C78A8"/>
<rect x="360.00" y="470.82" width="13.50" height="9.18" fill="#4C78A8"/>
<rect x="374.50" y="293.00" width="13.50" height="187.00" fill="#4C78A8"/>
<rect x="389.00" y="475.41" width="13.50" height="4.59" fill="#4C78A8"/>
<rect x="403.50" y="474.49" width="13.50" height="5.51" fill="#4C78A8"/>
<rect x="418.00" y="478.16" width="13.50" height="1.84" fill="#4C78A8"/>
<rect x="432.50" y="476.63" width="13.50" height="3.37" fill="#4C78A8"/>
<rect x="447.00" y="477.86" width="13.50" height="2.14" fill="#4C78A8"/>
<rect x="461.50" y="477.86" width="13.50" height="2.14" fill="#4C78A8"/>
<rect x="476.00" y="477.55" width="13.50" height="2.45" fill="#4C78A8"/>
<rect x="490.50" y="478.78" width="13.50" height="1.22" fill="#4C78A8"/>
<rect x="505.00" y="479.39" width="13.50" height="0.61" fill="#4C78A8"/>
<rect x="519.50" y="478.78" width="13.50" height="1.22" fill="#4C78A8"/>
<rect x="534.00" y="480.00" width="13.50" height="0.00" fill="#4C78A8"/>
<rect x="548.50" y="479.69" width="13.50" height="0.31" fill="#4C78A8"/>
<rect x="563.00" y="479.39" width="13.50" height="0.61" fill="#4C78A8"/>
<rect x="577.50" y="479.69" width="13.50" height="0.31" fill="#4C78A8"/>
<rect x="592.00" y="479.69" width="13.50" height="0.31" fill="#4C78A8"/>
<rect x="606.50" y="480.00" width="13.50" height="0.00" fill="#4C78A8"/>
<rect x="621.00" y="479.39" width="13.50" height="0.61" fill="#4C78A8"/>
<rect x="635.50" y="479.69" width="13.50" height="0.31" fill="#4C78A8"/>
<rect x="650.00" y="480.00" width="13.50" height="0.00" fill="#4C78A8"/>
<rect x="664.50" y="480.00" width="13.50" height="0.00" fill="#4C78A8"/>
<rect x="679.00" y="479.69" width="13.50" height="0.31" fill="#4C78A8"/>
<rect x="693.50" y="480.00" width="13.50" height="0.00" fill="#4C78A8"/>
<rect x="708.00" y="480.00" width="13.50" height="0.00" fill="#4C78A8"/>
<rect x="722.50" y="480.00" width="13.50" height="0.00" fill="#4C78A8"/>
<rect x="737.00" y="480.00" width="13.50" height="0.00" fill="#4C78A8"/>
<rect x="751.50" y="480.00" width="13.50" height="0.00" fill="#4C78A8"/>
<rect x="766.00" y="480.00" width="13.50" height="0.00" fill="#4C78A8"/>
<rect x="780.50" y="480.00" width="13.50" height="0.00" fill="#4C78A8"/>
<rect x="795.00" y="480.00" width="13.50" height="0.00" fill="#4C78A8"/>
<rect x="809.50" y="480.00" width="13.50" height="0.00" fill="#4C78A8"/>
<rect x="824.00" y="480.00" width="13.50" height="0.00" fill="#4C78A8"/>
<rect x="838.50" y="480.00" width="13.50" height="0.00" fill="#4C78A8"/>
<rect x="853.00" y="480.00" width="13.50" height="0.00" fill="#4C78A8"/>
<rect x="867.50" y="480.00" width="13.50" height="0.00" fill="#4C78A8"/>
<rect x="882.00" y="480.00" width="13.50" height="0.00" fill="#4C78A8"/>
<rect x="896.50" y="480.00" width="13.50" height="0.00" fill="#4C78A8"/>
<rect x="911.00" y="480.00" width="13.50" height="0.00" fill="#4C78A8"/>
<rect x="925.50" y="480.00" width="13.50" height="0.00" fill="#4C78A8"/>
<text x="480.00" y="28" text-anchor="middle" font-family="system-ui, -apple-system, Segoe UI, Roboto, Helvetica, Arial, sans-serif" font-size="18" fill="#222222">lag_days histogram (severity=INFO, n=7414)</text>
<text x="480.00" y="48" text-anchor="middle" font-family="system-ui, -apple-system, Segoe UI, Roboto, Helvetica, Arial, sans-serif" font-size="12" fill="#222222">bins=60, x_max=3181, y_scale=linear</text>
<text x="480.00" y="520" text-anchor="middle" font-family="system-ui, -apple-system, Segoe UI, Roboto, Helvetica, Arial, sans-serif" font-size="14" fill="#222222">lag_days</text>
<text x="18" y="270.00" text-anchor="middle" font-family="system-ui, -apple-system, Segoe UI, Roboto, Helvetica, Arial, sans-serif" font-size="14" fill="#222222" transform="rotate(-90 18 270.00)">count</text>
</svg>
