<svg xmlns="http://www.w3.org/2000/svg" width="960" height="540" viewBox="0 0 960 540">
<rect x="0" y="0" width="960" height="540" fill="white"/>
<line x1="70" y1="480.00" x2="940" y2="480.00" stroke="#E6E6E6" stroke-width="1"/>
<text x="60" y="484.00" text-anchor="end" font-family="system-ui, -apple-system, Segoe UI, Roboto, Helvetica, Arial, sans-serif" font-size="12" fill="#222222">0</text>
<line x1="70" y1="335.12" x2="940" y2="335.12" stroke="#E6E6E6" stroke-width="1"/>
<text x="60" y="339.12" text-anchor="end" font-family="system-ui, -apple-system, Segoe UI, Roboto, Helvetica, Arial, sans-serif" font-size="12" fill="#222222">200</text>
<line x1="70" y1="190.24" x2="940" y2="190.24" stroke="#E6E6E6" stroke-width="1"/>
<text x="60" y="194.24" text-anchor="end" font-family="system-ui, -apple-system, Segoe UI, Roboto, Helvetica, Arial, sans-serif" font-size="12" fill="#222222">400</text>
<line x1="70" y1="45.35" x2="940" y2="45.35" stroke="#E6E6E6" stroke-width="1"/>
<text x="60" y="49.35" text-anchor="end" font-family="system-ui, -apple-system, Segoe UI, Roboto, Helvetica, Arial, sans-serif" font-size="12" fill="#222222">600</text>
<line x1="70" y1="-99.53" x2="940" y2="-99.53" stroke="#E6E6E6" stroke-width="1"/>
<text x="60" y="-95.53" text-anchor="end" font-family="system-ui, -apple-system, Segoe UI, Roboto, Helvetica, Arial, sans-serif" font-size="12" fill="#222222">800</text>
<line x1="70.00" y1="20" x2="70.00" y2="480" stroke="#E6E6E6" stroke-width="1"/>
<text x="70.00" y="500" text-anchor="middle" font-family="system-ui, -apple-system, Segoe UI, Roboto, Helvetica, Arial, sans-serif" font-size="12" fill="#222222">0</text>
<line x1="343.50" y1="20" x2="343.50" y2="480" stroke="#E6E6E6" stroke-width="1"/>
<text x="343.50" y="500" text-anchor="middle" font-family="system-ui, -apple-system, Segoe UI, Roboto, Helvetica, Arial, sans-serif" font-size="12" fill="#222222">1000</text>
<line x1="617.00" y1="20" x2="617.00" y2="480" stroke="#E6E6E6" stroke-width="1"/>
<text x="617.00" y="500" text-anchor="middle" font-family="system-ui, -apple-system, Segoe UI, Roboto, Helvetica, Arial, sans-serif" font-size="12" fill="#222222">2000</text>
<line x1="890.50" y1="20" x2="890.50" y2="480" stroke="#E6E6E6" stroke-width="1"/>
<text x="890.50" y="500" text-anchor="middle" font-family="system-ui, -apple-system, Segoe UI, Roboto, Helvetica, Arial, sans-serif" font-size="12" fill="#222222">3000</text>
<line x1="1164.00" y1="20" x2="1164.00" y2="480" stroke="#E6E6E6" stroke-width="1"/>
<text x="1164.00" y="500" text-anchor="middle" font-family="system-ui, -apple-system, Segoe UI, Roboto, Helvetica, Arial, sans-serif" font-size="12" fill="#222222">4000</text>
<line x1="70" y1="480" x2="940" y2="480" stroke="#222222" stroke-width="1.5"/>
<line x1="70" y1="20" x2="70" y2="480" stroke="#222222" stroke-width="1.5"/>
<rect x="70.00" y="217.76" width="13.50" height="262.24" fill="#4C78A8"/>
<rect x="84.50" y="381.48" width="13.50" height="98.52" fill="#4C78A8"/>
<rect x="99.00" y="418.43" width="13.50" height="61.57" fill="#4C78A8"/>
<rect x="113.50" y="437.26" width="13.50" height="42.74" fill="#4C78A8"/>
<rect x="128.00" y="430.74" width="13.50" height="49.26" fill="#4C78A8"/>
<rect x="142.50" y="269.20" width="13.50" height="210.80" fill="#4C78A8"/>
<rect x="157.00" y="430.74" width="13.50" height="49.26" fill="#4C78A8"/>
<rect x="171.50" y="356.85" width="13.50" height="123.15" fill="#4C78A8"/>
<rect x="186.00" y="421.32" width="13.50" height="58.68" fill="#4C78A8"/>
<rect x="200.50" y="424.94" width="13.50" height="55.06" fill="#4C78A8"/>
<rect x="215.00" y="446.68" width="13.50" height="33.32" fill="#4C78A8"/>
<rect x="229.50" y="440.88" width="13.50" height="39.12" fill="#4C78A8"/>
<rect x="244.00" y="440.88" width="13.50" height="39.12" fill="#4C78A8"/>
<rect x="258.50" y="447.40" width="13.50" height="32.60" fill="#4C78A8"/>
<rect x="273.00" y="424.22" width="13.50" height="55.78" fill="#4C78A8"/>
<rect x="287.50" y="451.75" width="13.50" height="28.25" fill="#4C78A8"/>
<rect x="302.00" y="427.12" width="13.50" height="52.88" fill="#4C78A8"/>
<rect x="316.50" y="448.85" width="13.50" height="31.15" fill="#4C78A8"/>
<rect x="331.00" y="448.13" width="13.50" height="31.87" fill="#4C78A8"/>
<rect x="345.50" y="433.64" width="13.50" height="46.36" fill="#4C78A8"/>
<rect x="360.00" y="430.74" width="13.50" height="49.26" fill="#4C78A8"/>
<rect x="374.50" y="445.23" width="13.50" height="34.77" fill="#4C78A8"/>
<rect x="389.00" y="20.00" width="13.50" height="460.00" fill="#4C78A8"/>
<rect x="403.50" y="454.65" width="13.50" height="25.35" fill="#4C78A8"/>
<rect x="418.00" y="443.78" width="13.50" height="36.22" fill="#4C78A8"/>
<rect x="432.50" y="448.85" width="13.50" height="31.15" fill="#4C78A8"/>
<rect x="447.00" y="461.17" width="13.50" height="18.83" fill="#4C78A8"/>
<rect x="461.50" y="460.44" width="13.50" height="19.56" fill="#4C78A8"/>
<rect x="476.00" y="123.59" width="13.50" height="356.41" fill="#4C78A8"/>
<rect x="490.50" y="460.44" width="13.50" height="19.56" fill="#4C78A8"/>
<rect x="505.00" y="468.41" width="13.50" height="11.59" fill="#4C78A8"/>
<rect x="519.50" y="469.13" width="13.50" height="10.87" fill="#4C78A8"/>
<rect x="534.00" y="464.79" width="13.50" height="15.21" fill="#4C78A8"/>
<rect x="548.50" y="468.41" width="13.50" height="11.59" fill="#4C78A8"/>
<rect x="563.00" y="460.44" width="13.50" height="19.56" fill="#4C78A8"/>
<rect x="577.50" y="473.48" width="13.50" height="6.52" fill="#4C78A8"/>
<rect x="592.00" y="478.55" width="13.50" height="1.45" fill="#4C78A8"/>
<rect x="606.50" y="476.38" width="13.50" height="3.62" fill="#4C78A8"/>
<rect x="621.00" y="477.83" width="13.50" height="2.17" fill="#4C78A8"/>
<rect x="635.50" y="477.10" width="13.50" height="2.90" fill="#4C78A8"/>
<rect x="650.00" y="473.48" width="13.50" height="6.52" fill="#4C78A8"/>
<rect x="664.50" y="479.28" width="13.50" height="0.72" fill="#4C78A8"/>
<rect x="679.00" y="479.28" width="13.50" height="0.72" fill="#4C78A8"/>
<rect x="693.50" y="477.83" width="13.50" height="2.17" fill="#4C78A8"/>
<rect x="708.00" y="478.55" width="13.50" height="1.45" fill="#4C78A8"/>
<rect x="722.50" y="476.38" width="13.50" height="3.62" fill="#4C78A8"/>
<rect x="737.00" y="477.83" width="13.50" height="2.17" fill="#4C78A8"/>
<rect x="751.50" y="470.58" width="13.50" height="9.42" fill="#4C78A8"/>
<rect x="766.00" y="478.55" width="13.50" height="1.45" fill="#4C78A8"/>
<rect x="780.50" y="478.55" width="13.50" height="1.45" fill="#4C78A8"/>
<rect x="795.00" y="479.28" width="13.50" height="0.72" fill="#4C78A8"/>
<rect x="809.50" y="474.20" width="13.50" height="5.80" fill="#4C78A8"/>
<rect x="824.00" y="473.48" width="13.50" height="6.52" fill="#4C78A8"/>
<rect x="838.50" y="478.55" width="13.50" height="1.45" fill="#4C78A8"/>
<rect x="853.00" y="479.28" width="13.50" height="0.72" fill="#4C78A8"/>
<rect x="867.50" y="477.10" width="13.50" height="2.90" fill="#4C78A8"/>
<rect x="882.00" y="479.28" width="13.50" height="0.72" fill="#4C78A8"/>
<rect x="896.50" y="480.00" width="13.50" height="0.00" fill="#4C78A8"/>
<rect x="911.00" y="479.28" width="13.50" height="0.72" fill="#4C78A8"/>
<rect x="925.50" y="478.55" width="13.50" height="1.45" fill="#4C78A8"/>
<text x="480.00" y="28" text-anchor="middle" font-family="system-ui, -apple-system, Segoe UI, Roboto, Helvetica, Arial, sans-serif" font-size="18" fill="#222222">lag_days histogram (severity=MEDIUM, n=3574)</text>
<text x="480.00" y="48" text-anchor="middle" font-family="system-ui, -apple-system, Segoe UI, Roboto, Helvetica, Arial, sans-serif" font-size="12" fill="#222222">bins=60, x_max=3181, y_scale=linear</text>
<text x="480.00" y="520" text-anchor="middle" font-family="system-ui, -apple-system, Segoe UI, Roboto, Helvetica, Arial, sans-serif" font-size="14" fill="#222222">lag_days</text>
<text x="18" y="270.00" text-anchor="middle" font-family="system-ui, -apple-system, Segoe UI, Roboto, Helvetica, Arial, sans-serif" font-size="14" fill="#222222" transform="rotate(-90 18 270.00)">count</text>
</svg>
